<?xml version="1.0" encoding="UTF-8" standalone="no"?>
<svg
   width="214.47198"
   height="9.132"
   viewBox="0 0 214.47198 9.132"
   fill="none"
   version="1.1"
   id="svg2"
   xmlns="http://www.w3.org/2000/svg"
   xmlns:svg="http://www.w3.org/2000/svg">
  <defs
     id="defs2" />
  <path
     d="m 3.071975,9.132001 c -0.528,0 -0.988,-0.096 -1.38,-0.288 -0.384,-0.2 -0.70400004,-0.484 -0.96000004,-0.852 -0.248,-0.368 -0.432,-0.82 -0.552,-1.356 -0.12,-0.536 -0.179999995255,-1.148 -0.179999995255,-1.836 0,-0.68 0.05999999526,-1.288 0.179999995255,-1.824 0.12,-0.544 0.304,-1 0.552,-1.368 0.256,-0.368 0.57600004,-0.64800006 0.96000004,-0.84000006 0.392,-0.2 0.852,-0.3 1.38,-0.3 0.528,0 0.984,0.1 1.368,0.3 0.392,0.192 0.712,0.47200006 0.96,0.84000006 0.256,0.368 0.444,0.824 0.564,1.368 0.12,0.536 0.18,1.144 0.18,1.824 0,0.688 -0.06,1.3 -0.18,1.836 -0.12,0.536 -0.308,0.988 -0.564,1.356 -0.248,0.368 -0.568,0.652 -0.96,0.852 -0.384,0.192 -0.84,0.288 -1.368,0.288 z m 0,-1.104 c 0.608,0 1.04,-0.224 1.296,-0.672 0.264,-0.456 0.396,-1.068 0.396,-1.836 v -1.44 c 0,-0.768 -0.132,-1.376 -0.396,-1.824 -0.256,-0.456 -0.688,-0.684 -1.296,-0.684 -0.304,0 -0.564,0.06 -0.78,0.18 -0.216,0.112 -0.392,0.28 -0.528,0.504 -0.136,0.216 -0.236,0.48 -0.3,0.792 -0.056,0.304 -0.084,0.648 -0.084,1.032 v 1.44 c 0,0.384 0.028,0.732 0.084,1.044 0.064,0.304 0.164,0.568 0.3,0.792 0.136,0.216 0.312,0.384 0.528,0.504 0.216,0.112 0.476,0.168 0.78,0.168 z m 0,-2.52 c -0.28,0 -0.476,-0.056 -0.588,-0.168 -0.104,-0.112 -0.156,-0.248 -0.156,-0.408 v -0.264 c 0,-0.16 0.052,-0.296 0.156,-0.408 0.112,-0.112 0.308,-0.168 0.588,-0.168 0.28,0 0.472,0.056 0.576,0.168 0.112,0.112 0.168,0.248 0.168,0.408 v 0.264 c 0,0.16 -0.056,0.296 -0.168,0.408 -0.104,0.112 -0.296,0.168 -0.576,0.168 z m 4.651,3.48 v -1.116 h 2.352 v -6.276 h -0.096 l -1.944,2.076 -0.828,-0.744 2.136,-2.31600006 h 2.076 V 7.872001 h 2.028 v 1.116 z m 12.68,0 h -5.784 v -1.284 l 2.736,-2.388 c 0.432,-0.384 0.764,-0.748 0.996,-1.092 0.24,-0.344 0.36,-0.708 0.36,-1.092 v -0.132 c 0,-0.44 -0.12,-0.776 -0.36,-1.008 -0.24,-0.24 -0.588,-0.36 -1.044,-0.36 -0.464,0 -0.824,0.124 -1.08,0.372 -0.248,0.248 -0.428,0.564 -0.54,0.948 l -1.176,-0.444 c 0.08,-0.264 0.196,-0.516 0.348,-0.756 0.152,-0.248 0.344,-0.468 0.576,-0.66 0.24,-0.19200006 0.52,-0.34400006 0.84,-0.45600006 0.328,-0.112 0.704,-0.168 1.128,-0.168 0.432,0 0.816,0.064 1.152,0.192 0.344,0.12 0.632,0.288 0.864,0.50400006 0.232,0.216 0.408,0.476 0.528,0.78 0.12,0.296 0.18,0.624 0.18,0.984 0,0.336 -0.052,0.648 -0.156,0.936 -0.096,0.28 -0.236,0.552 -0.42,0.816 -0.176,0.256 -0.388,0.504 -0.636,0.744 -0.248,0.24 -0.52,0.48 -0.816,0.72 l -2.028,1.704 h 4.332 z m 80.810995,0 V 0.61200094 h 3.132 c 0.8,0 1.408,0.224 1.824,0.67200006 0.424,0.448 0.636,1.064 0.636,1.848 0,0.784 -0.212,1.4 -0.636,1.848 -0.416,0.448 -1.024,0.672 -1.824,0.672 h -1.788 v 3.336 z m 1.344,-4.452 h 1.584 c 0.832,0 1.248,-0.384 1.248,-1.152 v -0.516 c 0,-0.76 -0.416,-1.14 -1.248,-1.14 h -1.584 z m 9.728,3.396 h -0.06 c -0.064,0.16 -0.148,0.316 -0.252,0.468 -0.096,0.144 -0.216,0.272 -0.36,0.384 -0.144,0.104 -0.312,0.188 -0.504,0.252 -0.192,0.064 -0.416,0.096 -0.672,0.096 -0.624,0 -1.128,-0.204 -1.512,-0.612 -0.384,-0.408 -0.576,-0.988 -0.576,-1.74 v -3.984 h 1.308 v 3.792 c 0,0.984 0.428,1.476 1.284,1.476 0.168,0 0.332,-0.02 0.492,-0.06 0.16,-0.048 0.304,-0.116 0.432,-0.204 0.128,-0.088 0.228,-0.196 0.3,-0.324 0.08,-0.136 0.12,-0.296 0.12,-0.48 v -4.2 h 1.308 v 6.192 h -1.308 z m 6.283,1.056 c -0.544,0 -0.944,-0.144 -1.2,-0.432 -0.256,-0.296 -0.384,-0.676 -0.384,-1.14 v -3.564 h -1.908 v -1.056 h 1.356 c 0.232,0 0.396,-0.044 0.492,-0.132 0.096,-0.096 0.144,-0.264 0.144,-0.504 V 0.61200094 h 1.224 V 2.796001 h 2.64 v 1.056 h -2.64 v 4.08 h 2.64 v 1.056 z m 7.207,-7.32 c -0.336,0 -0.572,-0.068 -0.708,-0.204 -0.128,-0.136 -0.192,-0.304 -0.192,-0.50400006 v -0.252 c 0,-0.2 0.064,-0.368 0.192,-0.504 0.136,-0.136 0.368,-0.20400000504328 0.696,-0.20400000504328 0.336,0 0.568,0.0680000050433 0.696,0.20400000504328 0.136,0.136 0.204,0.304 0.204,0.504 v 0.252 c 0,0.20000006 -0.068,0.36800006 -0.204,0.50400006 -0.128,0.136 -0.356,0.204 -0.684,0.204 z m -2.772,6.264 h 2.112 v -4.08 h -2.112 v -1.056 h 3.42 v 5.136 h 1.98 v 1.056 h -5.4 z m 6.992,1.056 v -6.192 h 1.308 v 1.056 h 0.06 c 0.064,-0.16 0.144,-0.312 0.24,-0.456 0.104,-0.152 0.228,-0.28 0.372,-0.384 0.144,-0.112 0.312,-0.2 0.504,-0.264 0.192,-0.064 0.416,-0.096 0.672,-0.096 0.624,0 1.128,0.204 1.512,0.612 0.384,0.408 0.576,0.988 0.576,1.74 v 3.984 h -1.308 v -3.792 c 0,-0.984 -0.428,-1.476 -1.284,-1.476 -0.168,0 -0.332,0.024 -0.492,0.072 -0.16,0.04 -0.304,0.104 -0.432,0.192 -0.128,0.088 -0.232,0.2 -0.312,0.336 -0.072,0.136 -0.108,0.292 -0.108,0.468 v 4.2 z m 9.355,-8.88000006 h 1.86 l -1.5,3.57600006 h -1.008 z m 7.639,9.02400006 c -0.672,0 -1.252,-0.108 -1.74,-0.324 -0.48,-0.216 -0.868,-0.504 -1.164,-0.864 l 0.804,-0.72 c 0.272,0.296 0.576,0.524 0.912,0.684 0.344,0.152 0.748,0.228 1.212,0.228 0.424,0 0.764,-0.072 1.02,-0.216 0.264,-0.144 0.396,-0.368 0.396,-0.672 0,-0.128 -0.024,-0.236 -0.072,-0.324 -0.048,-0.088 -0.116,-0.16 -0.204,-0.216 -0.088,-0.056 -0.192,-0.1 -0.312,-0.132 -0.112,-0.032 -0.232,-0.056 -0.36,-0.072 l -0.984,-0.156 c -0.24,-0.032 -0.484,-0.084 -0.732,-0.156 -0.248,-0.072 -0.472,-0.172 -0.672,-0.3 -0.192,-0.136 -0.352,-0.308 -0.48,-0.516 -0.12,-0.208 -0.18,-0.472 -0.18,-0.792 0,-0.632 0.24,-1.112 0.72,-1.44 0.488,-0.328 1.128,-0.492 1.92,-0.492 0.576,0 1.072,0.088 1.488,0.264 0.424,0.168 0.776,0.404 1.056,0.708 l -0.732,0.768 c -0.16,-0.184 -0.388,-0.352 -0.684,-0.504 -0.296,-0.16 -0.688,-0.24 -1.176,-0.24 -0.872,0 -1.308,0.276 -1.308,0.828 0,0.264 0.092,0.448 0.276,0.552 0.192,0.096 0.416,0.16 0.672,0.192 l 0.984,0.156 c 0.248,0.04 0.492,0.092 0.732,0.156 0.248,0.064 0.468,0.164 0.66,0.3 0.2,0.128 0.36,0.296 0.48,0.504 0.128,0.208 0.192,0.472 0.192,0.792 0,0.624 -0.244,1.116 -0.732,1.476 -0.48,0.352 -1.144,0.528 -1.992,0.528 z m 15.771,-3.828 h -2.784 v 3.684 h -1.344 V 0.61200094 h 1.344 V 4.176001 h 2.784 V 0.61200094 h 1.344 V 8.988001 h -1.344 z m 6.187,-3.636 c -0.336,0 -0.572,-0.068 -0.708,-0.204 -0.128,-0.136 -0.192,-0.304 -0.192,-0.50400006 v -0.252 c 0,-0.2 0.064,-0.368 0.192,-0.504 0.136,-0.136 0.368,-0.20400000504328 0.696,-0.20400000504328 0.336,0 0.568,0.0680000050433 0.696,0.20400000504328 0.136,0.136 0.204,0.304 0.204,0.504 v 0.252 c 0,0.20000006 -0.068,0.36800006 -0.204,0.50400006 -0.128,0.136 -0.356,0.204 -0.684,0.204 z m -2.772,6.264 h 2.112 v -4.08 h -2.112 v -1.056 h 3.42 v 5.136 h 1.98 v 1.056 h -5.4 z m 9.956,1.056 c -0.544,0 -0.944,-0.144 -1.2,-0.432 -0.256,-0.296 -0.384,-0.676 -0.384,-1.14 v -3.564 h -1.908 v -1.056 h 1.356 c 0.232,0 0.396,-0.044 0.492,-0.132 0.096,-0.096 0.144,-0.264 0.144,-0.504 V 0.61200094 h 1.224 V 2.796001 h 2.639 v 1.056 h -2.639 v 4.08 h 2.639 v 1.056 z m 11.714,0 V 0.61200094 h 1.344 V 7.860001 h 3.816 v 1.128 z m 9.883,-7.32 c -0.336,0 -0.572,-0.068 -0.708,-0.204 -0.128,-0.136 -0.192,-0.304 -0.192,-0.50400006 v -0.252 c 0,-0.2 0.064,-0.368 0.192,-0.504 0.136,-0.136 0.368,-0.20400000504328 0.696,-0.20400000504328 0.336,0 0.568,0.0680000050433 0.696,0.20400000504328 0.136,0.136 0.204,0.304 0.204,0.504 v 0.252 c 0,0.20000006 -0.068,0.36800006 -0.204,0.50400006 -0.128,0.136 -0.356,0.204 -0.684,0.204 z m -2.772,6.264 h 2.112 v -4.08 h -2.112 v -1.056 h 3.42 v 5.136 h 1.98 v 1.056 h -5.4 z m 9.596,1.2 c -0.672,0 -1.252,-0.108 -1.74,-0.324 -0.48,-0.216 -0.868,-0.504 -1.164,-0.864 l 0.804,-0.72 c 0.272,0.296 0.576,0.524 0.912,0.684 0.344,0.152 0.748,0.228 1.212,0.228 0.424,0 0.764,-0.072 1.02,-0.216 0.264,-0.144 0.396,-0.368 0.396,-0.672 0,-0.128 -0.024,-0.236 -0.072,-0.324 -0.048,-0.088 -0.116,-0.16 -0.204,-0.216 -0.088,-0.056 -0.192,-0.1 -0.312,-0.132 -0.112,-0.032 -0.232,-0.056 -0.36,-0.072 l -0.984,-0.156 c -0.24,-0.032 -0.484,-0.084 -0.732,-0.156 -0.248,-0.072 -0.472,-0.172 -0.672,-0.3 -0.192,-0.136 -0.352,-0.308 -0.48,-0.516 -0.12,-0.208 -0.18,-0.472 -0.18,-0.792 0,-0.632 0.24,-1.112 0.72,-1.44 0.488,-0.328 1.128,-0.492 1.92,-0.492 0.576,0 1.072,0.088 1.488,0.264 0.424,0.168 0.776,0.404 1.056,0.708 l -0.732,0.768 c -0.16,-0.184 -0.388,-0.352 -0.684,-0.504 -0.296,-0.16 -0.688,-0.24 -1.176,-0.24 -0.872,0 -1.308,0.276 -1.308,0.828 0,0.264 0.092,0.448 0.276,0.552 0.192,0.096 0.416,0.16 0.672,0.192 l 0.984,0.156 c 0.248,0.04 0.492,0.092 0.732,0.156 0.248,0.064 0.468,0.164 0.66,0.3 0.2,0.128 0.36,0.296 0.48,0.504 0.128,0.208 0.192,0.472 0.192,0.792 0,0.624 -0.244,1.116 -0.732,1.476 -0.48,0.352 -1.144,0.528 -1.992,0.528 z m 7.555,-0.144 c -0.544,0 -0.944,-0.144 -1.2,-0.432 -0.256,-0.296 -0.384,-0.676 -0.384,-1.14 v -3.564 h -1.908 v -1.056 h 1.356 c 0.232,0 0.396,-0.044 0.492,-0.132 0.096,-0.096 0.144,-0.264 0.144,-0.504 V 0.61200094 h 1.224 V 2.796001 h 2.64 v 1.056 h -2.64 v 4.08 h 2.64 v 1.056 z"
     fill="#000000"
     id="path2" />
</svg>
