<svg width="66" height="26" viewBox="0 0 66 26" fill="none" xmlns="http://www.w3.org/2000/svg">
<rect x="0.5" y="0.5" width="65" height="25" rx="8.5" stroke="black"/>
<path d="M15.6 17.144C15.072 17.144 14.612 17.048 14.22 16.856C13.836 16.656 13.516 16.372 13.26 16.004C13.012 15.636 12.828 15.184 12.708 14.648C12.588 14.112 12.528 13.5 12.528 12.812C12.528 12.132 12.588 11.524 12.708 10.988C12.828 10.444 13.012 9.988 13.26 9.62C13.516 9.252 13.836 8.972 14.22 8.78C14.612 8.58 15.072 8.48 15.6 8.48C16.128 8.48 16.584 8.58 16.968 8.78C17.36 8.972 17.68 9.252 17.928 9.62C18.184 9.988 18.372 10.444 18.492 10.988C18.612 11.524 18.672 12.132 18.672 12.812C18.672 13.5 18.612 14.112 18.492 14.648C18.372 15.184 18.184 15.636 17.928 16.004C17.68 16.372 17.36 16.656 16.968 16.856C16.584 17.048 16.128 17.144 15.6 17.144ZM15.6 16.028C16.2 16.028 16.624 15.804 16.872 15.356C17.12 14.9 17.244 14.284 17.244 13.508V12.104C17.244 11.336 17.12 10.728 16.872 10.28C16.624 9.824 16.2 9.596 15.6 9.596C15 9.596 14.576 9.824 14.328 10.28C14.08 10.728 13.956 11.336 13.956 12.104V13.52C13.956 14.288 14.08 14.9 14.328 15.356C14.576 15.804 15 16.028 15.6 16.028ZM20.2033 17V8.624H23.3353C24.1353 8.624 24.7433 8.848 25.1593 9.296C25.5833 9.744 25.7953 10.36 25.7953 11.144C25.7953 11.928 25.5833 12.544 25.1593 12.992C24.7433 13.44 24.1353 13.664 23.3353 13.664H21.5473V17H20.2033ZM21.5473 12.548H23.1313C23.9633 12.548 24.3793 12.164 24.3793 11.396V10.88C24.3793 10.12 23.9633 9.74 23.1313 9.74H21.5473V12.548ZM27.4226 17V8.624H32.6666V9.752H28.7666V12.188H32.5226V13.316H28.7666V15.872H32.6666V17H27.4226ZM35.7339 10.556H35.6259V17H34.4499V8.624H36.1779L38.6379 15.068H38.7459V8.624H39.9219V17H38.1939L35.7339 10.556Z" fill="black"/>
<path d="M56.3536 12.3536C56.5488 12.1583 56.5488 11.8417 56.3536 11.6464L53.1716 8.46447C52.9763 8.2692 52.6597 8.2692 52.4645 8.46447C52.2692 8.65973 52.2692 8.97631 52.4645 9.17157L55.2929 12L52.4645 14.8284C52.2692 15.0237 52.2692 15.3403 52.4645 15.5355C52.6597 15.7308 52.9763 15.7308 53.1716 15.5355L56.3536 12.3536ZM45 12V12.5H56V12V11.5H45V12Z" fill="#FE0000"/>
</svg>
