<svg width="700" height="592" viewBox="0 0 700 592" fill="none" xmlns="http://www.w3.org/2000/svg">
<path d="M693.11 590.93H5.89C2.66 590.93 0.68 588.92 0.68 585.74L0.56 314.71L0.5 72.4201L15.19 43.9701C17.71 39.0901 23.8 37.7901 29.42 37.0501H393.53C399.97 37.0501 405.45 33.3501 407.51 27.8401L413.22 12.5501C415.96 5.21006 421.69 0.480063 429.93 0.500063L514.9 0.680063L660.36 0.800063C665.59 0.800063 670.17 4.01006 671.89 8.59006L676.79 21.7101C679.64 29.3201 684.75 36.0301 692.33 39.0201C696.21 40.5501 697.25 42.8401 697.27 47.2901L698.63 428.47L699.04 584.19C699.04 587.56 698.08 590.92 693.13 590.92L693.11 590.93Z" fill="white" stroke="#231F20" stroke-miterlimit="10"/>
<path d="M432.6 28.644C432.072 28.644 431.612 28.548 431.22 28.356C430.836 28.156 430.516 27.872 430.26 27.504C430.012 27.136 429.828 26.684 429.708 26.148C429.588 25.612 429.528 25 429.528 24.312C429.528 23.632 429.588 23.024 429.708 22.488C429.828 21.944 430.012 21.488 430.26 21.12C430.516 20.752 430.836 20.472 431.22 20.28C431.612 20.08 432.072 19.98 432.6 19.98C433.128 19.98 433.584 20.08 433.968 20.28C434.36 20.472 434.68 20.752 434.928 21.12C435.184 21.488 435.372 21.944 435.492 22.488C435.612 23.024 435.672 23.632 435.672 24.312C435.672 25 435.612 25.612 435.492 26.148C435.372 26.684 435.184 27.136 434.928 27.504C434.68 27.872 434.36 28.156 433.968 28.356C433.584 28.548 433.128 28.644 432.6 28.644ZM432.6 27.54C433.208 27.54 433.64 27.316 433.896 26.868C434.16 26.412 434.292 25.8 434.292 25.032V23.592C434.292 22.824 434.16 22.216 433.896 21.768C433.64 21.312 433.208 21.084 432.6 21.084C432.296 21.084 432.036 21.144 431.82 21.264C431.604 21.376 431.428 21.544 431.292 21.768C431.156 21.984 431.056 22.248 430.992 22.56C430.936 22.864 430.908 23.208 430.908 23.592V25.032C430.908 25.416 430.936 25.764 430.992 26.076C431.056 26.38 431.156 26.644 431.292 26.868C431.428 27.084 431.604 27.252 431.82 27.372C432.036 27.484 432.296 27.54 432.6 27.54ZM432.6 25.02C432.32 25.02 432.124 24.964 432.012 24.852C431.908 24.74 431.856 24.604 431.856 24.444V24.18C431.856 24.02 431.908 23.884 432.012 23.772C432.124 23.66 432.32 23.604 432.6 23.604C432.88 23.604 433.072 23.66 433.176 23.772C433.288 23.884 433.344 24.02 433.344 24.18V24.444C433.344 24.604 433.288 24.74 433.176 24.852C433.072 24.964 432.88 25.02 432.6 25.02ZM437.251 28.5V27.384H439.603V21.108H439.507L437.563 23.184L436.735 22.44L438.871 20.124H440.947V27.384H442.975V28.5H437.251ZM449.931 28.5H444.147V27.216L446.883 24.828C447.315 24.444 447.647 24.08 447.879 23.736C448.119 23.392 448.239 23.028 448.239 22.644V22.512C448.239 22.072 448.119 21.736 447.879 21.504C447.639 21.264 447.291 21.144 446.835 21.144C446.371 21.144 446.011 21.268 445.755 21.516C445.507 21.764 445.327 22.08 445.215 22.464L444.039 22.02C444.119 21.756 444.235 21.504 444.387 21.264C444.539 21.016 444.731 20.796 444.963 20.604C445.203 20.412 445.483 20.26 445.803 20.148C446.131 20.036 446.507 19.98 446.931 19.98C447.363 19.98 447.747 20.044 448.083 20.172C448.427 20.292 448.715 20.46 448.947 20.676C449.179 20.892 449.355 21.152 449.475 21.456C449.595 21.752 449.655 22.08 449.655 22.44C449.655 22.776 449.603 23.088 449.499 23.376C449.403 23.656 449.263 23.928 449.079 24.192C448.903 24.448 448.691 24.696 448.443 24.936C448.195 25.176 447.923 25.416 447.627 25.656L445.599 27.36H449.931V28.5ZM470.893 20.124V26.256C470.893 26.616 470.829 26.944 470.701 27.24C470.581 27.536 470.405 27.788 470.173 27.996C469.949 28.204 469.677 28.364 469.357 28.476C469.037 28.588 468.681 28.644 468.289 28.644C467.553 28.644 466.965 28.46 466.525 28.092C466.093 27.724 465.813 27.216 465.685 26.568L466.957 26.304C467.029 26.648 467.165 26.936 467.365 27.168C467.565 27.4 467.877 27.516 468.301 27.516C468.693 27.516 468.997 27.4 469.213 27.168C469.437 26.928 469.549 26.564 469.549 26.076V21.252H466.633V20.124H470.893ZM476.156 21.18C475.82 21.18 475.584 21.112 475.448 20.976C475.32 20.84 475.256 20.672 475.256 20.472V20.22C475.256 20.02 475.32 19.852 475.448 19.716C475.584 19.58 475.816 19.512 476.144 19.512C476.48 19.512 476.712 19.58 476.84 19.716C476.976 19.852 477.044 20.02 477.044 20.22V20.472C477.044 20.672 476.976 20.84 476.84 20.976C476.712 21.112 476.484 21.18 476.156 21.18ZM473.384 27.444H475.496V23.364H473.384V22.308H476.804V27.444H478.784V28.5H473.384V27.444ZM480.375 28.5V22.308H481.683V23.364H481.743C481.807 23.204 481.887 23.052 481.983 22.908C482.087 22.756 482.211 22.628 482.355 22.524C482.499 22.412 482.667 22.324 482.859 22.26C483.051 22.196 483.275 22.164 483.531 22.164C484.155 22.164 484.659 22.368 485.043 22.776C485.427 23.184 485.619 23.764 485.619 24.516V28.5H484.311V24.708C484.311 23.724 483.883 23.232 483.027 23.232C482.859 23.232 482.695 23.256 482.535 23.304C482.375 23.344 482.231 23.408 482.103 23.496C481.975 23.584 481.871 23.696 481.791 23.832C481.719 23.968 481.683 24.124 481.683 24.3V28.5H480.375ZM487.511 22.308H488.819V23.364H488.891C489.075 22.988 489.319 22.696 489.623 22.488C489.927 22.272 490.307 22.164 490.763 22.164C491.491 22.164 492.071 22.436 492.503 22.98C492.935 23.524 493.151 24.332 493.151 25.404C493.151 26.476 492.935 27.284 492.503 27.828C492.071 28.372 491.491 28.644 490.763 28.644C490.307 28.644 489.927 28.54 489.623 28.332C489.319 28.116 489.075 27.82 488.891 27.444H488.819V30.9H487.511V22.308ZM490.223 27.576C490.719 27.576 491.099 27.424 491.363 27.12C491.635 26.816 491.771 26.412 491.771 25.908V24.9C491.771 24.396 491.635 23.992 491.363 23.688C491.099 23.384 490.719 23.232 490.223 23.232C490.031 23.232 489.851 23.256 489.683 23.304C489.515 23.352 489.367 23.424 489.239 23.52C489.111 23.616 489.007 23.736 488.927 23.88C488.855 24.016 488.819 24.18 488.819 24.372V26.436C488.819 26.628 488.855 26.796 488.927 26.94C489.007 27.076 489.111 27.192 489.239 27.288C489.367 27.384 489.515 27.456 489.683 27.504C489.851 27.552 490.031 27.576 490.223 27.576ZM497.742 21.18C497.406 21.18 497.17 21.112 497.034 20.976C496.906 20.84 496.842 20.672 496.842 20.472V20.22C496.842 20.02 496.906 19.852 497.034 19.716C497.17 19.58 497.402 19.512 497.73 19.512C498.066 19.512 498.298 19.58 498.426 19.716C498.562 19.852 498.63 20.02 498.63 20.22V20.472C498.63 20.672 498.562 20.84 498.426 20.976C498.298 21.112 498.07 21.18 497.742 21.18ZM494.97 27.444H497.082V23.364H494.97V22.308H498.39V27.444H500.37V28.5H494.97V27.444ZM501.961 28.5V22.308H503.269V23.364H503.329C503.393 23.204 503.473 23.052 503.569 22.908C503.673 22.756 503.797 22.628 503.941 22.524C504.085 22.412 504.253 22.324 504.445 22.26C504.637 22.196 504.861 22.164 505.117 22.164C505.741 22.164 506.245 22.368 506.629 22.776C507.013 23.184 507.205 23.764 507.205 24.516V28.5H505.897V24.708C505.897 23.724 505.469 23.232 504.613 23.232C504.445 23.232 504.281 23.256 504.121 23.304C503.961 23.344 503.817 23.408 503.689 23.496C503.561 23.584 503.457 23.696 503.377 23.832C503.305 23.968 503.269 24.124 503.269 24.3V28.5H501.961ZM514.988 29.172C514.988 29.812 514.72 30.284 514.184 30.588C513.648 30.892 512.832 31.044 511.736 31.044C511.2 31.044 510.748 31.008 510.38 30.936C510.02 30.872 509.724 30.776 509.492 30.648C509.268 30.52 509.104 30.364 509 30.18C508.904 29.996 508.856 29.788 508.856 29.556C508.856 29.22 508.948 28.956 509.132 28.764C509.324 28.58 509.592 28.444 509.936 28.356V28.236C509.728 28.156 509.56 28.044 509.432 27.9C509.312 27.756 509.252 27.568 509.252 27.336C509.252 27.032 509.356 26.804 509.564 26.652C509.772 26.492 510.04 26.372 510.368 26.292V26.232C509.992 26.056 509.7 25.808 509.492 25.488C509.284 25.168 509.18 24.784 509.18 24.336C509.18 24.008 509.24 23.712 509.36 23.448C509.48 23.176 509.648 22.948 509.864 22.764C510.088 22.572 510.352 22.424 510.656 22.32C510.968 22.216 511.316 22.164 511.7 22.164C512.132 22.164 512.52 22.232 512.864 22.368V22.164C512.864 21.924 512.932 21.724 513.068 21.564C513.204 21.404 513.412 21.324 513.692 21.324H514.82V22.356H513.38V22.644C513.652 22.828 513.86 23.064 514.004 23.352C514.148 23.632 514.22 23.96 514.22 24.336C514.22 24.664 514.16 24.964 514.04 25.236C513.92 25.5 513.748 25.728 513.524 25.92C513.308 26.104 513.044 26.248 512.732 26.352C512.428 26.448 512.084 26.496 511.7 26.496C511.428 26.496 511.172 26.472 510.932 26.424C510.788 26.464 510.644 26.532 510.5 26.628C510.356 26.724 510.284 26.856 510.284 27.024C510.284 27.216 510.376 27.336 510.56 27.384C510.744 27.432 510.972 27.456 511.244 27.456H512.636C513.468 27.456 514.068 27.616 514.436 27.936C514.804 28.248 514.988 28.66 514.988 29.172ZM513.764 29.256C513.764 29.048 513.68 28.88 513.512 28.752C513.344 28.632 513.04 28.572 512.6 28.572H510.452C510.148 28.716 509.996 28.948 509.996 29.268C509.996 29.5 510.092 29.7 510.284 29.868C510.484 30.036 510.812 30.12 511.268 30.12H512.24C512.736 30.12 513.112 30.044 513.368 29.892C513.632 29.748 513.764 29.536 513.764 29.256ZM511.7 25.596C512.124 25.596 512.436 25.496 512.636 25.296C512.836 25.096 512.936 24.828 512.936 24.492V24.168C512.936 23.832 512.836 23.564 512.636 23.364C512.436 23.164 512.124 23.064 511.7 23.064C511.276 23.064 510.964 23.164 510.764 23.364C510.564 23.564 510.464 23.832 510.464 24.168V24.492C510.464 24.828 510.564 25.096 510.764 25.296C510.964 25.496 511.276 25.596 511.7 25.596ZM518.512 19.62H520.372L518.872 23.196H517.864L518.512 19.62ZM526.151 28.644C525.479 28.644 524.899 28.536 524.411 28.32C523.931 28.104 523.543 27.816 523.247 27.456L524.051 26.736C524.323 27.032 524.627 27.26 524.963 27.42C525.307 27.572 525.711 27.648 526.175 27.648C526.599 27.648 526.939 27.576 527.195 27.432C527.459 27.288 527.591 27.064 527.591 26.76C527.591 26.632 527.567 26.524 527.519 26.436C527.471 26.348 527.403 26.276 527.315 26.22C527.227 26.164 527.123 26.12 527.003 26.088C526.891 26.056 526.771 26.032 526.643 26.016L525.659 25.86C525.419 25.828 525.175 25.776 524.927 25.704C524.679 25.632 524.455 25.532 524.255 25.404C524.063 25.268 523.903 25.096 523.775 24.888C523.655 24.68 523.595 24.416 523.595 24.096C523.595 23.464 523.835 22.984 524.315 22.656C524.803 22.328 525.443 22.164 526.235 22.164C526.811 22.164 527.307 22.252 527.723 22.428C528.147 22.596 528.499 22.832 528.779 23.136L528.047 23.904C527.887 23.72 527.659 23.552 527.363 23.4C527.067 23.24 526.675 23.16 526.187 23.16C525.315 23.16 524.879 23.436 524.879 23.988C524.879 24.252 524.971 24.436 525.155 24.54C525.347 24.636 525.571 24.7 525.827 24.732L526.811 24.888C527.059 24.928 527.303 24.98 527.543 25.044C527.791 25.108 528.011 25.208 528.203 25.344C528.403 25.472 528.563 25.64 528.683 25.848C528.811 26.056 528.875 26.32 528.875 26.64C528.875 27.264 528.631 27.756 528.143 28.116C527.663 28.468 526.999 28.644 526.151 28.644ZM542.474 28.5L541.838 26.268H539.174L538.538 28.5H537.17L539.618 20.124H541.454L543.902 28.5H542.474ZM540.554 21.48H540.458L539.426 25.152H541.586L540.554 21.48ZM545.073 22.308H546.381V23.364H546.453C546.637 22.988 546.881 22.696 547.185 22.488C547.489 22.272 547.869 22.164 548.325 22.164C549.053 22.164 549.633 22.436 550.065 22.98C550.497 23.524 550.713 24.332 550.713 25.404C550.713 26.476 550.497 27.284 550.065 27.828C549.633 28.372 549.053 28.644 548.325 28.644C547.869 28.644 547.489 28.54 547.185 28.332C546.881 28.116 546.637 27.82 546.453 27.444H546.381V30.9H545.073V22.308ZM547.785 27.576C548.281 27.576 548.661 27.424 548.925 27.12C549.197 26.816 549.333 26.412 549.333 25.908V24.9C549.333 24.396 549.197 23.992 548.925 23.688C548.661 23.384 548.281 23.232 547.785 23.232C547.593 23.232 547.413 23.256 547.245 23.304C547.077 23.352 546.929 23.424 546.801 23.52C546.673 23.616 546.569 23.736 546.489 23.88C546.417 24.016 546.381 24.18 546.381 24.372V26.436C546.381 26.628 546.417 26.796 546.489 26.94C546.569 27.076 546.673 27.192 546.801 27.288C546.929 27.384 547.077 27.456 547.245 27.504C547.413 27.552 547.593 27.576 547.785 27.576ZM552.268 22.308H553.576V23.364H553.648C553.832 22.988 554.076 22.696 554.38 22.488C554.684 22.272 555.064 22.164 555.52 22.164C556.248 22.164 556.828 22.436 557.26 22.98C557.692 23.524 557.908 24.332 557.908 25.404C557.908 26.476 557.692 27.284 557.26 27.828C556.828 28.372 556.248 28.644 555.52 28.644C555.064 28.644 554.684 28.54 554.38 28.332C554.076 28.116 553.832 27.82 553.648 27.444H553.576V30.9H552.268V22.308ZM554.98 27.576C555.476 27.576 555.856 27.424 556.12 27.12C556.392 26.816 556.528 26.412 556.528 25.908V24.9C556.528 24.396 556.392 23.992 556.12 23.688C555.856 23.384 555.476 23.232 554.98 23.232C554.788 23.232 554.608 23.256 554.44 23.304C554.272 23.352 554.124 23.424 553.996 23.52C553.868 23.616 553.764 23.736 553.684 23.88C553.612 24.016 553.576 24.18 553.576 24.372V26.436C553.576 26.628 553.612 26.796 553.684 26.94C553.764 27.076 553.868 27.192 553.996 27.288C554.124 27.384 554.272 27.456 554.44 27.504C554.608 27.552 554.788 27.576 554.98 27.576ZM559.428 27.444H561.072V23.364H559.428V22.308H562.38V23.952H562.452C562.508 23.736 562.588 23.528 562.692 23.328C562.796 23.128 562.928 22.956 563.088 22.812C563.248 22.66 563.444 22.54 563.676 22.452C563.908 22.356 564.18 22.308 564.492 22.308H565.236V23.556H564.012C563.532 23.556 563.14 23.7 562.836 23.988C562.532 24.268 562.38 24.648 562.38 25.128V27.444H564.624V28.5H559.428V27.444ZM569.311 28.644C568.855 28.644 568.443 28.568 568.075 28.416C567.715 28.264 567.407 28.048 567.151 27.768C566.903 27.488 566.711 27.148 566.575 26.748C566.439 26.348 566.371 25.9 566.371 25.404C566.371 24.908 566.439 24.46 566.575 24.06C566.711 23.66 566.903 23.32 567.151 23.04C567.407 22.76 567.715 22.544 568.075 22.392C568.443 22.24 568.855 22.164 569.311 22.164C569.767 22.164 570.175 22.24 570.535 22.392C570.903 22.544 571.211 22.76 571.459 23.04C571.715 23.32 571.911 23.66 572.047 24.06C572.183 24.46 572.251 24.908 572.251 25.404C572.251 25.9 572.183 26.348 572.047 26.748C571.911 27.148 571.715 27.488 571.459 27.768C571.211 28.048 570.903 28.264 570.535 28.416C570.175 28.568 569.767 28.644 569.311 28.644ZM569.311 27.612C569.791 27.612 570.171 27.468 570.451 27.18C570.739 26.884 570.883 26.448 570.883 25.872V24.936C570.883 24.36 570.739 23.928 570.451 23.64C570.171 23.344 569.791 23.196 569.311 23.196C568.831 23.196 568.447 23.344 568.159 23.64C567.879 23.928 567.739 24.36 567.739 24.936V25.872C567.739 26.448 567.879 26.884 568.159 27.18C568.447 27.468 568.831 27.612 569.311 27.612ZM575.702 28.5L573.482 22.308H574.838L575.69 24.924L576.494 27.408H576.566L577.37 24.924L578.222 22.308H579.53L577.31 28.5H575.702ZM583.834 28.644C583.362 28.644 582.938 28.568 582.562 28.416C582.186 28.264 581.87 28.048 581.614 27.768C581.358 27.488 581.162 27.152 581.026 26.76C580.89 26.36 580.822 25.912 580.822 25.416C580.822 24.92 580.89 24.472 581.026 24.072C581.17 23.672 581.366 23.332 581.614 23.052C581.87 22.764 582.178 22.544 582.538 22.392C582.898 22.24 583.298 22.164 583.738 22.164C584.17 22.164 584.562 22.24 584.914 22.392C585.266 22.536 585.566 22.744 585.814 23.016C586.062 23.288 586.25 23.612 586.378 23.988C586.514 24.364 586.582 24.78 586.582 25.236V25.728H582.142V25.932C582.142 26.42 582.294 26.82 582.598 27.132C582.902 27.436 583.322 27.588 583.858 27.588C584.258 27.588 584.598 27.504 584.878 27.336C585.166 27.16 585.398 26.928 585.574 26.64L586.39 27.36C586.182 27.72 585.862 28.024 585.43 28.272C585.006 28.52 584.474 28.644 583.834 28.644ZM583.738 23.16C583.506 23.16 583.29 23.2 583.09 23.28C582.898 23.36 582.73 23.476 582.586 23.628C582.45 23.772 582.342 23.944 582.262 24.144C582.182 24.344 582.142 24.564 582.142 24.804V24.888H585.25V24.768C585.25 24.28 585.11 23.892 584.83 23.604C584.558 23.308 584.194 23.16 583.738 23.16ZM592.241 27.444H592.169C591.985 27.82 591.741 28.116 591.437 28.332C591.133 28.54 590.753 28.644 590.297 28.644C589.569 28.644 588.989 28.372 588.557 27.828C588.125 27.284 587.909 26.476 587.909 25.404C587.909 24.332 588.125 23.524 588.557 22.98C588.989 22.436 589.569 22.164 590.297 22.164C590.753 22.164 591.133 22.272 591.437 22.488C591.741 22.696 591.985 22.988 592.169 23.364H592.241V19.62H593.549V28.5H592.241V27.444ZM590.837 27.576C591.029 27.576 591.209 27.552 591.377 27.504C591.545 27.456 591.693 27.384 591.821 27.288C591.949 27.192 592.049 27.076 592.121 26.94C592.201 26.796 592.241 26.628 592.241 26.436V24.372C592.241 24.18 592.201 24.016 592.121 23.88C592.049 23.736 591.949 23.616 591.821 23.52C591.693 23.424 591.545 23.352 591.377 23.304C591.209 23.256 591.029 23.232 590.837 23.232C590.341 23.232 589.957 23.384 589.685 23.688C589.421 23.992 589.289 24.396 589.289 24.9V25.908C589.289 26.412 589.421 26.816 589.685 27.12C589.957 27.424 590.341 27.576 590.837 27.576ZM605.288 28.644C604.76 28.644 604.3 28.548 603.908 28.356C603.524 28.156 603.204 27.872 602.948 27.504C602.7 27.136 602.516 26.684 602.396 26.148C602.276 25.612 602.216 25 602.216 24.312C602.216 23.632 602.276 23.024 602.396 22.488C602.516 21.944 602.7 21.488 602.948 21.12C603.204 20.752 603.524 20.472 603.908 20.28C604.3 20.08 604.76 19.98 605.288 19.98C605.816 19.98 606.272 20.08 606.656 20.28C607.048 20.472 607.368 20.752 607.616 21.12C607.872 21.488 608.06 21.944 608.18 22.488C608.3 23.024 608.36 23.632 608.36 24.312C608.36 25 608.3 25.612 608.18 26.148C608.06 26.684 607.872 27.136 607.616 27.504C607.368 27.872 607.048 28.156 606.656 28.356C606.272 28.548 605.816 28.644 605.288 28.644ZM605.288 27.528C605.888 27.528 606.312 27.304 606.56 26.856C606.808 26.4 606.932 25.784 606.932 25.008V23.604C606.932 22.836 606.808 22.228 606.56 21.78C606.312 21.324 605.888 21.096 605.288 21.096C604.688 21.096 604.264 21.324 604.016 21.78C603.768 22.228 603.644 22.836 603.644 23.604V25.02C603.644 25.788 603.768 26.4 604.016 26.856C604.264 27.304 604.688 27.528 605.288 27.528ZM609.831 22.308H611.139V23.364H611.211C611.395 22.988 611.639 22.696 611.943 22.488C612.247 22.272 612.627 22.164 613.083 22.164C613.811 22.164 614.391 22.436 614.823 22.98C615.255 23.524 615.471 24.332 615.471 25.404C615.471 26.476 615.255 27.284 614.823 27.828C614.391 28.372 613.811 28.644 613.083 28.644C612.627 28.644 612.247 28.54 611.943 28.332C611.639 28.116 611.395 27.82 611.211 27.444H611.139V30.9H609.831V22.308ZM612.543 27.576C613.039 27.576 613.419 27.424 613.683 27.12C613.955 26.816 614.091 26.412 614.091 25.908V24.9C614.091 24.396 613.955 23.992 613.683 23.688C613.419 23.384 613.039 23.232 612.543 23.232C612.351 23.232 612.171 23.256 612.003 23.304C611.835 23.352 611.687 23.424 611.559 23.52C611.431 23.616 611.327 23.736 611.247 23.88C611.175 24.016 611.139 24.18 611.139 24.372V26.436C611.139 26.628 611.175 26.796 611.247 26.94C611.327 27.076 611.431 27.192 611.559 27.288C611.687 27.384 611.835 27.456 612.003 27.504C612.171 27.552 612.351 27.576 612.543 27.576ZM620.062 21.18C619.726 21.18 619.49 21.112 619.354 20.976C619.226 20.84 619.162 20.672 619.162 20.472V20.22C619.162 20.02 619.226 19.852 619.354 19.716C619.49 19.58 619.722 19.512 620.05 19.512C620.386 19.512 620.618 19.58 620.746 19.716C620.882 19.852 620.95 20.02 620.95 20.22V20.472C620.95 20.672 620.882 20.84 620.746 20.976C620.618 21.112 620.39 21.18 620.062 21.18ZM617.29 27.444H619.402V23.364H617.29V22.308H620.71V27.444H622.69V28.5H617.29V27.444ZM624.281 28.5V22.308H625.589V23.364H625.649C625.713 23.204 625.793 23.052 625.889 22.908C625.993 22.756 626.117 22.628 626.261 22.524C626.405 22.412 626.573 22.324 626.765 22.26C626.957 22.196 627.181 22.164 627.437 22.164C628.061 22.164 628.565 22.368 628.949 22.776C629.333 23.184 629.525 23.764 629.525 24.516V28.5H628.217V24.708C628.217 23.724 627.789 23.232 626.933 23.232C626.765 23.232 626.601 23.256 626.441 23.304C626.281 23.344 626.137 23.408 626.009 23.496C625.881 23.584 625.777 23.696 625.697 23.832C625.625 23.968 625.589 24.124 625.589 24.3V28.5H624.281ZM634.453 21.18C634.117 21.18 633.881 21.112 633.745 20.976C633.617 20.84 633.553 20.672 633.553 20.472V20.22C633.553 20.02 633.617 19.852 633.745 19.716C633.881 19.58 634.113 19.512 634.441 19.512C634.777 19.512 635.009 19.58 635.137 19.716C635.273 19.852 635.341 20.02 635.341 20.22V20.472C635.341 20.672 635.273 20.84 635.137 20.976C635.009 21.112 634.781 21.18 634.453 21.18ZM631.681 27.444H633.793V23.364H631.681V22.308H635.101V27.444H637.081V28.5H631.681V27.444ZM641.264 28.644C640.808 28.644 640.396 28.568 640.028 28.416C639.668 28.264 639.36 28.048 639.104 27.768C638.856 27.488 638.664 27.148 638.528 26.748C638.392 26.348 638.324 25.9 638.324 25.404C638.324 24.908 638.392 24.46 638.528 24.06C638.664 23.66 638.856 23.32 639.104 23.04C639.36 22.76 639.668 22.544 640.028 22.392C640.396 22.24 640.808 22.164 641.264 22.164C641.72 22.164 642.128 22.24 642.488 22.392C642.856 22.544 643.164 22.76 643.412 23.04C643.668 23.32 643.864 23.66 644 24.06C644.136 24.46 644.204 24.908 644.204 25.404C644.204 25.9 644.136 26.348 644 26.748C643.864 27.148 643.668 27.488 643.412 27.768C643.164 28.048 642.856 28.264 642.488 28.416C642.128 28.568 641.72 28.644 641.264 28.644ZM641.264 27.612C641.744 27.612 642.124 27.468 642.404 27.18C642.692 26.884 642.836 26.448 642.836 25.872V24.936C642.836 24.36 642.692 23.928 642.404 23.64C642.124 23.344 641.744 23.196 641.264 23.196C640.784 23.196 640.4 23.344 640.112 23.64C639.832 23.928 639.692 24.36 639.692 24.936V25.872C639.692 26.448 639.832 26.884 640.112 27.18C640.4 27.468 640.784 27.612 641.264 27.612ZM645.867 28.5V22.308H647.175V23.364H647.235C647.299 23.204 647.379 23.052 647.475 22.908C647.579 22.756 647.703 22.628 647.847 22.524C647.991 22.412 648.159 22.324 648.351 22.26C648.543 22.196 648.767 22.164 649.023 22.164C649.647 22.164 650.151 22.368 650.535 22.776C650.919 23.184 651.111 23.764 651.111 24.516V28.5H649.803V24.708C649.803 23.724 649.375 23.232 648.519 23.232C648.351 23.232 648.187 23.256 648.027 23.304C647.867 23.344 647.723 23.408 647.595 23.496C647.467 23.584 647.363 23.696 647.283 23.832C647.211 23.968 647.175 24.124 647.175 24.3V28.5H645.867ZM655.667 28.644C654.995 28.644 654.415 28.536 653.927 28.32C653.447 28.104 653.059 27.816 652.763 27.456L653.567 26.736C653.839 27.032 654.143 27.26 654.479 27.42C654.823 27.572 655.227 27.648 655.691 27.648C656.115 27.648 656.455 27.576 656.711 27.432C656.975 27.288 657.107 27.064 657.107 26.76C657.107 26.632 657.083 26.524 657.035 26.436C656.987 26.348 656.919 26.276 656.831 26.22C656.743 26.164 656.639 26.12 656.519 26.088C656.407 26.056 656.287 26.032 656.159 26.016L655.175 25.86C654.935 25.828 654.691 25.776 654.443 25.704C654.195 25.632 653.971 25.532 653.771 25.404C653.579 25.268 653.419 25.096 653.291 24.888C653.171 24.68 653.111 24.416 653.111 24.096C653.111 23.464 653.351 22.984 653.831 22.656C654.319 22.328 654.959 22.164 655.751 22.164C656.327 22.164 656.823 22.252 657.239 22.428C657.663 22.596 658.015 22.832 658.295 23.136L657.563 23.904C657.403 23.72 657.175 23.552 656.879 23.4C656.583 23.24 656.191 23.16 655.703 23.16C654.831 23.16 654.395 23.436 654.395 23.988C654.395 24.252 654.487 24.436 654.671 24.54C654.863 24.636 655.087 24.7 655.343 24.732L656.327 24.888C656.575 24.928 656.819 24.98 657.059 25.044C657.307 25.108 657.527 25.208 657.719 25.344C657.919 25.472 658.079 25.64 658.199 25.848C658.327 26.056 658.391 26.32 658.391 26.64C658.391 27.264 658.147 27.756 657.659 28.116C657.179 28.468 656.515 28.644 655.667 28.644Z" fill="black"/>
</svg>
