<svg width="700" height="592" viewBox="0 0 700 592" fill="none" xmlns="http://www.w3.org/2000/svg">
<path d="M693.11 590.93H5.89C2.66 590.93 0.68 588.92 0.68 585.74L0.56 314.71L0.5 72.4201L15.19 43.9701C17.71 39.0901 23.8 37.7901 29.42 37.0501H393.53C399.97 37.0501 405.45 33.3501 407.51 27.8401L413.22 12.5501C415.96 5.21006 421.69 0.480063 429.93 0.500063L514.9 0.680063L660.36 0.800063C665.59 0.800063 670.17 4.01006 671.89 8.59006L676.79 21.7101C679.64 29.3201 684.75 36.0301 692.33 39.0201C696.21 40.5501 697.25 42.8401 697.27 47.2901L698.63 428.47L699.04 584.19C699.04 587.56 698.08 590.92 693.13 590.92L693.11 590.93Z" fill="white" stroke="#231F20" stroke-miterlimit="10"/>
<rect x="591.5" y="16.5" width="65" height="25" rx="8.5" stroke="black"/>
<path d="M606.6 33.144C606.072 33.144 605.612 33.048 605.22 32.856C604.836 32.656 604.516 32.372 604.26 32.004C604.012 31.636 603.828 31.184 603.708 30.648C603.588 30.112 603.528 29.5 603.528 28.812C603.528 28.132 603.588 27.524 603.708 26.988C603.828 26.444 604.012 25.988 604.26 25.62C604.516 25.252 604.836 24.972 605.22 24.78C605.612 24.58 606.072 24.48 606.6 24.48C607.128 24.48 607.584 24.58 607.968 24.78C608.36 24.972 608.68 25.252 608.928 25.62C609.184 25.988 609.372 26.444 609.492 26.988C609.612 27.524 609.672 28.132 609.672 28.812C609.672 29.5 609.612 30.112 609.492 30.648C609.372 31.184 609.184 31.636 608.928 32.004C608.68 32.372 608.36 32.656 607.968 32.856C607.584 33.048 607.128 33.144 606.6 33.144ZM606.6 32.028C607.2 32.028 607.624 31.804 607.872 31.356C608.12 30.9 608.244 30.284 608.244 29.508V28.104C608.244 27.336 608.12 26.728 607.872 26.28C607.624 25.824 607.2 25.596 606.6 25.596C606 25.596 605.576 25.824 605.328 26.28C605.08 26.728 604.956 27.336 604.956 28.104V29.52C604.956 30.288 605.08 30.9 605.328 31.356C605.576 31.804 606 32.028 606.6 32.028ZM611.203 33V24.624H614.335C615.135 24.624 615.743 24.848 616.159 25.296C616.583 25.744 616.795 26.36 616.795 27.144C616.795 27.928 616.583 28.544 616.159 28.992C615.743 29.44 615.135 29.664 614.335 29.664H612.547V33H611.203ZM612.547 28.548H614.131C614.963 28.548 615.379 28.164 615.379 27.396V26.88C615.379 26.12 614.963 25.74 614.131 25.74H612.547V28.548ZM618.423 33V24.624H623.667V25.752H619.767V28.188H623.523V29.316H619.767V31.872H623.667V33H618.423ZM626.734 26.556H626.626V33H625.45V24.624H627.178L629.638 31.068H629.746V24.624H630.922V33H629.194L626.734 26.556Z" fill="black"/>
<path d="M647.354 28.3536C647.549 28.1583 647.549 27.8417 647.354 27.6464L644.172 24.4645C643.976 24.2692 643.66 24.2692 643.464 24.4645C643.269 24.6597 643.269 24.9763 643.464 25.1716L646.293 28L643.464 30.8284C643.269 31.0237 643.269 31.3403 643.464 31.5355C643.66 31.7308 643.976 31.7308 644.172 31.5355L647.354 28.3536ZM636 28V28.5H647V28V27.5H636V28Z" fill="#FE0000"/>
</svg>
