<svg width="700" height="592" viewBox="0 0 700 592" fill="none" xmlns="http://www.w3.org/2000/svg">
<path d="M5.89 590.93H693.11L693.13 590.92C698.08 590.92 699.04 587.56 699.04 584.19L698.63 428.47L697.34 68L682.65 39.55C680.13 34.67 674.04 33.37 668.42 32.63C661.92 32.63 548.5 32.5 515 32.5C510 32.5 509.32 32.8198 508 29.5L500.89 8.59006C499.17 4.01006 494.59 0.800063 489.36 0.800063L343.9 0.680063L258.93 0.500063C250.69 0.480063 244.96 5.21006 242.22 12.5501L236.51 27.8401C234.45 33.3501 228.97 37.0501 222.53 37.0501H29.42C23.8 37.7901 17.71 39.0901 15.19 43.9701L0.5 72.4201L0.56 314.71L0.68 585.74C0.68 588.92 2.66 590.93 5.89 590.93Z" fill="white" stroke="#231F20" stroke-miterlimit="10"/>
<path d="M266.1 28.644C265.572 28.644 265.112 28.548 264.72 28.356C264.336 28.156 264.016 27.872 263.76 27.504C263.512 27.136 263.328 26.684 263.208 26.148C263.088 25.612 263.028 25 263.028 24.312C263.028 23.632 263.088 23.024 263.208 22.488C263.328 21.944 263.512 21.488 263.76 21.12C264.016 20.752 264.336 20.472 264.72 20.28C265.112 20.08 265.572 19.98 266.1 19.98C266.628 19.98 267.084 20.08 267.468 20.28C267.86 20.472 268.18 20.752 268.428 21.12C268.684 21.488 268.872 21.944 268.992 22.488C269.112 23.024 269.172 23.632 269.172 24.312C269.172 25 269.112 25.612 268.992 26.148C268.872 26.684 268.684 27.136 268.428 27.504C268.18 27.872 267.86 28.156 267.468 28.356C267.084 28.548 266.628 28.644 266.1 28.644ZM266.1 27.54C266.708 27.54 267.14 27.316 267.396 26.868C267.66 26.412 267.792 25.8 267.792 25.032V23.592C267.792 22.824 267.66 22.216 267.396 21.768C267.14 21.312 266.708 21.084 266.1 21.084C265.796 21.084 265.536 21.144 265.32 21.264C265.104 21.376 264.928 21.544 264.792 21.768C264.656 21.984 264.556 22.248 264.492 22.56C264.436 22.864 264.408 23.208 264.408 23.592V25.032C264.408 25.416 264.436 25.764 264.492 26.076C264.556 26.38 264.656 26.644 264.792 26.868C264.928 27.084 265.104 27.252 265.32 27.372C265.536 27.484 265.796 27.54 266.1 27.54ZM266.1 25.02C265.82 25.02 265.624 24.964 265.512 24.852C265.408 24.74 265.356 24.604 265.356 24.444V24.18C265.356 24.02 265.408 23.884 265.512 23.772C265.624 23.66 265.82 23.604 266.1 23.604C266.38 23.604 266.572 23.66 266.676 23.772C266.788 23.884 266.844 24.02 266.844 24.18V24.444C266.844 24.604 266.788 24.74 266.676 24.852C266.572 24.964 266.38 25.02 266.1 25.02ZM273.295 28.644C272.767 28.644 272.307 28.548 271.915 28.356C271.531 28.156 271.211 27.872 270.955 27.504C270.707 27.136 270.523 26.684 270.403 26.148C270.283 25.612 270.223 25 270.223 24.312C270.223 23.632 270.283 23.024 270.403 22.488C270.523 21.944 270.707 21.488 270.955 21.12C271.211 20.752 271.531 20.472 271.915 20.28C272.307 20.08 272.767 19.98 273.295 19.98C273.823 19.98 274.279 20.08 274.663 20.28C275.055 20.472 275.375 20.752 275.623 21.12C275.879 21.488 276.067 21.944 276.187 22.488C276.307 23.024 276.367 23.632 276.367 24.312C276.367 25 276.307 25.612 276.187 26.148C276.067 26.684 275.879 27.136 275.623 27.504C275.375 27.872 275.055 28.156 274.663 28.356C274.279 28.548 273.823 28.644 273.295 28.644ZM273.295 27.54C273.903 27.54 274.335 27.316 274.591 26.868C274.855 26.412 274.987 25.8 274.987 25.032V23.592C274.987 22.824 274.855 22.216 274.591 21.768C274.335 21.312 273.903 21.084 273.295 21.084C272.991 21.084 272.731 21.144 272.515 21.264C272.299 21.376 272.123 21.544 271.987 21.768C271.851 21.984 271.751 22.248 271.687 22.56C271.631 22.864 271.603 23.208 271.603 23.592V25.032C271.603 25.416 271.631 25.764 271.687 26.076C271.751 26.38 271.851 26.644 271.987 26.868C272.123 27.084 272.299 27.252 272.515 27.372C272.731 27.484 272.991 27.54 273.295 27.54ZM273.295 25.02C273.015 25.02 272.819 24.964 272.707 24.852C272.603 24.74 272.551 24.604 272.551 24.444V24.18C272.551 24.02 272.603 23.884 272.707 23.772C272.819 23.66 273.015 23.604 273.295 23.604C273.575 23.604 273.767 23.66 273.871 23.772C273.983 23.884 274.039 24.02 274.039 24.18V24.444C274.039 24.604 273.983 24.74 273.871 24.852C273.767 24.964 273.575 25.02 273.295 25.02ZM280.491 28.644C279.995 28.644 279.559 28.584 279.183 28.464C278.807 28.336 278.491 28.164 278.235 27.948C277.979 27.732 277.783 27.476 277.647 27.18C277.519 26.884 277.455 26.56 277.455 26.208C277.455 25.648 277.611 25.2 277.923 24.864C278.235 24.528 278.643 24.292 279.147 24.156V24.06C278.715 23.908 278.367 23.668 278.103 23.34C277.839 23.012 277.707 22.608 277.707 22.128C277.707 21.48 277.947 20.96 278.427 20.568C278.915 20.176 279.603 19.98 280.491 19.98C281.379 19.98 282.063 20.176 282.543 20.568C283.031 20.96 283.275 21.48 283.275 22.128C283.275 22.608 283.143 23.012 282.879 23.34C282.615 23.668 282.267 23.908 281.835 24.06V24.156C282.339 24.292 282.747 24.528 283.059 24.864C283.371 25.2 283.527 25.648 283.527 26.208C283.527 26.56 283.459 26.884 283.323 27.18C283.195 27.476 283.003 27.732 282.747 27.948C282.491 28.164 282.175 28.336 281.799 28.464C281.423 28.584 280.987 28.644 280.491 28.644ZM280.491 27.576C281.019 27.576 281.423 27.46 281.703 27.228C281.991 26.996 282.135 26.668 282.135 26.244V25.992C282.135 25.568 281.991 25.24 281.703 25.008C281.423 24.776 281.019 24.66 280.491 24.66C279.963 24.66 279.555 24.776 279.267 25.008C278.987 25.24 278.847 25.568 278.847 25.992V26.244C278.847 26.668 278.987 26.996 279.267 27.228C279.555 27.46 279.963 27.576 280.491 27.576ZM280.491 23.628C280.971 23.628 281.335 23.524 281.583 23.316C281.839 23.1 281.967 22.8 281.967 22.416V22.26C281.967 21.876 281.839 21.58 281.583 21.372C281.335 21.156 280.971 21.048 280.491 21.048C280.011 21.048 279.643 21.156 279.387 21.372C279.139 21.58 279.015 21.876 279.015 22.26V22.416C279.015 22.8 279.139 23.1 279.387 23.316C279.643 23.524 280.011 23.628 280.491 23.628ZM315.015 22.056H314.907V28.5H313.731V20.124H315.459L317.919 26.568H318.027V20.124H319.203V28.5H317.475L315.015 22.056ZM323.795 28.644C323.323 28.644 322.899 28.568 322.523 28.416C322.147 28.264 321.831 28.048 321.575 27.768C321.319 27.488 321.123 27.152 320.987 26.76C320.851 26.36 320.783 25.912 320.783 25.416C320.783 24.92 320.851 24.472 320.987 24.072C321.131 23.672 321.327 23.332 321.575 23.052C321.831 22.764 322.139 22.544 322.499 22.392C322.859 22.24 323.259 22.164 323.699 22.164C324.131 22.164 324.523 22.24 324.875 22.392C325.227 22.536 325.527 22.744 325.775 23.016C326.023 23.288 326.211 23.612 326.339 23.988C326.475 24.364 326.543 24.78 326.543 25.236V25.728H322.103V25.932C322.103 26.42 322.255 26.82 322.559 27.132C322.863 27.436 323.283 27.588 323.819 27.588C324.219 27.588 324.559 27.504 324.839 27.336C325.127 27.16 325.359 26.928 325.535 26.64L326.351 27.36C326.143 27.72 325.823 28.024 325.391 28.272C324.967 28.52 324.435 28.644 323.795 28.644ZM323.699 23.16C323.467 23.16 323.251 23.2 323.051 23.28C322.859 23.36 322.691 23.476 322.547 23.628C322.411 23.772 322.303 23.944 322.223 24.144C322.143 24.344 322.103 24.564 322.103 24.804V24.888H325.211V24.768C325.211 24.28 325.071 23.892 324.791 23.604C324.519 23.308 324.155 23.16 323.699 23.16ZM331.23 28.5C330.686 28.5 330.286 28.356 330.03 28.068C329.774 27.772 329.646 27.392 329.646 26.928V23.364H327.738V22.308H329.094C329.326 22.308 329.49 22.264 329.586 22.176C329.682 22.08 329.73 21.912 329.73 21.672V20.124H330.954V22.308H333.594V23.364H330.954V27.444H333.594V28.5H331.23ZM340.357 28.5C339.981 28.5 339.697 28.404 339.505 28.212C339.321 28.02 339.209 27.768 339.169 27.456H339.109C338.989 27.832 338.769 28.124 338.449 28.332C338.137 28.54 337.737 28.644 337.249 28.644C336.617 28.644 336.113 28.48 335.737 28.152C335.361 27.816 335.173 27.356 335.173 26.772C335.173 26.172 335.393 25.716 335.833 25.404C336.281 25.084 336.965 24.924 337.885 24.924H339.073V24.444C339.073 23.604 338.629 23.184 337.741 23.184C337.341 23.184 337.017 23.264 336.769 23.424C336.521 23.576 336.313 23.78 336.145 24.036L335.365 23.4C335.541 23.064 335.837 22.776 336.253 22.536C336.669 22.288 337.205 22.164 337.861 22.164C338.645 22.164 339.261 22.352 339.709 22.728C340.157 23.104 340.381 23.648 340.381 24.36V27.468H341.161V28.5H340.357ZM337.621 27.684C338.045 27.684 338.393 27.588 338.665 27.396C338.937 27.204 339.073 26.956 339.073 26.652V25.752H337.909C336.965 25.752 336.493 26.036 336.493 26.604V26.844C336.493 27.124 336.593 27.336 336.793 27.48C336.993 27.616 337.269 27.684 337.621 27.684ZM342.656 28.5V22.308H343.964V23.364H344.024C344.088 23.204 344.168 23.052 344.264 22.908C344.368 22.756 344.492 22.628 344.636 22.524C344.78 22.412 344.948 22.324 345.14 22.26C345.332 22.196 345.556 22.164 345.812 22.164C346.436 22.164 346.94 22.368 347.324 22.776C347.708 23.184 347.9 23.764 347.9 24.516V28.5H346.592V24.708C346.592 23.724 346.164 23.232 345.308 23.232C345.14 23.232 344.976 23.256 344.816 23.304C344.656 23.344 344.512 23.408 344.384 23.496C344.256 23.584 344.152 23.696 344.072 23.832C344 23.968 343.964 24.124 343.964 24.3V28.5H342.656ZM354.256 22.308H355.576L352.576 29.7C352.416 30.1 352.204 30.4 351.94 30.6C351.684 30.8 351.312 30.9 350.824 30.9H349.78V29.844H351.244L351.808 28.416L349.312 22.308H350.68L351.664 24.9L352.432 27.024H352.504L353.272 24.9L354.256 22.308ZM361.943 28.5C361.567 28.5 361.283 28.404 361.091 28.212C360.907 28.02 360.795 27.768 360.755 27.456H360.695C360.575 27.832 360.355 28.124 360.035 28.332C359.723 28.54 359.323 28.644 358.835 28.644C358.203 28.644 357.699 28.48 357.323 28.152C356.947 27.816 356.759 27.356 356.759 26.772C356.759 26.172 356.979 25.716 357.419 25.404C357.867 25.084 358.551 24.924 359.471 24.924H360.659V24.444C360.659 23.604 360.215 23.184 359.327 23.184C358.927 23.184 358.603 23.264 358.355 23.424C358.107 23.576 357.899 23.78 357.731 24.036L356.951 23.4C357.127 23.064 357.423 22.776 357.839 22.536C358.255 22.288 358.791 22.164 359.447 22.164C360.231 22.164 360.847 22.352 361.295 22.728C361.743 23.104 361.967 23.648 361.967 24.36V27.468H362.747V28.5H361.943ZM359.207 27.684C359.631 27.684 359.979 27.588 360.251 27.396C360.523 27.204 360.659 26.956 360.659 26.652V25.752H359.495C358.551 25.752 358.079 26.036 358.079 26.604V26.844C358.079 27.124 358.179 27.336 358.379 27.48C358.579 27.616 358.855 27.684 359.207 27.684ZM364.242 19.62H365.55V23.364H365.61C365.674 23.204 365.754 23.052 365.85 22.908C365.954 22.756 366.078 22.628 366.222 22.524C366.366 22.412 366.534 22.324 366.726 22.26C366.918 22.196 367.142 22.164 367.398 22.164C368.022 22.164 368.526 22.368 368.91 22.776C369.294 23.184 369.486 23.764 369.486 24.516V28.5H368.178V24.708C368.178 23.724 367.75 23.232 366.894 23.232C366.726 23.232 366.562 23.256 366.402 23.304C366.242 23.344 366.098 23.408 365.97 23.496C365.842 23.584 365.738 23.696 365.658 23.832C365.586 23.968 365.55 24.124 365.55 24.3V28.5H364.242V19.62ZM375.314 27.444H375.254C375.19 27.604 375.106 27.76 375.002 27.912C374.906 28.056 374.786 28.184 374.642 28.296C374.498 28.4 374.33 28.484 374.138 28.548C373.946 28.612 373.722 28.644 373.466 28.644C372.842 28.644 372.338 28.44 371.954 28.032C371.57 27.624 371.378 27.044 371.378 26.292V22.308H372.686V26.1C372.686 27.084 373.114 27.576 373.97 27.576C374.138 27.576 374.302 27.556 374.462 27.516C374.622 27.468 374.766 27.4 374.894 27.312C375.022 27.224 375.122 27.116 375.194 26.988C375.274 26.852 375.314 26.692 375.314 26.508V22.308H376.622V28.5H375.314V27.444ZM380.793 19.62H382.653L381.153 23.196H380.145L380.793 19.62ZM388.432 28.644C387.76 28.644 387.18 28.536 386.692 28.32C386.212 28.104 385.824 27.816 385.528 27.456L386.332 26.736C386.604 27.032 386.908 27.26 387.244 27.42C387.588 27.572 387.992 27.648 388.456 27.648C388.88 27.648 389.22 27.576 389.476 27.432C389.74 27.288 389.872 27.064 389.872 26.76C389.872 26.632 389.848 26.524 389.8 26.436C389.752 26.348 389.684 26.276 389.596 26.22C389.508 26.164 389.404 26.12 389.284 26.088C389.172 26.056 389.052 26.032 388.924 26.016L387.94 25.86C387.7 25.828 387.456 25.776 387.208 25.704C386.96 25.632 386.736 25.532 386.536 25.404C386.344 25.268 386.184 25.096 386.056 24.888C385.936 24.68 385.876 24.416 385.876 24.096C385.876 23.464 386.116 22.984 386.596 22.656C387.084 22.328 387.724 22.164 388.516 22.164C389.092 22.164 389.588 22.252 390.004 22.428C390.428 22.596 390.78 22.832 391.06 23.136L390.328 23.904C390.168 23.72 389.94 23.552 389.644 23.4C389.348 23.24 388.956 23.16 388.468 23.16C387.596 23.16 387.16 23.436 387.16 23.988C387.16 24.252 387.252 24.436 387.436 24.54C387.628 24.636 387.852 24.7 388.108 24.732L389.092 24.888C389.34 24.928 389.584 24.98 389.824 25.044C390.072 25.108 390.292 25.208 390.484 25.344C390.684 25.472 390.844 25.64 390.964 25.848C391.092 26.056 391.156 26.32 391.156 26.64C391.156 27.264 390.912 27.756 390.424 28.116C389.944 28.468 389.28 28.644 388.432 28.644ZM404.551 24.492L404.587 21.972H404.491L402.811 26.28L401.131 21.972H401.035L401.071 24.492V28.5H399.883V20.124H401.527L402.811 23.448H402.895L404.191 20.124H405.739V28.5H404.551V24.492ZM412.31 28.5C411.934 28.5 411.65 28.404 411.458 28.212C411.274 28.02 411.162 27.768 411.122 27.456H411.062C410.942 27.832 410.722 28.124 410.402 28.332C410.09 28.54 409.69 28.644 409.202 28.644C408.57 28.644 408.066 28.48 407.69 28.152C407.314 27.816 407.126 27.356 407.126 26.772C407.126 26.172 407.346 25.716 407.786 25.404C408.234 25.084 408.918 24.924 409.838 24.924H411.026V24.444C411.026 23.604 410.582 23.184 409.694 23.184C409.294 23.184 408.97 23.264 408.722 23.424C408.474 23.576 408.266 23.78 408.098 24.036L407.318 23.4C407.494 23.064 407.79 22.776 408.206 22.536C408.622 22.288 409.158 22.164 409.814 22.164C410.598 22.164 411.214 22.352 411.662 22.728C412.11 23.104 412.334 23.648 412.334 24.36V27.468H413.114V28.5H412.31ZM409.574 27.684C409.998 27.684 410.346 27.588 410.618 27.396C410.89 27.204 411.026 26.956 411.026 26.652V25.752H409.862C408.918 25.752 408.446 26.036 408.446 26.604V26.844C408.446 27.124 408.546 27.336 408.746 27.48C408.946 27.616 409.222 27.684 409.574 27.684ZM414.61 28.5V22.308H415.918V23.364H415.978C416.042 23.204 416.122 23.052 416.218 22.908C416.322 22.756 416.446 22.628 416.59 22.524C416.734 22.412 416.902 22.324 417.094 22.26C417.286 22.196 417.51 22.164 417.766 22.164C418.39 22.164 418.894 22.368 419.278 22.776C419.662 23.184 419.854 23.764 419.854 24.516V28.5H418.546V24.708C418.546 23.724 418.118 23.232 417.262 23.232C417.094 23.232 416.93 23.256 416.77 23.304C416.61 23.344 416.466 23.408 416.338 23.496C416.21 23.584 416.106 23.696 416.026 23.832C415.954 23.968 415.918 24.124 415.918 24.3V28.5H414.61ZM424.781 21.18C424.445 21.18 424.209 21.112 424.073 20.976C423.945 20.84 423.881 20.672 423.881 20.472V20.22C423.881 20.02 423.945 19.852 424.073 19.716C424.209 19.58 424.441 19.512 424.769 19.512C425.105 19.512 425.337 19.58 425.465 19.716C425.601 19.852 425.669 20.02 425.669 20.22V20.472C425.669 20.672 425.601 20.84 425.465 20.976C425.337 21.112 425.109 21.18 424.781 21.18ZM422.009 27.444H424.121V23.364H422.009V22.308H425.429V27.444H427.409V28.5H422.009V27.444ZM428.94 22.308H430.248V23.364H430.32C430.504 22.988 430.748 22.696 431.052 22.488C431.356 22.272 431.736 22.164 432.192 22.164C432.92 22.164 433.5 22.436 433.932 22.98C434.364 23.524 434.58 24.332 434.58 25.404C434.58 26.476 434.364 27.284 433.932 27.828C433.5 28.372 432.92 28.644 432.192 28.644C431.736 28.644 431.356 28.54 431.052 28.332C430.748 28.116 430.504 27.82 430.32 27.444H430.248V30.9H428.94V22.308ZM431.652 27.576C432.148 27.576 432.528 27.424 432.792 27.12C433.064 26.816 433.2 26.412 433.2 25.908V24.9C433.2 24.396 433.064 23.992 432.792 23.688C432.528 23.384 432.148 23.232 431.652 23.232C431.46 23.232 431.28 23.256 431.112 23.304C430.944 23.352 430.796 23.424 430.668 23.52C430.54 23.616 430.436 23.736 430.356 23.88C430.284 24.016 430.248 24.18 430.248 24.372V26.436C430.248 26.628 430.284 26.796 430.356 26.94C430.436 27.076 430.54 27.192 430.668 27.288C430.796 27.384 430.944 27.456 431.112 27.504C431.28 27.552 431.46 27.576 431.652 27.576ZM440.072 27.444H440.012C439.948 27.604 439.864 27.76 439.76 27.912C439.664 28.056 439.544 28.184 439.4 28.296C439.256 28.4 439.088 28.484 438.896 28.548C438.704 28.612 438.48 28.644 438.224 28.644C437.6 28.644 437.096 28.44 436.712 28.032C436.328 27.624 436.136 27.044 436.136 26.292V22.308H437.444V26.1C437.444 27.084 437.872 27.576 438.728 27.576C438.896 27.576 439.06 27.556 439.22 27.516C439.38 27.468 439.524 27.4 439.652 27.312C439.78 27.224 439.88 27.116 439.952 26.988C440.032 26.852 440.072 26.692 440.072 26.508V22.308H441.38V28.5H440.072V27.444ZM443.283 27.444H445.335V20.676H443.283V19.62H446.643V27.444H448.695V28.5H443.283V27.444ZM455.482 28.5C455.106 28.5 454.822 28.404 454.63 28.212C454.446 28.02 454.334 27.768 454.294 27.456H454.234C454.114 27.832 453.894 28.124 453.574 28.332C453.262 28.54 452.862 28.644 452.374 28.644C451.742 28.644 451.238 28.48 450.862 28.152C450.486 27.816 450.298 27.356 450.298 26.772C450.298 26.172 450.518 25.716 450.958 25.404C451.406 25.084 452.09 24.924 453.01 24.924H454.198V24.444C454.198 23.604 453.754 23.184 452.866 23.184C452.466 23.184 452.142 23.264 451.894 23.424C451.646 23.576 451.438 23.78 451.27 24.036L450.49 23.4C450.666 23.064 450.962 22.776 451.378 22.536C451.794 22.288 452.33 22.164 452.986 22.164C453.77 22.164 454.386 22.352 454.834 22.728C455.282 23.104 455.506 23.648 455.506 24.36V27.468H456.286V28.5H455.482ZM452.746 27.684C453.17 27.684 453.518 27.588 453.79 27.396C454.062 27.204 454.198 26.956 454.198 26.652V25.752H453.034C452.09 25.752 451.618 26.036 451.618 26.604V26.844C451.618 27.124 451.718 27.336 451.918 27.48C452.118 27.616 452.394 27.684 452.746 27.684ZM460.745 28.5C460.201 28.5 459.801 28.356 459.545 28.068C459.289 27.772 459.161 27.392 459.161 26.928V23.364H457.253V22.308H458.609C458.841 22.308 459.005 22.264 459.101 22.176C459.197 22.08 459.245 21.912 459.245 21.672V20.124H460.469V22.308H463.109V23.364H460.469V27.444H463.109V28.5H460.745ZM467.953 21.18C467.617 21.18 467.381 21.112 467.245 20.976C467.117 20.84 467.053 20.672 467.053 20.472V20.22C467.053 20.02 467.117 19.852 467.245 19.716C467.381 19.58 467.613 19.512 467.941 19.512C468.277 19.512 468.509 19.58 468.637 19.716C468.773 19.852 468.841 20.02 468.841 20.22V20.472C468.841 20.672 468.773 20.84 468.637 20.976C468.509 21.112 468.281 21.18 467.953 21.18ZM465.181 27.444H467.293V23.364H465.181V22.308H468.601V27.444H470.581V28.5H465.181V27.444ZM474.764 28.644C474.308 28.644 473.896 28.568 473.528 28.416C473.168 28.264 472.86 28.048 472.604 27.768C472.356 27.488 472.164 27.148 472.028 26.748C471.892 26.348 471.824 25.9 471.824 25.404C471.824 24.908 471.892 24.46 472.028 24.06C472.164 23.66 472.356 23.32 472.604 23.04C472.86 22.76 473.168 22.544 473.528 22.392C473.896 22.24 474.308 22.164 474.764 22.164C475.22 22.164 475.628 22.24 475.988 22.392C476.356 22.544 476.664 22.76 476.912 23.04C477.168 23.32 477.364 23.66 477.5 24.06C477.636 24.46 477.704 24.908 477.704 25.404C477.704 25.9 477.636 26.348 477.5 26.748C477.364 27.148 477.168 27.488 476.912 27.768C476.664 28.048 476.356 28.264 475.988 28.416C475.628 28.568 475.22 28.644 474.764 28.644ZM474.764 27.612C475.244 27.612 475.624 27.468 475.904 27.18C476.192 26.884 476.336 26.448 476.336 25.872V24.936C476.336 24.36 476.192 23.928 475.904 23.64C475.624 23.344 475.244 23.196 474.764 23.196C474.284 23.196 473.9 23.344 473.612 23.64C473.332 23.928 473.192 24.36 473.192 24.936V25.872C473.192 26.448 473.332 26.884 473.612 27.18C473.9 27.468 474.284 27.612 474.764 27.612ZM479.367 28.5V22.308H480.675V23.364H480.735C480.799 23.204 480.879 23.052 480.975 22.908C481.079 22.756 481.203 22.628 481.347 22.524C481.491 22.412 481.659 22.324 481.851 22.26C482.043 22.196 482.267 22.164 482.523 22.164C483.147 22.164 483.651 22.368 484.035 22.776C484.419 23.184 484.611 23.764 484.611 24.516V28.5H483.303V24.708C483.303 23.724 482.875 23.232 482.019 23.232C481.851 23.232 481.687 23.256 481.527 23.304C481.367 23.344 481.223 23.408 481.095 23.496C480.967 23.584 480.863 23.696 480.783 23.832C480.711 23.968 480.675 24.124 480.675 24.3V28.5H479.367Z" fill="black"/>
</svg>
