<svg width="700" height="592" viewBox="0 0 700 592" fill="none" xmlns="http://www.w3.org/2000/svg">
<path d="M6.42908 590.93H693.649C696.879 590.93 698.859 588.92 698.859 585.74L698.979 314.71L699.039 72.4201L684.349 43.9701C681.829 39.0901 675.739 37.7901 670.119 37.0501H306.009C299.569 37.0501 294.089 33.3501 292.029 27.8401L286.319 12.5501C283.579 5.21006 277.849 0.480063 269.609 0.500063L184.639 0.680063L39.1791 0.800063C33.9491 0.800063 29.369 4.01006 27.649 8.59006L22.7491 21.7101C19.8991 29.3201 14.7891 36.0301 7.20905 39.0201C3.32904 40.5501 2.28906 42.8401 2.26904 47.2901L0.909058 428.47L0.499084 584.19C0.499084 587.56 1.45905 590.92 6.40906 590.92L6.42908 590.93Z" fill="white" stroke="#231F20" stroke-miterlimit="10"/>
<path d="M54.124 29.644C53.652 29.644 53.232 29.568 52.864 29.416C52.496 29.264 52.184 29.048 51.928 28.768C51.672 28.48 51.476 28.136 51.34 27.736C51.204 27.336 51.136 26.884 51.136 26.38C51.136 25.772 51.228 25.2 51.412 24.664C51.596 24.128 51.836 23.636 52.132 23.188C52.428 22.74 52.756 22.344 53.116 22C53.476 21.648 53.832 21.356 54.184 21.124H55.984C55.504 21.468 55.072 21.8 54.688 22.12C54.304 22.44 53.968 22.768 53.68 23.104C53.4 23.44 53.164 23.796 52.972 24.172C52.78 24.54 52.632 24.952 52.528 25.408L52.612 25.432C52.7 25.264 52.804 25.108 52.924 24.964C53.044 24.812 53.184 24.68 53.344 24.568C53.504 24.456 53.688 24.368 53.896 24.304C54.104 24.24 54.34 24.208 54.604 24.208C54.964 24.208 55.296 24.268 55.6 24.388C55.904 24.508 56.168 24.684 56.392 24.916C56.616 25.14 56.788 25.412 56.908 25.732C57.036 26.052 57.1 26.412 57.1 26.812C57.1 27.228 57.028 27.612 56.884 27.964C56.748 28.308 56.548 28.604 56.284 28.852C56.028 29.1 55.716 29.296 55.348 29.44C54.98 29.576 54.572 29.644 54.124 29.644ZM54.112 28.564C54.624 28.564 55.02 28.428 55.3 28.156C55.58 27.876 55.72 27.484 55.72 26.98V26.86C55.72 26.356 55.58 25.968 55.3 25.696C55.02 25.416 54.624 25.276 54.112 25.276C53.608 25.276 53.216 25.416 52.936 25.696C52.656 25.968 52.516 26.356 52.516 26.86V26.98C52.516 27.484 52.656 27.876 52.936 28.156C53.216 28.428 53.608 28.564 54.112 28.564ZM61.3193 29.644C60.8473 29.644 60.4273 29.568 60.0593 29.416C59.6913 29.264 59.3793 29.048 59.1233 28.768C58.8673 28.48 58.6713 28.136 58.5353 27.736C58.3993 27.336 58.3313 26.884 58.3313 26.38C58.3313 25.772 58.4233 25.2 58.6073 24.664C58.7913 24.128 59.0313 23.636 59.3273 23.188C59.6233 22.74 59.9513 22.344 60.3113 22C60.6713 21.648 61.0273 21.356 61.3793 21.124H63.1793C62.6993 21.468 62.2673 21.8 61.8833 22.12C61.4993 22.44 61.1633 22.768 60.8753 23.104C60.5953 23.44 60.3593 23.796 60.1673 24.172C59.9753 24.54 59.8273 24.952 59.7233 25.408L59.8073 25.432C59.8953 25.264 59.9993 25.108 60.1193 24.964C60.2393 24.812 60.3793 24.68 60.5393 24.568C60.6993 24.456 60.8833 24.368 61.0913 24.304C61.2993 24.24 61.5353 24.208 61.7993 24.208C62.1593 24.208 62.4913 24.268 62.7953 24.388C63.0993 24.508 63.3633 24.684 63.5873 24.916C63.8113 25.14 63.9833 25.412 64.1033 25.732C64.2313 26.052 64.2953 26.412 64.2953 26.812C64.2953 27.228 64.2233 27.612 64.0793 27.964C63.9433 28.308 63.7433 28.604 63.4793 28.852C63.2233 29.1 62.9113 29.296 62.5433 29.44C62.1753 29.576 61.7673 29.644 61.3193 29.644ZM61.3073 28.564C61.8193 28.564 62.2153 28.428 62.4953 28.156C62.7753 27.876 62.9153 27.484 62.9153 26.98V26.86C62.9153 26.356 62.7753 25.968 62.4953 25.696C62.2153 25.416 61.8193 25.276 61.3073 25.276C60.8033 25.276 60.4113 25.416 60.1313 25.696C59.8513 25.968 59.7113 26.356 59.7113 26.86V26.98C59.7113 27.484 59.8513 27.876 60.1313 28.156C60.4113 28.428 60.8033 28.564 61.3073 28.564ZM68.5146 29.644C68.0426 29.644 67.6226 29.568 67.2546 29.416C66.8866 29.264 66.5746 29.048 66.3186 28.768C66.0626 28.48 65.8666 28.136 65.7306 27.736C65.5946 27.336 65.5266 26.884 65.5266 26.38C65.5266 25.772 65.6186 25.2 65.8026 24.664C65.9866 24.128 66.2266 23.636 66.5226 23.188C66.8186 22.74 67.1466 22.344 67.5066 22C67.8666 21.648 68.2226 21.356 68.5746 21.124H70.3746C69.8946 21.468 69.4626 21.8 69.0786 22.12C68.6946 22.44 68.3586 22.768 68.0706 23.104C67.7906 23.44 67.5546 23.796 67.3626 24.172C67.1706 24.54 67.0226 24.952 66.9186 25.408L67.0026 25.432C67.0906 25.264 67.1946 25.108 67.3146 24.964C67.4346 24.812 67.5746 24.68 67.7346 24.568C67.8946 24.456 68.0786 24.368 68.2866 24.304C68.4946 24.24 68.7306 24.208 68.9946 24.208C69.3546 24.208 69.6866 24.268 69.9906 24.388C70.2946 24.508 70.5586 24.684 70.7826 24.916C71.0066 25.14 71.1786 25.412 71.2986 25.732C71.4266 26.052 71.4906 26.412 71.4906 26.812C71.4906 27.228 71.4186 27.612 71.2746 27.964C71.1386 28.308 70.9386 28.604 70.6746 28.852C70.4186 29.1 70.1066 29.296 69.7386 29.44C69.3706 29.576 68.9626 29.644 68.5146 29.644ZM68.5026 28.564C69.0146 28.564 69.4106 28.428 69.6906 28.156C69.9706 27.876 70.1106 27.484 70.1106 26.98V26.86C70.1106 26.356 69.9706 25.968 69.6906 25.696C69.4106 25.416 69.0146 25.276 68.5026 25.276C67.9986 25.276 67.6066 25.416 67.3266 25.696C67.0466 25.968 66.9066 26.356 66.9066 26.86V26.98C66.9066 27.484 67.0466 27.876 67.3266 28.156C67.6066 28.428 67.9986 28.564 68.5026 28.564ZM120.598 25.492L120.634 22.972H120.538L118.858 27.28L117.178 22.972H117.082L117.118 25.492V29.5H115.93V21.124H117.574L118.858 24.448H118.942L120.238 21.124H121.786V29.5H120.598V25.492ZM127.337 28.444H127.277C127.213 28.604 127.129 28.76 127.025 28.912C126.929 29.056 126.809 29.184 126.665 29.296C126.521 29.4 126.353 29.484 126.161 29.548C125.969 29.612 125.745 29.644 125.489 29.644C124.865 29.644 124.361 29.44 123.977 29.032C123.593 28.624 123.401 28.044 123.401 27.292V23.308H124.709V27.1C124.709 28.084 125.137 28.576 125.993 28.576C126.161 28.576 126.325 28.556 126.485 28.516C126.645 28.468 126.789 28.4 126.917 28.312C127.045 28.224 127.145 28.116 127.217 27.988C127.297 27.852 127.337 27.692 127.337 27.508V23.308H128.645V29.5H127.337V28.444ZM133.26 29.644C132.588 29.644 132.008 29.536 131.52 29.32C131.04 29.104 130.652 28.816 130.356 28.456L131.16 27.736C131.432 28.032 131.736 28.26 132.072 28.42C132.416 28.572 132.82 28.648 133.284 28.648C133.708 28.648 134.048 28.576 134.304 28.432C134.568 28.288 134.7 28.064 134.7 27.76C134.7 27.632 134.676 27.524 134.628 27.436C134.58 27.348 134.512 27.276 134.424 27.22C134.336 27.164 134.232 27.12 134.112 27.088C134 27.056 133.88 27.032 133.752 27.016L132.768 26.86C132.528 26.828 132.284 26.776 132.036 26.704C131.788 26.632 131.564 26.532 131.364 26.404C131.172 26.268 131.012 26.096 130.884 25.888C130.764 25.68 130.704 25.416 130.704 25.096C130.704 24.464 130.944 23.984 131.424 23.656C131.912 23.328 132.552 23.164 133.344 23.164C133.92 23.164 134.416 23.252 134.832 23.428C135.256 23.596 135.608 23.832 135.888 24.136L135.156 24.904C134.996 24.72 134.768 24.552 134.472 24.4C134.176 24.24 133.784 24.16 133.296 24.16C132.424 24.16 131.988 24.436 131.988 24.988C131.988 25.252 132.08 25.436 132.264 25.54C132.456 25.636 132.68 25.7 132.936 25.732L133.92 25.888C134.168 25.928 134.412 25.98 134.652 26.044C134.9 26.108 135.12 26.208 135.312 26.344C135.512 26.472 135.672 26.64 135.792 26.848C135.92 27.056 135.984 27.32 135.984 27.64C135.984 28.264 135.74 28.756 135.252 29.116C134.772 29.468 134.108 29.644 133.26 29.644ZM137.9 20.62H139.208V25.984H139.268L140.24 24.988L141.98 23.308H143.528L141.02 25.744L143.804 29.5H142.232L140.072 26.488L139.208 27.292V29.5H137.9V20.62ZM154.03 29.5L151.81 23.308H153.166L154.018 25.924L154.822 28.408H154.894L155.698 25.924L156.55 23.308H157.858L155.638 29.5H154.03ZM162.03 29.62C161.646 29.62 161.374 29.54 161.214 29.38C161.062 29.22 160.986 29.024 160.986 28.792V28.48C160.986 28.248 161.062 28.052 161.214 27.892C161.374 27.732 161.646 27.652 162.03 27.652C162.414 27.652 162.682 27.732 162.834 27.892C162.994 28.052 163.074 28.248 163.074 28.48V28.792C163.074 29.024 162.994 29.22 162.834 29.38C162.682 29.54 162.414 29.62 162.03 29.62ZM177.092 22.252V29.5H175.748V22.252H173.12V21.124H179.72V22.252H177.092ZM180.928 28.444H182.572V24.364H180.928V23.308H183.88V24.952H183.952C184.008 24.736 184.088 24.528 184.192 24.328C184.296 24.128 184.428 23.956 184.588 23.812C184.748 23.66 184.944 23.54 185.176 23.452C185.408 23.356 185.68 23.308 185.992 23.308H186.736V24.556H185.512C185.032 24.556 184.64 24.7 184.336 24.988C184.032 25.268 183.88 25.648 183.88 26.128V28.444H186.124V29.5H180.928V28.444ZM192.095 28.444H192.035C191.971 28.604 191.887 28.76 191.783 28.912C191.687 29.056 191.567 29.184 191.423 29.296C191.279 29.4 191.111 29.484 190.919 29.548C190.727 29.612 190.503 29.644 190.247 29.644C189.623 29.644 189.119 29.44 188.735 29.032C188.351 28.624 188.159 28.044 188.159 27.292V23.308H189.467V27.1C189.467 28.084 189.895 28.576 190.751 28.576C190.919 28.576 191.083 28.556 191.243 28.516C191.403 28.468 191.547 28.4 191.675 28.312C191.803 28.224 191.903 28.116 191.975 27.988C192.055 27.852 192.095 27.692 192.095 27.508V23.308H193.403V29.5H192.095V28.444ZM194.934 29.5V23.308H196.05V24.112H196.11C196.206 23.848 196.342 23.624 196.518 23.44C196.702 23.256 196.962 23.164 197.298 23.164C197.626 23.164 197.878 23.256 198.054 23.44C198.238 23.616 198.354 23.86 198.402 24.172H198.45C198.562 23.892 198.718 23.656 198.918 23.464C199.118 23.264 199.406 23.164 199.782 23.164C200.262 23.164 200.594 23.332 200.778 23.668C200.97 24.004 201.066 24.496 201.066 25.144V29.5H199.95V25.312C199.95 24.88 199.898 24.584 199.794 24.424C199.69 24.256 199.522 24.172 199.29 24.172C199.082 24.172 198.906 24.244 198.762 24.388C198.626 24.524 198.558 24.732 198.558 25.012V29.5H197.442V25.312C197.442 24.88 197.39 24.584 197.286 24.424C197.19 24.256 197.026 24.172 196.794 24.172C196.578 24.172 196.398 24.244 196.254 24.388C196.118 24.524 196.05 24.732 196.05 25.012V29.5H194.934ZM202.55 23.308H203.858V24.364H203.93C204.114 23.988 204.358 23.696 204.662 23.488C204.966 23.272 205.346 23.164 205.802 23.164C206.53 23.164 207.11 23.436 207.542 23.98C207.974 24.524 208.19 25.332 208.19 26.404C208.19 27.476 207.974 28.284 207.542 28.828C207.11 29.372 206.53 29.644 205.802 29.644C205.346 29.644 204.966 29.54 204.662 29.332C204.358 29.116 204.114 28.82 203.93 28.444H203.858V31.9H202.55V23.308ZM205.262 28.576C205.758 28.576 206.138 28.424 206.402 28.12C206.674 27.816 206.81 27.412 206.81 26.908V25.9C206.81 25.396 206.674 24.992 206.402 24.688C206.138 24.384 205.758 24.232 205.262 24.232C205.07 24.232 204.89 24.256 204.722 24.304C204.554 24.352 204.406 24.424 204.278 24.52C204.15 24.616 204.046 24.736 203.966 24.88C203.894 25.016 203.858 25.18 203.858 25.372V27.436C203.858 27.628 203.894 27.796 203.966 27.94C204.046 28.076 204.15 28.192 204.278 28.288C204.406 28.384 204.554 28.456 204.722 28.504C204.89 28.552 205.07 28.576 205.262 28.576ZM221.152 28.348H221.068C220.996 28.516 220.908 28.68 220.804 28.84C220.708 28.992 220.584 29.128 220.432 29.248C220.288 29.368 220.112 29.464 219.904 29.536C219.696 29.608 219.456 29.644 219.184 29.644C218.312 29.644 217.656 29.272 217.216 28.528C216.776 27.784 216.556 26.732 216.556 25.372C216.556 23.948 216.808 22.86 217.312 22.108C217.816 21.356 218.588 20.98 219.628 20.98C220.036 20.98 220.392 21.036 220.696 21.148C221.008 21.26 221.272 21.412 221.488 21.604C221.704 21.788 221.884 22.008 222.028 22.264C222.172 22.512 222.288 22.776 222.376 23.056L221.164 23.464C221.1 23.28 221.028 23.108 220.948 22.948C220.868 22.78 220.768 22.632 220.648 22.504C220.536 22.376 220.396 22.276 220.228 22.204C220.068 22.132 219.872 22.096 219.64 22.096C219.056 22.096 218.632 22.324 218.368 22.78C218.112 23.228 217.984 23.836 217.984 24.604V25.936C217.984 26.32 218.012 26.672 218.068 26.992C218.124 27.312 218.216 27.588 218.344 27.82C218.48 28.044 218.652 28.22 218.86 28.348C219.076 28.476 219.336 28.54 219.64 28.54C220.128 28.54 220.5 28.396 220.756 28.108C221.02 27.812 221.152 27.436 221.152 26.98V26.224H219.532V25.216H222.376V29.5H221.152V28.348ZM226.788 29.644C226.332 29.644 225.92 29.568 225.552 29.416C225.192 29.264 224.884 29.048 224.628 28.768C224.38 28.488 224.188 28.148 224.052 27.748C223.916 27.348 223.848 26.9 223.848 26.404C223.848 25.908 223.916 25.46 224.052 25.06C224.188 24.66 224.38 24.32 224.628 24.04C224.884 23.76 225.192 23.544 225.552 23.392C225.92 23.24 226.332 23.164 226.788 23.164C227.244 23.164 227.652 23.24 228.012 23.392C228.38 23.544 228.688 23.76 228.936 24.04C229.192 24.32 229.388 24.66 229.523 25.06C229.66 25.46 229.728 25.908 229.728 26.404C229.728 26.9 229.66 27.348 229.523 27.748C229.388 28.148 229.192 28.488 228.936 28.768C228.688 29.048 228.38 29.264 228.012 29.416C227.652 29.568 227.244 29.644 226.788 29.644ZM226.788 28.612C227.268 28.612 227.648 28.468 227.928 28.18C228.216 27.884 228.36 27.448 228.36 26.872V25.936C228.36 25.36 228.216 24.928 227.928 24.64C227.648 24.344 227.268 24.196 226.788 24.196C226.308 24.196 225.924 24.344 225.636 24.64C225.356 24.928 225.216 25.36 225.216 25.936V26.872C225.216 27.448 225.356 27.884 225.636 28.18C225.924 28.468 226.308 28.612 226.788 28.612ZM233.995 29.644C233.323 29.644 232.743 29.536 232.255 29.32C231.775 29.104 231.387 28.816 231.091 28.456L231.895 27.736C232.167 28.032 232.471 28.26 232.807 28.42C233.151 28.572 233.555 28.648 234.019 28.648C234.443 28.648 234.783 28.576 235.039 28.432C235.303 28.288 235.435 28.064 235.435 27.76C235.435 27.632 235.411 27.524 235.363 27.436C235.315 27.348 235.247 27.276 235.159 27.22C235.071 27.164 234.967 27.12 234.847 27.088C234.735 27.056 234.615 27.032 234.487 27.016L233.503 26.86C233.263 26.828 233.019 26.776 232.771 26.704C232.523 26.632 232.299 26.532 232.099 26.404C231.907 26.268 231.747 26.096 231.619 25.888C231.499 25.68 231.439 25.416 231.439 25.096C231.439 24.464 231.679 23.984 232.159 23.656C232.647 23.328 233.287 23.164 234.079 23.164C234.655 23.164 235.151 23.252 235.567 23.428C235.991 23.596 236.343 23.832 236.623 24.136L235.891 24.904C235.731 24.72 235.503 24.552 235.207 24.4C234.911 24.24 234.519 24.16 234.031 24.16C233.159 24.16 232.723 24.436 232.723 24.988C232.723 25.252 232.815 25.436 232.999 25.54C233.191 25.636 233.415 25.7 233.671 25.732L234.655 25.888C234.903 25.928 235.147 25.98 235.387 26.044C235.635 26.108 235.855 26.208 236.047 26.344C236.247 26.472 236.407 26.64 236.527 26.848C236.655 27.056 236.719 27.32 236.719 27.64C236.719 28.264 236.475 28.756 235.987 29.116C235.507 29.468 234.843 29.644 233.995 29.644ZM241.19 29.644C240.518 29.644 239.938 29.536 239.45 29.32C238.97 29.104 238.582 28.816 238.286 28.456L239.09 27.736C239.362 28.032 239.666 28.26 240.002 28.42C240.346 28.572 240.75 28.648 241.214 28.648C241.638 28.648 241.978 28.576 242.234 28.432C242.498 28.288 242.63 28.064 242.63 27.76C242.63 27.632 242.606 27.524 242.558 27.436C242.51 27.348 242.442 27.276 242.354 27.22C242.266 27.164 242.162 27.12 242.042 27.088C241.93 27.056 241.81 27.032 241.682 27.016L240.698 26.86C240.458 26.828 240.214 26.776 239.966 26.704C239.718 26.632 239.494 26.532 239.294 26.404C239.102 26.268 238.942 26.096 238.814 25.888C238.694 25.68 238.634 25.416 238.634 25.096C238.634 24.464 238.874 23.984 239.354 23.656C239.842 23.328 240.482 23.164 241.274 23.164C241.85 23.164 242.346 23.252 242.762 23.428C243.186 23.596 243.538 23.832 243.818 24.136L243.086 24.904C242.926 24.72 242.698 24.552 242.402 24.4C242.106 24.24 241.714 24.16 241.226 24.16C240.354 24.16 239.918 24.436 239.918 24.988C239.918 25.252 240.01 25.436 240.194 25.54C240.386 25.636 240.61 25.7 240.866 25.732L241.85 25.888C242.098 25.928 242.342 25.98 242.582 26.044C242.83 26.108 243.05 26.208 243.242 26.344C243.442 26.472 243.602 26.64 243.722 26.848C243.85 27.056 243.914 27.32 243.914 27.64C243.914 28.264 243.67 28.756 243.182 29.116C242.702 29.468 242.038 29.644 241.19 29.644ZM248.757 22.18C248.421 22.18 248.185 22.112 248.049 21.976C247.921 21.84 247.857 21.672 247.857 21.472V21.22C247.857 21.02 247.921 20.852 248.049 20.716C248.185 20.58 248.417 20.512 248.745 20.512C249.081 20.512 249.313 20.58 249.441 20.716C249.577 20.852 249.645 21.02 249.645 21.22V21.472C249.645 21.672 249.577 21.84 249.441 21.976C249.313 22.112 249.085 22.18 248.757 22.18ZM245.985 28.444H248.097V24.364H245.985V23.308H249.405V28.444H251.385V29.5H245.985V28.444ZM252.917 23.308H254.225V24.364H254.297C254.481 23.988 254.725 23.696 255.029 23.488C255.333 23.272 255.713 23.164 256.169 23.164C256.897 23.164 257.477 23.436 257.909 23.98C258.341 24.524 258.557 25.332 258.557 26.404C258.557 27.476 258.341 28.284 257.909 28.828C257.477 29.372 256.897 29.644 256.169 29.644C255.713 29.644 255.333 29.54 255.029 29.332C254.725 29.116 254.481 28.82 254.297 28.444H254.225V31.9H252.917V23.308ZM255.629 28.576C256.125 28.576 256.505 28.424 256.769 28.12C257.041 27.816 257.177 27.412 257.177 26.908V25.9C257.177 25.396 257.041 24.992 256.769 24.688C256.505 24.384 256.125 24.232 255.629 24.232C255.437 24.232 255.257 24.256 255.089 24.304C254.921 24.352 254.773 24.424 254.645 24.52C254.517 24.616 254.413 24.736 254.333 24.88C254.261 25.016 254.225 25.18 254.225 25.372V27.436C254.225 27.628 254.261 27.796 254.333 27.94C254.413 28.076 254.517 28.192 254.645 28.288C254.773 28.384 254.921 28.456 255.089 28.504C255.257 28.552 255.437 28.576 255.629 28.576Z" fill="black"/>
</svg>
