<svg width="700" height="592" viewBox="0 0 700 592" fill="none" xmlns="http://www.w3.org/2000/svg">
<path d="M6.42908 590.93H693.649C696.879 590.93 698.859 588.92 698.859 585.74L698.979 314.71L699.039 72.4201L684.349 43.9701C681.829 39.0901 675.739 37.7901 670.119 37.0501H306.009C299.569 37.0501 294.089 33.3501 292.029 27.8401L286.319 12.5501C283.579 5.21006 277.849 0.480063 269.609 0.500063L184.639 0.680063L39.1791 0.800063C33.9491 0.800063 29.369 4.01006 27.649 8.59006L22.7491 21.7101C19.8991 29.3201 14.7891 36.0301 7.20905 39.0201C3.32904 40.5501 2.28906 42.8401 2.26904 47.2901L0.909058 428.47L0.499084 584.19C0.499084 587.56 1.45905 590.92 6.40906 590.92L6.42908 590.93Z" fill="white" stroke="#231F20" stroke-miterlimit="10"/>
<path d="M48.844 29.5V27.868H44.86V26.716L48.364 21.124H50.128V26.812H51.304V27.868H50.128V29.5H48.844ZM46 26.812H48.844V22.36H48.772L46 26.812ZM58.2353 29.5H52.4513V28.216L55.1873 25.828C55.6193 25.444 55.9513 25.08 56.1833 24.736C56.4233 24.392 56.5433 24.028 56.5433 23.644V23.512C56.5433 23.072 56.4233 22.736 56.1833 22.504C55.9433 22.264 55.5953 22.144 55.1393 22.144C54.6753 22.144 54.3153 22.268 54.0593 22.516C53.8113 22.764 53.6313 23.08 53.5193 23.464L52.3433 23.02C52.4233 22.756 52.5393 22.504 52.6913 22.264C52.8433 22.016 53.0353 21.796 53.2673 21.604C53.5073 21.412 53.7873 21.26 54.1073 21.148C54.4353 21.036 54.8113 20.98 55.2353 20.98C55.6673 20.98 56.0513 21.044 56.3873 21.172C56.7313 21.292 57.0193 21.46 57.2513 21.676C57.4833 21.892 57.6593 22.152 57.7793 22.456C57.8993 22.752 57.9593 23.08 57.9593 23.44C57.9593 23.776 57.9073 24.088 57.8033 24.376C57.7073 24.656 57.5673 24.928 57.3833 25.192C57.2073 25.448 56.9953 25.696 56.7473 25.936C56.4993 26.176 56.2273 26.416 55.9313 26.656L53.9033 28.36H58.2353V29.5ZM65.4306 29.5H59.6466V28.216L62.3826 25.828C62.8146 25.444 63.1466 25.08 63.3786 24.736C63.6186 24.392 63.7386 24.028 63.7386 23.644V23.512C63.7386 23.072 63.6186 22.736 63.3786 22.504C63.1386 22.264 62.7906 22.144 62.3346 22.144C61.8706 22.144 61.5106 22.268 61.2546 22.516C61.0066 22.764 60.8266 23.08 60.7146 23.464L59.5386 23.02C59.6186 22.756 59.7346 22.504 59.8866 22.264C60.0386 22.016 60.2306 21.796 60.4626 21.604C60.7026 21.412 60.9826 21.26 61.3026 21.148C61.6306 21.036 62.0066 20.98 62.4306 20.98C62.8626 20.98 63.2466 21.044 63.5826 21.172C63.9266 21.292 64.2146 21.46 64.4466 21.676C64.6786 21.892 64.8546 22.152 64.9746 22.456C65.0946 22.752 65.1546 23.08 65.1546 23.44C65.1546 23.776 65.1026 24.088 64.9986 24.376C64.9026 24.656 64.7626 24.928 64.5786 25.192C64.4026 25.448 64.1906 25.696 63.9426 25.936C63.6946 26.176 63.4226 26.416 63.1266 26.656L61.0986 28.36H65.4306V29.5ZM85.8166 25.492L85.8526 22.972H85.7566L84.0766 27.28L82.3966 22.972H82.3006L82.3366 25.492V29.5H81.1486V21.124H82.7926L84.0766 24.448H84.1606L85.4566 21.124H87.0046V29.5H85.8166V25.492ZM91.2719 29.644C90.8159 29.644 90.4039 29.568 90.0359 29.416C89.6759 29.264 89.3679 29.048 89.1119 28.768C88.8639 28.488 88.6719 28.148 88.5359 27.748C88.3999 27.348 88.3319 26.9 88.3319 26.404C88.3319 25.908 88.3999 25.46 88.5359 25.06C88.6719 24.66 88.8639 24.32 89.1119 24.04C89.3679 23.76 89.6759 23.544 90.0359 23.392C90.4039 23.24 90.8159 23.164 91.2719 23.164C91.7279 23.164 92.1359 23.24 92.4959 23.392C92.8639 23.544 93.1719 23.76 93.4199 24.04C93.6759 24.32 93.8719 24.66 94.0079 25.06C94.1439 25.46 94.2119 25.908 94.2119 26.404C94.2119 26.9 94.1439 27.348 94.0079 27.748C93.8719 28.148 93.6759 28.488 93.4199 28.768C93.1719 29.048 92.8639 29.264 92.4959 29.416C92.1359 29.568 91.7279 29.644 91.2719 29.644ZM91.2719 28.612C91.7519 28.612 92.1319 28.468 92.4119 28.18C92.6999 27.884 92.8439 27.448 92.8439 26.872V25.936C92.8439 25.36 92.6999 24.928 92.4119 24.64C92.1319 24.344 91.7519 24.196 91.2719 24.196C90.7919 24.196 90.4079 24.344 90.1199 24.64C89.8399 24.928 89.6999 25.36 89.6999 25.936V26.872C89.6999 27.448 89.8399 27.884 90.1199 28.18C90.4079 28.468 90.7919 28.612 91.2719 28.612ZM99.8112 28.444H99.7392C99.5552 28.82 99.3112 29.116 99.0072 29.332C98.7032 29.54 98.3232 29.644 97.8672 29.644C97.1392 29.644 96.5592 29.372 96.1272 28.828C95.6952 28.284 95.4792 27.476 95.4792 26.404C95.4792 25.332 95.6952 24.524 96.1272 23.98C96.5592 23.436 97.1392 23.164 97.8672 23.164C98.3232 23.164 98.7032 23.272 99.0072 23.488C99.3112 23.696 99.5552 23.988 99.7392 24.364H99.8112V20.62H101.119V29.5H99.8112V28.444ZM98.4072 28.576C98.5992 28.576 98.7792 28.552 98.9472 28.504C99.1152 28.456 99.2632 28.384 99.3912 28.288C99.5192 28.192 99.6192 28.076 99.6912 27.94C99.7712 27.796 99.8112 27.628 99.8112 27.436V25.372C99.8112 25.18 99.7712 25.016 99.6912 24.88C99.6192 24.736 99.5192 24.616 99.3912 24.52C99.2632 24.424 99.1152 24.352 98.9472 24.304C98.7792 24.256 98.5992 24.232 98.4072 24.232C97.9112 24.232 97.5272 24.384 97.2552 24.688C96.9912 24.992 96.8592 25.396 96.8592 25.9V26.908C96.8592 27.412 96.9912 27.816 97.2552 28.12C97.5272 28.424 97.9112 28.576 98.4072 28.576ZM106.047 22.18C105.711 22.18 105.475 22.112 105.339 21.976C105.211 21.84 105.146 21.672 105.146 21.472V21.22C105.146 21.02 105.211 20.852 105.339 20.716C105.475 20.58 105.707 20.512 106.035 20.512C106.371 20.512 106.603 20.58 106.731 20.716C106.867 20.852 106.935 21.02 106.935 21.22V21.472C106.935 21.672 106.867 21.84 106.731 21.976C106.603 22.112 106.375 22.18 106.047 22.18ZM103.275 28.444H105.387V24.364H103.275V23.308H106.695V28.444H108.674V29.5H103.275V28.444ZM112.858 29.62C112.474 29.62 112.202 29.54 112.042 29.38C111.89 29.22 111.814 29.024 111.814 28.792V28.48C111.814 28.248 111.89 28.052 112.042 27.892C112.202 27.732 112.474 27.652 112.858 27.652C113.242 27.652 113.51 27.732 113.662 27.892C113.822 28.052 113.902 28.248 113.902 28.48V28.792C113.902 29.024 113.822 29.22 113.662 29.38C113.51 29.54 113.242 29.62 112.858 29.62ZM112.858 25.156C112.474 25.156 112.202 25.076 112.042 24.916C111.89 24.756 111.814 24.56 111.814 24.328V24.016C111.814 23.784 111.89 23.588 112.042 23.428C112.202 23.268 112.474 23.188 112.858 23.188C113.242 23.188 113.51 23.268 113.662 23.428C113.822 23.588 113.902 23.784 113.902 24.016V24.328C113.902 24.56 113.822 24.756 113.662 24.916C113.51 25.076 113.242 25.156 112.858 25.156ZM127.92 22.252V29.5H126.576V22.252H123.948V21.124H130.548V22.252H127.92ZM134.576 29.644C134.104 29.644 133.68 29.568 133.304 29.416C132.928 29.264 132.612 29.048 132.356 28.768C132.1 28.488 131.904 28.152 131.768 27.76C131.632 27.36 131.564 26.912 131.564 26.416C131.564 25.92 131.632 25.472 131.768 25.072C131.912 24.672 132.108 24.332 132.356 24.052C132.612 23.764 132.92 23.544 133.28 23.392C133.64 23.24 134.04 23.164 134.48 23.164C134.912 23.164 135.304 23.24 135.656 23.392C136.008 23.536 136.308 23.744 136.556 24.016C136.804 24.288 136.992 24.612 137.12 24.988C137.256 25.364 137.324 25.78 137.324 26.236V26.728H132.884V26.932C132.884 27.42 133.036 27.82 133.34 28.132C133.644 28.436 134.064 28.588 134.6 28.588C135 28.588 135.34 28.504 135.62 28.336C135.908 28.16 136.14 27.928 136.316 27.64L137.132 28.36C136.924 28.72 136.604 29.024 136.172 29.272C135.748 29.52 135.216 29.644 134.576 29.644ZM134.48 24.16C134.248 24.16 134.032 24.2 133.832 24.28C133.64 24.36 133.472 24.476 133.328 24.628C133.192 24.772 133.084 24.944 133.004 25.144C132.924 25.344 132.884 25.564 132.884 25.804V25.888H135.992V25.768C135.992 25.28 135.852 24.892 135.572 24.604C135.3 24.308 134.936 24.16 134.48 24.16ZM143.943 29.5C143.567 29.5 143.283 29.404 143.091 29.212C142.907 29.02 142.795 28.768 142.755 28.456H142.695C142.575 28.832 142.355 29.124 142.035 29.332C141.723 29.54 141.323 29.644 140.835 29.644C140.203 29.644 139.699 29.48 139.323 29.152C138.947 28.816 138.759 28.356 138.759 27.772C138.759 27.172 138.979 26.716 139.419 26.404C139.867 26.084 140.551 25.924 141.471 25.924H142.659V25.444C142.659 24.604 142.215 24.184 141.327 24.184C140.927 24.184 140.603 24.264 140.355 24.424C140.107 24.576 139.899 24.78 139.731 25.036L138.951 24.4C139.127 24.064 139.423 23.776 139.839 23.536C140.255 23.288 140.791 23.164 141.447 23.164C142.231 23.164 142.847 23.352 143.295 23.728C143.743 24.104 143.967 24.648 143.967 25.36V28.468H144.747V29.5H143.943ZM141.207 28.684C141.631 28.684 141.979 28.588 142.251 28.396C142.523 28.204 142.659 27.956 142.659 27.652V26.752H141.495C140.551 26.752 140.079 27.036 140.079 27.604V27.844C140.079 28.124 140.179 28.336 140.379 28.48C140.579 28.616 140.855 28.684 141.207 28.684ZM155.958 29.644C155.23 29.644 154.618 29.516 154.122 29.26C153.626 29.004 153.218 28.664 152.898 28.24L153.762 27.412C154.082 27.796 154.422 28.08 154.782 28.264C155.142 28.44 155.55 28.528 156.006 28.528C156.534 28.528 156.938 28.408 157.218 28.168C157.506 27.928 157.65 27.584 157.65 27.136C157.65 26.776 157.546 26.5 157.338 26.308C157.13 26.108 156.774 25.964 156.27 25.876L155.358 25.732C154.958 25.668 154.622 25.564 154.35 25.42C154.078 25.268 153.858 25.092 153.69 24.892C153.522 24.684 153.398 24.456 153.318 24.208C153.246 23.952 153.21 23.684 153.21 23.404C153.21 22.612 153.466 22.012 153.978 21.604C154.49 21.188 155.194 20.98 156.09 20.98C156.754 20.98 157.318 21.088 157.782 21.304C158.254 21.512 158.634 21.808 158.922 22.192L158.082 23.032C157.85 22.752 157.574 22.528 157.254 22.36C156.942 22.184 156.554 22.096 156.09 22.096C155.594 22.096 155.214 22.204 154.95 22.42C154.694 22.628 154.566 22.936 154.566 23.344C154.566 23.688 154.666 23.96 154.866 24.16C155.074 24.352 155.438 24.492 155.958 24.58L156.846 24.736C157.598 24.872 158.146 25.148 158.49 25.564C158.834 25.972 159.006 26.472 159.006 27.064C159.006 27.448 158.938 27.8 158.802 28.12C158.674 28.44 158.478 28.712 158.214 28.936C157.958 29.16 157.638 29.336 157.254 29.464C156.878 29.584 156.446 29.644 155.958 29.644ZM163.597 29.5C163.053 29.5 162.653 29.356 162.397 29.068C162.141 28.772 162.013 28.392 162.013 27.928V24.364H160.105V23.308H161.461C161.693 23.308 161.857 23.264 161.953 23.176C162.049 23.08 162.097 22.912 162.097 22.672V21.124H163.321V23.308H165.961V24.364H163.321V28.444H165.961V29.5H163.597ZM172.724 29.5C172.348 29.5 172.064 29.404 171.872 29.212C171.688 29.02 171.576 28.768 171.536 28.456H171.476C171.356 28.832 171.136 29.124 170.816 29.332C170.504 29.54 170.104 29.644 169.616 29.644C168.984 29.644 168.48 29.48 168.104 29.152C167.728 28.816 167.54 28.356 167.54 27.772C167.54 27.172 167.76 26.716 168.2 26.404C168.648 26.084 169.332 25.924 170.252 25.924H171.44V25.444C171.44 24.604 170.996 24.184 170.108 24.184C169.708 24.184 169.384 24.264 169.136 24.424C168.888 24.576 168.68 24.78 168.512 25.036L167.732 24.4C167.908 24.064 168.204 23.776 168.62 23.536C169.036 23.288 169.572 23.164 170.228 23.164C171.012 23.164 171.628 23.352 172.076 23.728C172.524 24.104 172.748 24.648 172.748 25.36V28.468H173.528V29.5H172.724ZM169.988 28.684C170.412 28.684 170.76 28.588 171.032 28.396C171.304 28.204 171.44 27.956 171.44 27.652V26.752H170.276C169.332 26.752 168.86 27.036 168.86 27.604V27.844C168.86 28.124 168.96 28.336 169.16 28.48C169.36 28.616 169.636 28.684 169.988 28.684ZM174.916 28.444H176.968V21.676H174.916V20.62H178.276V28.444H180.328V29.5H174.916V28.444ZM182.111 28.444H184.163V21.676H182.111V20.62H185.471V28.444H187.523V29.5H182.111V28.444ZM192.018 29.644C191.346 29.644 190.766 29.536 190.278 29.32C189.798 29.104 189.41 28.816 189.114 28.456L189.918 27.736C190.19 28.032 190.494 28.26 190.83 28.42C191.174 28.572 191.578 28.648 192.042 28.648C192.466 28.648 192.806 28.576 193.062 28.432C193.326 28.288 193.458 28.064 193.458 27.76C193.458 27.632 193.434 27.524 193.386 27.436C193.338 27.348 193.27 27.276 193.182 27.22C193.094 27.164 192.99 27.12 192.87 27.088C192.758 27.056 192.638 27.032 192.51 27.016L191.526 26.86C191.286 26.828 191.042 26.776 190.794 26.704C190.546 26.632 190.322 26.532 190.122 26.404C189.93 26.268 189.77 26.096 189.642 25.888C189.522 25.68 189.462 25.416 189.462 25.096C189.462 24.464 189.702 23.984 190.182 23.656C190.67 23.328 191.31 23.164 192.102 23.164C192.678 23.164 193.174 23.252 193.59 23.428C194.014 23.596 194.366 23.832 194.646 24.136L193.914 24.904C193.754 24.72 193.526 24.552 193.23 24.4C192.934 24.24 192.542 24.16 192.054 24.16C191.182 24.16 190.746 24.436 190.746 24.988C190.746 25.252 190.838 25.436 191.022 25.54C191.214 25.636 191.438 25.7 191.694 25.732L192.678 25.888C192.926 25.928 193.17 25.98 193.41 26.044C193.658 26.108 193.878 26.208 194.07 26.344C194.27 26.472 194.43 26.64 194.55 26.848C194.678 27.056 194.742 27.32 194.742 27.64C194.742 28.264 194.498 28.756 194.01 29.116C193.53 29.468 192.866 29.644 192.018 29.644ZM206.769 29.5C206.225 29.5 205.825 29.356 205.569 29.068C205.313 28.772 205.185 28.392 205.185 27.928V24.364H203.277V23.308H204.633C204.865 23.308 205.029 23.264 205.125 23.176C205.221 23.08 205.269 22.912 205.269 22.672V21.124H206.493V23.308H209.133V24.364H206.493V28.444H209.133V29.5H206.769ZM213.592 29.644C213.136 29.644 212.724 29.568 212.356 29.416C211.996 29.264 211.688 29.048 211.432 28.768C211.184 28.488 210.992 28.148 210.856 27.748C210.72 27.348 210.652 26.9 210.652 26.404C210.652 25.908 210.72 25.46 210.856 25.06C210.992 24.66 211.184 24.32 211.432 24.04C211.688 23.76 211.996 23.544 212.356 23.392C212.724 23.24 213.136 23.164 213.592 23.164C214.048 23.164 214.456 23.24 214.816 23.392C215.184 23.544 215.492 23.76 215.74 24.04C215.996 24.32 216.192 24.66 216.328 25.06C216.464 25.46 216.532 25.908 216.532 26.404C216.532 26.9 216.464 27.348 216.328 27.748C216.192 28.148 215.996 28.488 215.74 28.768C215.492 29.048 215.184 29.264 214.816 29.416C214.456 29.568 214.048 29.644 213.592 29.644ZM213.592 28.612C214.072 28.612 214.452 28.468 214.732 28.18C215.02 27.884 215.164 27.448 215.164 26.872V25.936C215.164 25.36 215.02 24.928 214.732 24.64C214.452 24.344 214.072 24.196 213.592 24.196C213.112 24.196 212.728 24.344 212.44 24.64C212.16 24.928 212.02 25.36 212.02 25.936V26.872C212.02 27.448 212.16 27.884 212.44 28.18C212.728 28.468 213.112 28.612 213.592 28.612ZM228.655 22.252V29.5H227.311V22.252H224.683V21.124H231.283V22.252H228.655ZM235.31 29.644C234.838 29.644 234.414 29.568 234.038 29.416C233.662 29.264 233.346 29.048 233.09 28.768C232.834 28.488 232.638 28.152 232.502 27.76C232.366 27.36 232.298 26.912 232.298 26.416C232.298 25.92 232.366 25.472 232.502 25.072C232.646 24.672 232.842 24.332 233.09 24.052C233.346 23.764 233.654 23.544 234.014 23.392C234.374 23.24 234.774 23.164 235.214 23.164C235.646 23.164 236.038 23.24 236.39 23.392C236.742 23.536 237.042 23.744 237.29 24.016C237.538 24.288 237.726 24.612 237.854 24.988C237.99 25.364 238.058 25.78 238.058 26.236V26.728H233.618V26.932C233.618 27.42 233.77 27.82 234.074 28.132C234.378 28.436 234.798 28.588 235.334 28.588C235.734 28.588 236.074 28.504 236.354 28.336C236.642 28.16 236.874 27.928 237.05 27.64L237.866 28.36C237.658 28.72 237.338 29.024 236.906 29.272C236.482 29.52 235.95 29.644 235.31 29.644ZM235.214 24.16C234.982 24.16 234.766 24.2 234.566 24.28C234.374 24.36 234.206 24.476 234.062 24.628C233.926 24.772 233.818 24.944 233.738 25.144C233.658 25.344 233.618 25.564 233.618 25.804V25.888H236.726V25.768C236.726 25.28 236.586 24.892 236.306 24.604C236.034 24.308 235.67 24.16 235.214 24.16ZM239.685 28.444H241.329V24.364H239.685V23.308H242.637V24.952H242.709C242.765 24.736 242.845 24.528 242.949 24.328C243.053 24.128 243.185 23.956 243.345 23.812C243.505 23.66 243.701 23.54 243.933 23.452C244.165 23.356 244.437 23.308 244.749 23.308H245.493V24.556H244.269C243.789 24.556 243.397 24.7 243.093 24.988C242.789 25.268 242.637 25.648 242.637 26.128V28.444H244.881V29.5H239.685V28.444ZM246.881 28.444H248.525V24.364H246.881V23.308H249.833V24.952H249.905C249.961 24.736 250.041 24.528 250.145 24.328C250.249 24.128 250.381 23.956 250.541 23.812C250.701 23.66 250.897 23.54 251.129 23.452C251.361 23.356 251.633 23.308 251.945 23.308H252.689V24.556H251.465C250.985 24.556 250.593 24.7 250.289 24.988C249.985 25.268 249.833 25.648 249.833 26.128V28.444H252.077V29.5H246.881V28.444ZM256.764 29.644C256.308 29.644 255.896 29.568 255.528 29.416C255.168 29.264 254.86 29.048 254.604 28.768C254.356 28.488 254.164 28.148 254.028 27.748C253.892 27.348 253.824 26.9 253.824 26.404C253.824 25.908 253.892 25.46 254.028 25.06C254.164 24.66 254.356 24.32 254.604 24.04C254.86 23.76 255.168 23.544 255.528 23.392C255.896 23.24 256.308 23.164 256.764 23.164C257.22 23.164 257.628 23.24 257.988 23.392C258.356 23.544 258.664 23.76 258.912 24.04C259.168 24.32 259.364 24.66 259.5 25.06C259.636 25.46 259.704 25.908 259.704 26.404C259.704 26.9 259.636 27.348 259.5 27.748C259.364 28.148 259.168 28.488 258.912 28.768C258.664 29.048 258.356 29.264 257.988 29.416C257.628 29.568 257.22 29.644 256.764 29.644ZM256.764 28.612C257.244 28.612 257.624 28.468 257.904 28.18C258.192 27.884 258.336 27.448 258.336 26.872V25.936C258.336 25.36 258.192 24.928 257.904 24.64C257.624 24.344 257.244 24.196 256.764 24.196C256.284 24.196 255.9 24.344 255.612 24.64C255.332 24.928 255.192 25.36 255.192 25.936V26.872C255.192 27.448 255.332 27.884 255.612 28.18C255.9 28.468 256.284 28.612 256.764 28.612ZM261.271 28.444H262.915V24.364H261.271V23.308H264.223V24.952H264.295C264.351 24.736 264.431 24.528 264.535 24.328C264.639 24.128 264.771 23.956 264.931 23.812C265.091 23.66 265.287 23.54 265.519 23.452C265.751 23.356 266.023 23.308 266.335 23.308H267.079V24.556H265.855C265.375 24.556 264.983 24.7 264.679 24.988C264.375 25.268 264.223 25.648 264.223 26.128V28.444H266.467V29.5H261.271V28.444Z" fill="black"/>
</svg>
