<svg width="700" height="592" viewBox="0 0 700 592" fill="none" xmlns="http://www.w3.org/2000/svg">
<path d="M6.42908 590.93H693.649C696.879 590.93 698.859 588.92 698.859 585.74L698.979 314.71L699.039 72.4201L684.349 43.9701C681.829 39.0901 675.739 37.7901 670.119 37.0501H306.009C299.569 37.0501 294.089 33.3501 292.029 27.8401L286.319 12.5501C283.579 5.21006 277.849 0.480063 269.609 0.500063L184.639 0.680063L39.1791 0.800063C33.9491 0.800063 29.369 4.01006 27.649 8.59006L22.7491 21.7101C19.8991 29.3201 14.7891 36.0301 7.20905 39.0201C3.32904 40.5501 2.28906 42.8401 2.26904 47.2901L0.909058 428.47L0.499084 584.19C0.499084 587.56 1.45905 590.92 6.40906 590.92L6.42908 590.93Z" fill="white" stroke="#231F20" stroke-miterlimit="10"/>
<path d="M46.1 29.644C45.572 29.644 45.112 29.548 44.72 29.356C44.336 29.156 44.016 28.872 43.76 28.504C43.512 28.136 43.328 27.684 43.208 27.148C43.088 26.612 43.028 26 43.028 25.312C43.028 24.632 43.088 24.024 43.208 23.488C43.328 22.944 43.512 22.488 43.76 22.12C44.016 21.752 44.336 21.472 44.72 21.28C45.112 21.08 45.572 20.98 46.1 20.98C46.628 20.98 47.084 21.08 47.468 21.28C47.86 21.472 48.18 21.752 48.428 22.12C48.684 22.488 48.872 22.944 48.992 23.488C49.112 24.024 49.172 24.632 49.172 25.312C49.172 26 49.112 26.612 48.992 27.148C48.872 27.684 48.684 28.136 48.428 28.504C48.18 28.872 47.86 29.156 47.468 29.356C47.084 29.548 46.628 29.644 46.1 29.644ZM46.1 28.54C46.708 28.54 47.14 28.316 47.396 27.868C47.66 27.412 47.792 26.8 47.792 26.032V24.592C47.792 23.824 47.66 23.216 47.396 22.768C47.14 22.312 46.708 22.084 46.1 22.084C45.796 22.084 45.536 22.144 45.32 22.264C45.104 22.376 44.928 22.544 44.792 22.768C44.656 22.984 44.556 23.248 44.492 23.56C44.436 23.864 44.408 24.208 44.408 24.592V26.032C44.408 26.416 44.436 26.764 44.492 27.076C44.556 27.38 44.656 27.644 44.792 27.868C44.928 28.084 45.104 28.252 45.32 28.372C45.536 28.484 45.796 28.54 46.1 28.54ZM46.1 26.02C45.82 26.02 45.624 25.964 45.512 25.852C45.408 25.74 45.356 25.604 45.356 25.444V25.18C45.356 25.02 45.408 24.884 45.512 24.772C45.624 24.66 45.82 24.604 46.1 24.604C46.38 24.604 46.572 24.66 46.676 24.772C46.788 24.884 46.844 25.02 46.844 25.18V25.444C46.844 25.604 46.788 25.74 46.676 25.852C46.572 25.964 46.38 26.02 46.1 26.02ZM53.2953 29.644C52.7673 29.644 52.3073 29.548 51.9153 29.356C51.5313 29.156 51.2113 28.872 50.9553 28.504C50.7073 28.136 50.5233 27.684 50.4033 27.148C50.2833 26.612 50.2233 26 50.2233 25.312C50.2233 24.632 50.2833 24.024 50.4033 23.488C50.5233 22.944 50.7073 22.488 50.9553 22.12C51.2113 21.752 51.5313 21.472 51.9153 21.28C52.3073 21.08 52.7673 20.98 53.2953 20.98C53.8233 20.98 54.2793 21.08 54.6633 21.28C55.0553 21.472 55.3753 21.752 55.6233 22.12C55.8793 22.488 56.0673 22.944 56.1873 23.488C56.3073 24.024 56.3673 24.632 56.3673 25.312C56.3673 26 56.3073 26.612 56.1873 27.148C56.0673 27.684 55.8793 28.136 55.6233 28.504C55.3753 28.872 55.0553 29.156 54.6633 29.356C54.2793 29.548 53.8233 29.644 53.2953 29.644ZM53.2953 28.54C53.9033 28.54 54.3353 28.316 54.5913 27.868C54.8553 27.412 54.9873 26.8 54.9873 26.032V24.592C54.9873 23.824 54.8553 23.216 54.5913 22.768C54.3353 22.312 53.9033 22.084 53.2953 22.084C52.9913 22.084 52.7313 22.144 52.5153 22.264C52.2993 22.376 52.1233 22.544 51.9873 22.768C51.8513 22.984 51.7513 23.248 51.6873 23.56C51.6313 23.864 51.6033 24.208 51.6033 24.592V26.032C51.6033 26.416 51.6313 26.764 51.6873 27.076C51.7513 27.38 51.8513 27.644 51.9873 27.868C52.1233 28.084 52.2993 28.252 52.5153 28.372C52.7313 28.484 52.9913 28.54 53.2953 28.54ZM53.2953 26.02C53.0153 26.02 52.8193 25.964 52.7073 25.852C52.6033 25.74 52.5513 25.604 52.5513 25.444V25.18C52.5513 25.02 52.6033 24.884 52.7073 24.772C52.8193 24.66 53.0153 24.604 53.2953 24.604C53.5753 24.604 53.7673 24.66 53.8713 24.772C53.9833 24.884 54.0393 25.02 54.0393 25.18V25.444C54.0393 25.604 53.9833 25.74 53.8713 25.852C53.7673 25.964 53.5753 26.02 53.2953 26.02ZM61.2346 29.5V27.868H57.2506V26.716L60.7546 21.124H62.5186V26.812H63.6946V27.868H62.5186V29.5H61.2346ZM58.3906 26.812H61.2346V22.36H61.1626L58.3906 26.812ZM84.3926 21.124V27.256C84.3926 27.616 84.3286 27.944 84.2006 28.24C84.0806 28.536 83.9046 28.788 83.6726 28.996C83.4486 29.204 83.1766 29.364 82.8566 29.476C82.5366 29.588 82.1806 29.644 81.7886 29.644C81.0526 29.644 80.4646 29.46 80.0246 29.092C79.5926 28.724 79.3126 28.216 79.1846 27.568L80.4566 27.304C80.5286 27.648 80.6646 27.936 80.8646 28.168C81.0646 28.4 81.3766 28.516 81.8006 28.516C82.1926 28.516 82.4966 28.4 82.7126 28.168C82.9366 27.928 83.0486 27.564 83.0486 27.076V22.252H80.1326V21.124H84.3926ZM89.6559 22.18C89.3199 22.18 89.0839 22.112 88.9479 21.976C88.8199 21.84 88.7559 21.672 88.7559 21.472V21.22C88.7559 21.02 88.8199 20.852 88.9479 20.716C89.0839 20.58 89.3159 20.512 89.6439 20.512C89.9799 20.512 90.2119 20.58 90.3399 20.716C90.4759 20.852 90.5439 21.02 90.5439 21.22V21.472C90.5439 21.672 90.4759 21.84 90.3399 21.976C90.2119 22.112 89.9839 22.18 89.6559 22.18ZM86.8839 28.444H88.9959V24.364H86.8839V23.308H90.3039V28.444H92.2839V29.5H86.8839V28.444ZM93.8752 29.5V23.308H95.1832V24.364H95.2432C95.3072 24.204 95.3872 24.052 95.4832 23.908C95.5872 23.756 95.7112 23.628 95.8552 23.524C95.9992 23.412 96.1672 23.324 96.3592 23.26C96.5512 23.196 96.7752 23.164 97.0312 23.164C97.6552 23.164 98.1592 23.368 98.5432 23.776C98.9272 24.184 99.1192 24.764 99.1192 25.516V29.5H97.8112V25.708C97.8112 24.724 97.3832 24.232 96.5272 24.232C96.3592 24.232 96.1952 24.256 96.0352 24.304C95.8752 24.344 95.7312 24.408 95.6032 24.496C95.4752 24.584 95.3712 24.696 95.2912 24.832C95.2192 24.968 95.1832 25.124 95.1832 25.3V29.5H93.8752ZM101.011 23.308H102.319V24.364H102.391C102.575 23.988 102.819 23.696 103.123 23.488C103.427 23.272 103.807 23.164 104.263 23.164C104.991 23.164 105.571 23.436 106.003 23.98C106.435 24.524 106.651 25.332 106.651 26.404C106.651 27.476 106.435 28.284 106.003 28.828C105.571 29.372 104.991 29.644 104.263 29.644C103.807 29.644 103.427 29.54 103.123 29.332C102.819 29.116 102.575 28.82 102.391 28.444H102.319V31.9H101.011V23.308ZM103.723 28.576C104.219 28.576 104.599 28.424 104.863 28.12C105.135 27.816 105.271 27.412 105.271 26.908V25.9C105.271 25.396 105.135 24.992 104.863 24.688C104.599 24.384 104.219 24.232 103.723 24.232C103.531 24.232 103.351 24.256 103.183 24.304C103.015 24.352 102.867 24.424 102.739 24.52C102.611 24.616 102.507 24.736 102.427 24.88C102.355 25.016 102.319 25.18 102.319 25.372V27.436C102.319 27.628 102.355 27.796 102.427 27.94C102.507 28.076 102.611 28.192 102.739 28.288C102.867 28.384 103.015 28.456 103.183 28.504C103.351 28.552 103.531 28.576 103.723 28.576ZM111.242 22.18C110.906 22.18 110.67 22.112 110.534 21.976C110.406 21.84 110.342 21.672 110.342 21.472V21.22C110.342 21.02 110.406 20.852 110.534 20.716C110.67 20.58 110.902 20.512 111.23 20.512C111.566 20.512 111.798 20.58 111.926 20.716C112.062 20.852 112.13 21.02 112.13 21.22V21.472C112.13 21.672 112.062 21.84 111.926 21.976C111.798 22.112 111.57 22.18 111.242 22.18ZM108.47 28.444H110.582V24.364H108.47V23.308H111.89V28.444H113.87V29.5H108.47V28.444ZM115.461 29.5V23.308H116.769V24.364H116.829C116.893 24.204 116.973 24.052 117.069 23.908C117.173 23.756 117.297 23.628 117.441 23.524C117.585 23.412 117.753 23.324 117.945 23.26C118.137 23.196 118.361 23.164 118.617 23.164C119.241 23.164 119.745 23.368 120.129 23.776C120.513 24.184 120.705 24.764 120.705 25.516V29.5H119.397V25.708C119.397 24.724 118.969 24.232 118.113 24.232C117.945 24.232 117.781 24.256 117.621 24.304C117.461 24.344 117.317 24.408 117.189 24.496C117.061 24.584 116.957 24.696 116.877 24.832C116.805 24.968 116.769 25.124 116.769 25.3V29.5H115.461ZM128.488 30.172C128.488 30.812 128.22 31.284 127.684 31.588C127.148 31.892 126.332 32.044 125.236 32.044C124.7 32.044 124.248 32.008 123.88 31.936C123.52 31.872 123.224 31.776 122.992 31.648C122.768 31.52 122.604 31.364 122.5 31.18C122.404 30.996 122.356 30.788 122.356 30.556C122.356 30.22 122.448 29.956 122.632 29.764C122.824 29.58 123.092 29.444 123.436 29.356V29.236C123.228 29.156 123.06 29.044 122.932 28.9C122.812 28.756 122.752 28.568 122.752 28.336C122.752 28.032 122.856 27.804 123.064 27.652C123.272 27.492 123.54 27.372 123.868 27.292V27.232C123.492 27.056 123.2 26.808 122.992 26.488C122.784 26.168 122.68 25.784 122.68 25.336C122.68 25.008 122.74 24.712 122.86 24.448C122.98 24.176 123.148 23.948 123.364 23.764C123.588 23.572 123.852 23.424 124.156 23.32C124.468 23.216 124.816 23.164 125.2 23.164C125.632 23.164 126.02 23.232 126.364 23.368V23.164C126.364 22.924 126.432 22.724 126.568 22.564C126.704 22.404 126.912 22.324 127.192 22.324H128.32V23.356H126.88V23.644C127.152 23.828 127.36 24.064 127.504 24.352C127.648 24.632 127.72 24.96 127.72 25.336C127.72 25.664 127.66 25.964 127.54 26.236C127.42 26.5 127.248 26.728 127.024 26.92C126.808 27.104 126.544 27.248 126.232 27.352C125.928 27.448 125.584 27.496 125.2 27.496C124.928 27.496 124.672 27.472 124.432 27.424C124.288 27.464 124.144 27.532 124 27.628C123.856 27.724 123.784 27.856 123.784 28.024C123.784 28.216 123.876 28.336 124.06 28.384C124.244 28.432 124.472 28.456 124.744 28.456H126.136C126.968 28.456 127.568 28.616 127.936 28.936C128.304 29.248 128.488 29.66 128.488 30.172ZM127.264 30.256C127.264 30.048 127.18 29.88 127.012 29.752C126.844 29.632 126.54 29.572 126.1 29.572H123.952C123.648 29.716 123.496 29.948 123.496 30.268C123.496 30.5 123.592 30.7 123.784 30.868C123.984 31.036 124.312 31.12 124.768 31.12H125.74C126.236 31.12 126.612 31.044 126.868 30.892C127.132 30.748 127.264 30.536 127.264 30.256ZM125.2 26.596C125.624 26.596 125.936 26.496 126.136 26.296C126.336 26.096 126.436 25.828 126.436 25.492V25.168C126.436 24.832 126.336 24.564 126.136 24.364C125.936 24.164 125.624 24.064 125.2 24.064C124.776 24.064 124.464 24.164 124.264 24.364C124.064 24.564 123.964 24.832 123.964 25.168V25.492C123.964 25.828 124.064 26.096 124.264 26.296C124.464 26.496 124.776 26.596 125.2 26.596ZM132.012 20.62H133.872L132.372 24.196H131.364L132.012 20.62ZM139.651 29.644C138.979 29.644 138.399 29.536 137.911 29.32C137.431 29.104 137.043 28.816 136.747 28.456L137.551 27.736C137.823 28.032 138.127 28.26 138.463 28.42C138.807 28.572 139.211 28.648 139.675 28.648C140.099 28.648 140.439 28.576 140.695 28.432C140.959 28.288 141.091 28.064 141.091 27.76C141.091 27.632 141.067 27.524 141.019 27.436C140.971 27.348 140.903 27.276 140.815 27.22C140.727 27.164 140.623 27.12 140.503 27.088C140.391 27.056 140.271 27.032 140.143 27.016L139.159 26.86C138.919 26.828 138.675 26.776 138.427 26.704C138.179 26.632 137.955 26.532 137.755 26.404C137.563 26.268 137.403 26.096 137.275 25.888C137.155 25.68 137.095 25.416 137.095 25.096C137.095 24.464 137.335 23.984 137.815 23.656C138.303 23.328 138.943 23.164 139.735 23.164C140.311 23.164 140.807 23.252 141.223 23.428C141.647 23.596 141.999 23.832 142.279 24.136L141.547 24.904C141.387 24.72 141.159 24.552 140.863 24.4C140.567 24.24 140.175 24.16 139.687 24.16C138.815 24.16 138.379 24.436 138.379 24.988C138.379 25.252 138.471 25.436 138.655 25.54C138.847 25.636 139.071 25.7 139.327 25.732L140.311 25.888C140.559 25.928 140.803 25.98 141.043 26.044C141.291 26.108 141.511 26.208 141.703 26.344C141.903 26.472 142.063 26.64 142.183 26.848C142.311 27.056 142.375 27.32 142.375 27.64C142.375 28.264 142.131 28.756 141.643 29.116C141.163 29.468 140.499 29.644 139.651 29.644ZM155.974 29.5L155.338 27.268H152.674L152.038 29.5H150.67L153.118 21.124H154.954L157.402 29.5H155.974ZM154.054 22.48H153.958L152.926 26.152H155.086L154.054 22.48ZM158.573 23.308H159.881V24.364H159.953C160.137 23.988 160.381 23.696 160.685 23.488C160.989 23.272 161.369 23.164 161.825 23.164C162.553 23.164 163.133 23.436 163.565 23.98C163.997 24.524 164.213 25.332 164.213 26.404C164.213 27.476 163.997 28.284 163.565 28.828C163.133 29.372 162.553 29.644 161.825 29.644C161.369 29.644 160.989 29.54 160.685 29.332C160.381 29.116 160.137 28.82 159.953 28.444H159.881V31.9H158.573V23.308ZM161.285 28.576C161.781 28.576 162.161 28.424 162.425 28.12C162.697 27.816 162.833 27.412 162.833 26.908V25.9C162.833 25.396 162.697 24.992 162.425 24.688C162.161 24.384 161.781 24.232 161.285 24.232C161.093 24.232 160.913 24.256 160.745 24.304C160.577 24.352 160.429 24.424 160.301 24.52C160.173 24.616 160.069 24.736 159.989 24.88C159.917 25.016 159.881 25.18 159.881 25.372V27.436C159.881 27.628 159.917 27.796 159.989 27.94C160.069 28.076 160.173 28.192 160.301 28.288C160.429 28.384 160.577 28.456 160.745 28.504C160.913 28.552 161.093 28.576 161.285 28.576ZM165.768 23.308H167.076V24.364H167.148C167.332 23.988 167.576 23.696 167.88 23.488C168.184 23.272 168.564 23.164 169.02 23.164C169.748 23.164 170.328 23.436 170.76 23.98C171.192 24.524 171.408 25.332 171.408 26.404C171.408 27.476 171.192 28.284 170.76 28.828C170.328 29.372 169.748 29.644 169.02 29.644C168.564 29.644 168.184 29.54 167.88 29.332C167.576 29.116 167.332 28.82 167.148 28.444H167.076V31.9H165.768V23.308ZM168.48 28.576C168.976 28.576 169.356 28.424 169.62 28.12C169.892 27.816 170.028 27.412 170.028 26.908V25.9C170.028 25.396 169.892 24.992 169.62 24.688C169.356 24.384 168.976 24.232 168.48 24.232C168.288 24.232 168.108 24.256 167.94 24.304C167.772 24.352 167.624 24.424 167.496 24.52C167.368 24.616 167.264 24.736 167.184 24.88C167.112 25.016 167.076 25.18 167.076 25.372V27.436C167.076 27.628 167.112 27.796 167.184 27.94C167.264 28.076 167.368 28.192 167.496 28.288C167.624 28.384 167.772 28.456 167.94 28.504C168.108 28.552 168.288 28.576 168.48 28.576ZM172.928 28.444H174.572V24.364H172.928V23.308H175.88V24.952H175.952C176.008 24.736 176.088 24.528 176.192 24.328C176.296 24.128 176.428 23.956 176.588 23.812C176.748 23.66 176.944 23.54 177.176 23.452C177.408 23.356 177.68 23.308 177.992 23.308H178.736V24.556H177.512C177.032 24.556 176.64 24.7 176.336 24.988C176.032 25.268 175.88 25.648 175.88 26.128V28.444H178.124V29.5H172.928V28.444ZM182.811 29.644C182.355 29.644 181.943 29.568 181.575 29.416C181.215 29.264 180.907 29.048 180.651 28.768C180.403 28.488 180.211 28.148 180.075 27.748C179.939 27.348 179.871 26.9 179.871 26.404C179.871 25.908 179.939 25.46 180.075 25.06C180.211 24.66 180.403 24.32 180.651 24.04C180.907 23.76 181.215 23.544 181.575 23.392C181.943 23.24 182.355 23.164 182.811 23.164C183.267 23.164 183.675 23.24 184.035 23.392C184.403 23.544 184.711 23.76 184.959 24.04C185.215 24.32 185.411 24.66 185.547 25.06C185.683 25.46 185.751 25.908 185.751 26.404C185.751 26.9 185.683 27.348 185.547 27.748C185.411 28.148 185.215 28.488 184.959 28.768C184.711 29.048 184.403 29.264 184.035 29.416C183.675 29.568 183.267 29.644 182.811 29.644ZM182.811 28.612C183.291 28.612 183.671 28.468 183.951 28.18C184.239 27.884 184.383 27.448 184.383 26.872V25.936C184.383 25.36 184.239 24.928 183.951 24.64C183.671 24.344 183.291 24.196 182.811 24.196C182.331 24.196 181.947 24.344 181.659 24.64C181.379 24.928 181.239 25.36 181.239 25.936V26.872C181.239 27.448 181.379 27.884 181.659 28.18C181.947 28.468 182.331 28.612 182.811 28.612ZM189.202 29.5L186.982 23.308H188.338L189.19 25.924L189.994 28.408H190.066L190.87 25.924L191.722 23.308H193.03L190.81 29.5H189.202ZM197.334 29.644C196.862 29.644 196.438 29.568 196.062 29.416C195.686 29.264 195.37 29.048 195.114 28.768C194.858 28.488 194.662 28.152 194.526 27.76C194.39 27.36 194.322 26.912 194.322 26.416C194.322 25.92 194.39 25.472 194.526 25.072C194.67 24.672 194.866 24.332 195.114 24.052C195.37 23.764 195.678 23.544 196.038 23.392C196.398 23.24 196.798 23.164 197.238 23.164C197.67 23.164 198.062 23.24 198.414 23.392C198.766 23.536 199.066 23.744 199.314 24.016C199.562 24.288 199.75 24.612 199.878 24.988C200.014 25.364 200.082 25.78 200.082 26.236V26.728H195.642V26.932C195.642 27.42 195.794 27.82 196.098 28.132C196.402 28.436 196.822 28.588 197.358 28.588C197.758 28.588 198.098 28.504 198.378 28.336C198.666 28.16 198.898 27.928 199.074 27.64L199.89 28.36C199.682 28.72 199.362 29.024 198.93 29.272C198.506 29.52 197.974 29.644 197.334 29.644ZM197.238 24.16C197.006 24.16 196.79 24.2 196.59 24.28C196.398 24.36 196.23 24.476 196.086 24.628C195.95 24.772 195.842 24.944 195.762 25.144C195.682 25.344 195.642 25.564 195.642 25.804V25.888H198.75V25.768C198.75 25.28 198.61 24.892 198.33 24.604C198.058 24.308 197.694 24.16 197.238 24.16ZM205.741 28.444H205.669C205.485 28.82 205.241 29.116 204.937 29.332C204.633 29.54 204.253 29.644 203.797 29.644C203.069 29.644 202.489 29.372 202.057 28.828C201.625 28.284 201.409 27.476 201.409 26.404C201.409 25.332 201.625 24.524 202.057 23.98C202.489 23.436 203.069 23.164 203.797 23.164C204.253 23.164 204.633 23.272 204.937 23.488C205.241 23.696 205.485 23.988 205.669 24.364H205.741V20.62H207.049V29.5H205.741V28.444ZM204.337 28.576C204.529 28.576 204.709 28.552 204.877 28.504C205.045 28.456 205.193 28.384 205.321 28.288C205.449 28.192 205.549 28.076 205.621 27.94C205.701 27.796 205.741 27.628 205.741 27.436V25.372C205.741 25.18 205.701 25.016 205.621 24.88C205.549 24.736 205.449 24.616 205.321 24.52C205.193 24.424 205.045 24.352 204.877 24.304C204.709 24.256 204.529 24.232 204.337 24.232C203.841 24.232 203.457 24.384 203.185 24.688C202.921 24.992 202.789 25.396 202.789 25.9V26.908C202.789 27.412 202.921 27.816 203.185 28.12C203.457 28.424 203.841 28.576 204.337 28.576ZM218.788 29.644C218.26 29.644 217.8 29.548 217.408 29.356C217.024 29.156 216.704 28.872 216.448 28.504C216.2 28.136 216.016 27.684 215.896 27.148C215.776 26.612 215.716 26 215.716 25.312C215.716 24.632 215.776 24.024 215.896 23.488C216.016 22.944 216.2 22.488 216.448 22.12C216.704 21.752 217.024 21.472 217.408 21.28C217.8 21.08 218.26 20.98 218.788 20.98C219.316 20.98 219.772 21.08 220.156 21.28C220.548 21.472 220.868 21.752 221.116 22.12C221.372 22.488 221.56 22.944 221.68 23.488C221.8 24.024 221.86 24.632 221.86 25.312C221.86 26 221.8 26.612 221.68 27.148C221.56 27.684 221.372 28.136 221.116 28.504C220.868 28.872 220.548 29.156 220.156 29.356C219.772 29.548 219.316 29.644 218.788 29.644ZM218.788 28.528C219.388 28.528 219.812 28.304 220.06 27.856C220.308 27.4 220.432 26.784 220.432 26.008V24.604C220.432 23.836 220.308 23.228 220.06 22.78C219.812 22.324 219.388 22.096 218.788 22.096C218.188 22.096 217.764 22.324 217.516 22.78C217.268 23.228 217.144 23.836 217.144 24.604V26.02C217.144 26.788 217.268 27.4 217.516 27.856C217.764 28.304 218.188 28.528 218.788 28.528ZM223.331 23.308H224.639V24.364H224.711C224.895 23.988 225.139 23.696 225.443 23.488C225.747 23.272 226.127 23.164 226.583 23.164C227.311 23.164 227.891 23.436 228.323 23.98C228.755 24.524 228.971 25.332 228.971 26.404C228.971 27.476 228.755 28.284 228.323 28.828C227.891 29.372 227.311 29.644 226.583 29.644C226.127 29.644 225.747 29.54 225.443 29.332C225.139 29.116 224.895 28.82 224.711 28.444H224.639V31.9H223.331V23.308ZM226.043 28.576C226.539 28.576 226.919 28.424 227.183 28.12C227.455 27.816 227.591 27.412 227.591 26.908V25.9C227.591 25.396 227.455 24.992 227.183 24.688C226.919 24.384 226.539 24.232 226.043 24.232C225.851 24.232 225.671 24.256 225.503 24.304C225.335 24.352 225.187 24.424 225.059 24.52C224.931 24.616 224.827 24.736 224.747 24.88C224.675 25.016 224.639 25.18 224.639 25.372V27.436C224.639 27.628 224.675 27.796 224.747 27.94C224.827 28.076 224.931 28.192 225.059 28.288C225.187 28.384 225.335 28.456 225.503 28.504C225.671 28.552 225.851 28.576 226.043 28.576ZM233.562 22.18C233.226 22.18 232.99 22.112 232.854 21.976C232.726 21.84 232.662 21.672 232.662 21.472V21.22C232.662 21.02 232.726 20.852 232.854 20.716C232.99 20.58 233.222 20.512 233.55 20.512C233.886 20.512 234.118 20.58 234.246 20.716C234.382 20.852 234.45 21.02 234.45 21.22V21.472C234.45 21.672 234.382 21.84 234.246 21.976C234.118 22.112 233.89 22.18 233.562 22.18ZM230.79 28.444H232.902V24.364H230.79V23.308H234.21V28.444H236.19V29.5H230.79V28.444ZM237.781 29.5V23.308H239.089V24.364H239.149C239.213 24.204 239.293 24.052 239.389 23.908C239.493 23.756 239.617 23.628 239.761 23.524C239.905 23.412 240.073 23.324 240.265 23.26C240.457 23.196 240.681 23.164 240.937 23.164C241.561 23.164 242.065 23.368 242.449 23.776C242.833 24.184 243.025 24.764 243.025 25.516V29.5H241.717V25.708C241.717 24.724 241.289 24.232 240.433 24.232C240.265 24.232 240.101 24.256 239.941 24.304C239.781 24.344 239.637 24.408 239.509 24.496C239.381 24.584 239.277 24.696 239.197 24.832C239.125 24.968 239.089 25.124 239.089 25.3V29.5H237.781ZM247.953 22.18C247.617 22.18 247.381 22.112 247.245 21.976C247.117 21.84 247.053 21.672 247.053 21.472V21.22C247.053 21.02 247.117 20.852 247.245 20.716C247.381 20.58 247.613 20.512 247.941 20.512C248.277 20.512 248.509 20.58 248.637 20.716C248.773 20.852 248.841 21.02 248.841 21.22V21.472C248.841 21.672 248.773 21.84 248.637 21.976C248.509 22.112 248.281 22.18 247.953 22.18ZM245.181 28.444H247.293V24.364H245.181V23.308H248.601V28.444H250.581V29.5H245.181V28.444ZM254.764 29.644C254.308 29.644 253.896 29.568 253.528 29.416C253.168 29.264 252.86 29.048 252.604 28.768C252.356 28.488 252.164 28.148 252.028 27.748C251.892 27.348 251.824 26.9 251.824 26.404C251.824 25.908 251.892 25.46 252.028 25.06C252.164 24.66 252.356 24.32 252.604 24.04C252.86 23.76 253.168 23.544 253.528 23.392C253.896 23.24 254.308 23.164 254.764 23.164C255.22 23.164 255.628 23.24 255.988 23.392C256.356 23.544 256.664 23.76 256.912 24.04C257.168 24.32 257.364 24.66 257.5 25.06C257.636 25.46 257.704 25.908 257.704 26.404C257.704 26.9 257.636 27.348 257.5 27.748C257.364 28.148 257.168 28.488 256.912 28.768C256.664 29.048 256.356 29.264 255.988 29.416C255.628 29.568 255.22 29.644 254.764 29.644ZM254.764 28.612C255.244 28.612 255.624 28.468 255.904 28.18C256.192 27.884 256.336 27.448 256.336 26.872V25.936C256.336 25.36 256.192 24.928 255.904 24.64C255.624 24.344 255.244 24.196 254.764 24.196C254.284 24.196 253.9 24.344 253.612 24.64C253.332 24.928 253.192 25.36 253.192 25.936V26.872C253.192 27.448 253.332 27.884 253.612 28.18C253.9 28.468 254.284 28.612 254.764 28.612ZM259.367 29.5V23.308H260.675V24.364H260.735C260.799 24.204 260.879 24.052 260.975 23.908C261.079 23.756 261.203 23.628 261.347 23.524C261.491 23.412 261.659 23.324 261.851 23.26C262.043 23.196 262.267 23.164 262.523 23.164C263.147 23.164 263.651 23.368 264.035 23.776C264.419 24.184 264.611 24.764 264.611 25.516V29.5H263.303V25.708C263.303 24.724 262.875 24.232 262.019 24.232C261.851 24.232 261.687 24.256 261.527 24.304C261.367 24.344 261.223 24.408 261.095 24.496C260.967 24.584 260.863 24.696 260.783 24.832C260.711 24.968 260.675 25.124 260.675 25.3V29.5H259.367ZM269.167 29.644C268.495 29.644 267.915 29.536 267.427 29.32C266.947 29.104 266.559 28.816 266.263 28.456L267.067 27.736C267.339 28.032 267.643 28.26 267.979 28.42C268.323 28.572 268.727 28.648 269.191 28.648C269.615 28.648 269.955 28.576 270.211 28.432C270.475 28.288 270.607 28.064 270.607 27.76C270.607 27.632 270.583 27.524 270.535 27.436C270.487 27.348 270.419 27.276 270.331 27.22C270.243 27.164 270.139 27.12 270.019 27.088C269.907 27.056 269.787 27.032 269.659 27.016L268.675 26.86C268.435 26.828 268.191 26.776 267.943 26.704C267.695 26.632 267.471 26.532 267.271 26.404C267.079 26.268 266.919 26.096 266.791 25.888C266.671 25.68 266.611 25.416 266.611 25.096C266.611 24.464 266.851 23.984 267.331 23.656C267.819 23.328 268.459 23.164 269.251 23.164C269.827 23.164 270.323 23.252 270.739 23.428C271.163 23.596 271.515 23.832 271.795 24.136L271.063 24.904C270.903 24.72 270.675 24.552 270.379 24.4C270.083 24.24 269.691 24.16 269.203 24.16C268.331 24.16 267.895 24.436 267.895 24.988C267.895 25.252 267.987 25.436 268.171 25.54C268.363 25.636 268.587 25.7 268.843 25.732L269.827 25.888C270.075 25.928 270.319 25.98 270.559 26.044C270.807 26.108 271.027 26.208 271.219 26.344C271.419 26.472 271.579 26.64 271.699 26.848C271.827 27.056 271.891 27.32 271.891 27.64C271.891 28.264 271.647 28.756 271.159 29.116C270.679 29.468 270.015 29.644 269.167 29.644Z" fill="black"/>
</svg>
