<svg width="700" height="592" viewBox="0 0 700 592" fill="none" xmlns="http://www.w3.org/2000/svg">
<path d="M693.11 590.93H5.89C2.66 590.93 0.68 588.92 0.68 585.74L0.56 314.71L0.5 72.4201L15.19 43.9701C17.71 39.0901 23.8 37.7901 29.42 37.0501H393.53C399.97 37.0501 405.45 33.3501 407.51 27.8401L413.22 12.5501C415.96 5.21006 421.69 0.480063 429.93 0.500063L514.9 0.680063L660.36 0.800063C665.59 0.800063 670.17 4.01006 671.89 8.59006L676.79 21.7101C679.64 29.3201 684.75 36.0301 692.33 39.0201C696.21 40.5501 697.25 42.8401 697.27 47.2901L698.63 428.47L699.04 584.19C699.04 587.56 698.08 590.92 693.13 590.92L693.11 590.93Z" fill="white" stroke="#231F20" stroke-miterlimit="10"/>
<path d="M439.6 28.644C439.072 28.644 438.612 28.548 438.22 28.356C437.836 28.156 437.516 27.872 437.26 27.504C437.012 27.136 436.828 26.684 436.708 26.148C436.588 25.612 436.528 25 436.528 24.312C436.528 23.632 436.588 23.024 436.708 22.488C436.828 21.944 437.012 21.488 437.26 21.12C437.516 20.752 437.836 20.472 438.22 20.28C438.612 20.08 439.072 19.98 439.6 19.98C440.128 19.98 440.584 20.08 440.968 20.28C441.36 20.472 441.68 20.752 441.928 21.12C442.184 21.488 442.372 21.944 442.492 22.488C442.612 23.024 442.672 23.632 442.672 24.312C442.672 25 442.612 25.612 442.492 26.148C442.372 26.684 442.184 27.136 441.928 27.504C441.68 27.872 441.36 28.156 440.968 28.356C440.584 28.548 440.128 28.644 439.6 28.644ZM439.6 27.54C440.208 27.54 440.64 27.316 440.896 26.868C441.16 26.412 441.292 25.8 441.292 25.032V23.592C441.292 22.824 441.16 22.216 440.896 21.768C440.64 21.312 440.208 21.084 439.6 21.084C439.296 21.084 439.036 21.144 438.82 21.264C438.604 21.376 438.428 21.544 438.292 21.768C438.156 21.984 438.056 22.248 437.992 22.56C437.936 22.864 437.908 23.208 437.908 23.592V25.032C437.908 25.416 437.936 25.764 437.992 26.076C438.056 26.38 438.156 26.644 438.292 26.868C438.428 27.084 438.604 27.252 438.82 27.372C439.036 27.484 439.296 27.54 439.6 27.54ZM439.6 25.02C439.32 25.02 439.124 24.964 439.012 24.852C438.908 24.74 438.856 24.604 438.856 24.444V24.18C438.856 24.02 438.908 23.884 439.012 23.772C439.124 23.66 439.32 23.604 439.6 23.604C439.88 23.604 440.072 23.66 440.176 23.772C440.288 23.884 440.344 24.02 440.344 24.18V24.444C440.344 24.604 440.288 24.74 440.176 24.852C440.072 24.964 439.88 25.02 439.6 25.02ZM444.251 28.5V27.384H446.603V21.108H446.507L444.563 23.184L443.735 22.44L445.871 20.124H447.947V27.384H449.975V28.5H444.251ZM456.931 28.5H451.147V27.216L453.883 24.828C454.315 24.444 454.647 24.08 454.879 23.736C455.119 23.392 455.239 23.028 455.239 22.644V22.512C455.239 22.072 455.119 21.736 454.879 21.504C454.639 21.264 454.291 21.144 453.835 21.144C453.371 21.144 453.011 21.268 452.755 21.516C452.507 21.764 452.327 22.08 452.215 22.464L451.039 22.02C451.119 21.756 451.235 21.504 451.387 21.264C451.539 21.016 451.731 20.796 451.963 20.604C452.203 20.412 452.483 20.26 452.803 20.148C453.131 20.036 453.507 19.98 453.931 19.98C454.363 19.98 454.747 20.044 455.083 20.172C455.427 20.292 455.715 20.46 455.947 20.676C456.179 20.892 456.355 21.152 456.475 21.456C456.595 21.752 456.655 22.08 456.655 22.44C456.655 22.776 456.603 23.088 456.499 23.376C456.403 23.656 456.263 23.928 456.079 24.192C455.903 24.448 455.691 24.696 455.443 24.936C455.195 25.176 454.923 25.416 454.627 25.656L452.599 27.36H456.931V28.5ZM537.742 28.5V20.124H540.874C541.674 20.124 542.282 20.348 542.698 20.796C543.122 21.244 543.334 21.86 543.334 22.644C543.334 23.428 543.122 24.044 542.698 24.492C542.282 24.94 541.674 25.164 540.874 25.164H539.086V28.5H537.742ZM539.086 24.048H540.67C541.502 24.048 541.918 23.664 541.918 22.896V22.38C541.918 21.62 541.502 21.24 540.67 21.24H539.086V24.048ZM548.814 27.444H548.754C548.69 27.604 548.606 27.76 548.502 27.912C548.406 28.056 548.286 28.184 548.142 28.296C547.998 28.4 547.83 28.484 547.638 28.548C547.446 28.612 547.222 28.644 546.966 28.644C546.342 28.644 545.838 28.44 545.454 28.032C545.07 27.624 544.878 27.044 544.878 26.292V22.308H546.186V26.1C546.186 27.084 546.614 27.576 547.47 27.576C547.638 27.576 547.802 27.556 547.962 27.516C548.122 27.468 548.266 27.4 548.394 27.312C548.522 27.224 548.622 27.116 548.694 26.988C548.774 26.852 548.814 26.692 548.814 26.508V22.308H550.122V28.5H548.814V27.444ZM555.097 28.5C554.553 28.5 554.153 28.356 553.897 28.068C553.641 27.772 553.513 27.392 553.513 26.928V23.364H551.605V22.308H552.961C553.193 22.308 553.357 22.264 553.453 22.176C553.549 22.08 553.597 21.912 553.597 21.672V20.124H554.821V22.308H557.461V23.364H554.821V27.444H557.461V28.5H555.097ZM562.304 21.18C561.968 21.18 561.732 21.112 561.596 20.976C561.468 20.84 561.404 20.672 561.404 20.472V20.22C561.404 20.02 561.468 19.852 561.596 19.716C561.732 19.58 561.964 19.512 562.292 19.512C562.628 19.512 562.86 19.58 562.988 19.716C563.124 19.852 563.192 20.02 563.192 20.22V20.472C563.192 20.672 563.124 20.84 562.988 20.976C562.86 21.112 562.632 21.18 562.304 21.18ZM559.532 27.444H561.644V23.364H559.532V22.308H562.952V27.444H564.932V28.5H559.532V27.444ZM566.524 28.5V22.308H567.832V23.364H567.892C567.956 23.204 568.036 23.052 568.132 22.908C568.236 22.756 568.36 22.628 568.504 22.524C568.648 22.412 568.816 22.324 569.008 22.26C569.2 22.196 569.424 22.164 569.68 22.164C570.304 22.164 570.808 22.368 571.192 22.776C571.576 23.184 571.768 23.764 571.768 24.516V28.5H570.46V24.708C570.46 23.724 570.032 23.232 569.176 23.232C569.008 23.232 568.844 23.256 568.684 23.304C568.524 23.344 568.38 23.408 568.252 23.496C568.124 23.584 568.02 23.696 567.94 23.832C567.868 23.968 567.832 24.124 567.832 24.3V28.5H566.524ZM575.879 19.62H577.739L576.239 23.196H575.231L575.879 19.62ZM583.518 28.644C582.846 28.644 582.266 28.536 581.778 28.32C581.298 28.104 580.91 27.816 580.614 27.456L581.418 26.736C581.69 27.032 581.994 27.26 582.33 27.42C582.674 27.572 583.078 27.648 583.542 27.648C583.966 27.648 584.306 27.576 584.562 27.432C584.826 27.288 584.958 27.064 584.958 26.76C584.958 26.632 584.934 26.524 584.886 26.436C584.838 26.348 584.77 26.276 584.682 26.22C584.594 26.164 584.49 26.12 584.37 26.088C584.258 26.056 584.138 26.032 584.01 26.016L583.026 25.86C582.786 25.828 582.542 25.776 582.294 25.704C582.046 25.632 581.822 25.532 581.622 25.404C581.43 25.268 581.27 25.096 581.142 24.888C581.022 24.68 580.962 24.416 580.962 24.096C580.962 23.464 581.202 22.984 581.682 22.656C582.17 22.328 582.81 22.164 583.602 22.164C584.178 22.164 584.674 22.252 585.09 22.428C585.514 22.596 585.866 22.832 586.146 23.136L585.414 23.904C585.254 23.72 585.026 23.552 584.73 23.4C584.434 23.24 584.042 23.16 583.554 23.16C582.682 23.16 582.246 23.436 582.246 23.988C582.246 24.252 582.338 24.436 582.522 24.54C582.714 24.636 582.938 24.7 583.194 24.732L584.178 24.888C584.426 24.928 584.67 24.98 584.91 25.044C585.158 25.108 585.378 25.208 585.57 25.344C585.77 25.472 585.93 25.64 586.05 25.848C586.178 26.056 586.242 26.32 586.242 26.64C586.242 27.264 585.998 27.756 585.51 28.116C585.03 28.468 584.366 28.644 583.518 28.644ZM599.289 24.816H596.505V28.5H595.161V20.124H596.505V23.688H599.289V20.124H600.633V28.5H599.289V24.816ZM605.476 21.18C605.14 21.18 604.904 21.112 604.768 20.976C604.64 20.84 604.576 20.672 604.576 20.472V20.22C604.576 20.02 604.64 19.852 604.768 19.716C604.904 19.58 605.136 19.512 605.464 19.512C605.8 19.512 606.032 19.58 606.16 19.716C606.296 19.852 606.364 20.02 606.364 20.22V20.472C606.364 20.672 606.296 20.84 606.16 20.976C606.032 21.112 605.804 21.18 605.476 21.18ZM602.704 27.444H604.816V23.364H602.704V22.308H606.124V27.444H608.104V28.5H602.704V27.444ZM612.66 28.5C612.116 28.5 611.716 28.356 611.46 28.068C611.204 27.772 611.076 27.392 611.076 26.928V23.364H609.168V22.308H610.524C610.756 22.308 610.92 22.264 611.016 22.176C611.112 22.08 611.16 21.912 611.16 21.672V20.124H612.384V22.308H615.023V23.364H612.384V27.444H615.023V28.5H612.66ZM624.374 28.5V20.124H625.718V27.372H629.534V28.5H624.374ZM634.257 21.18C633.921 21.18 633.685 21.112 633.549 20.976C633.421 20.84 633.357 20.672 633.357 20.472V20.22C633.357 20.02 633.421 19.852 633.549 19.716C633.685 19.58 633.917 19.512 634.245 19.512C634.581 19.512 634.813 19.58 634.941 19.716C635.077 19.852 635.145 20.02 635.145 20.22V20.472C635.145 20.672 635.077 20.84 634.941 20.976C634.813 21.112 634.585 21.18 634.257 21.18ZM631.485 27.444H633.597V23.364H631.485V22.308H634.905V27.444H636.885V28.5H631.485V27.444ZM641.081 28.644C640.409 28.644 639.829 28.536 639.341 28.32C638.861 28.104 638.473 27.816 638.177 27.456L638.981 26.736C639.253 27.032 639.557 27.26 639.893 27.42C640.237 27.572 640.641 27.648 641.105 27.648C641.529 27.648 641.869 27.576 642.125 27.432C642.389 27.288 642.521 27.064 642.521 26.76C642.521 26.632 642.497 26.524 642.449 26.436C642.401 26.348 642.333 26.276 642.245 26.22C642.157 26.164 642.053 26.12 641.933 26.088C641.821 26.056 641.701 26.032 641.573 26.016L640.589 25.86C640.349 25.828 640.105 25.776 639.857 25.704C639.609 25.632 639.385 25.532 639.185 25.404C638.993 25.268 638.833 25.096 638.705 24.888C638.585 24.68 638.525 24.416 638.525 24.096C638.525 23.464 638.765 22.984 639.245 22.656C639.733 22.328 640.373 22.164 641.165 22.164C641.741 22.164 642.237 22.252 642.653 22.428C643.077 22.596 643.429 22.832 643.709 23.136L642.977 23.904C642.817 23.72 642.589 23.552 642.293 23.4C641.997 23.24 641.605 23.16 641.117 23.16C640.245 23.16 639.809 23.436 639.809 23.988C639.809 24.252 639.901 24.436 640.085 24.54C640.277 24.636 640.501 24.7 640.757 24.732L641.741 24.888C641.989 24.928 642.233 24.98 642.473 25.044C642.721 25.108 642.941 25.208 643.133 25.344C643.333 25.472 643.493 25.64 643.613 25.848C643.741 26.056 643.805 26.32 643.805 26.64C643.805 27.264 643.561 27.756 643.073 28.116C642.593 28.468 641.929 28.644 641.081 28.644ZM648.636 28.5C648.092 28.5 647.692 28.356 647.436 28.068C647.18 27.772 647.052 27.392 647.052 26.928V23.364H645.144V22.308H646.5C646.732 22.308 646.896 22.264 646.992 22.176C647.088 22.08 647.136 21.912 647.136 21.672V20.124H648.36V22.308H651V23.364H648.36V27.444H651V28.5H648.636Z" fill="black"/>
</svg>
