<svg width="700" height="592" viewBox="0 0 700 592" fill="none" xmlns="http://www.w3.org/2000/svg">
<path d="M5.89 590.93H693.11L693.13 590.92C698.08 590.92 699.04 587.56 699.04 584.19L698.63 428.47L697.34 68L682.65 39.55C680.13 34.67 674.04 33.37 668.42 32.63C661.92 32.63 548.5 32.5 515 32.5C510 32.5 509.32 32.8198 508 29.5L500.89 8.59006C499.17 4.01006 494.59 0.800063 489.36 0.800063L343.9 0.680063L258.93 0.500063C250.69 0.480063 244.96 5.21006 242.22 12.5501L236.51 27.8401C234.45 33.3501 228.97 37.0501 222.53 37.0501H29.42C23.8 37.7901 17.71 39.0901 15.19 43.9701L0.5 72.4201L0.56 314.71L0.68 585.74C0.68 588.92 2.66 590.93 5.89 590.93Z" fill="white" stroke="#231F20" stroke-miterlimit="10"/>
<path d="M259.393 22.58C259.929 22.58 260.325 22.468 260.581 22.244C260.845 22.012 260.977 21.724 260.977 21.38V21.296C260.977 20.912 260.849 20.62 260.593 20.42C260.345 20.212 260.009 20.108 259.585 20.108C259.177 20.108 258.829 20.2 258.541 20.384C258.261 20.568 258.025 20.82 257.833 21.14L256.921 20.36C257.049 20.176 257.197 20 257.365 19.832C257.533 19.664 257.725 19.52 257.941 19.4C258.157 19.272 258.405 19.172 258.685 19.1C258.965 19.02 259.281 18.98 259.633 18.98C260.025 18.98 260.389 19.028 260.725 19.124C261.061 19.22 261.353 19.364 261.601 19.556C261.849 19.74 262.041 19.968 262.177 20.24C262.313 20.504 262.381 20.804 262.381 21.14C262.381 21.404 262.337 21.644 262.249 21.86C262.169 22.076 262.053 22.268 261.901 22.436C261.757 22.596 261.585 22.728 261.385 22.832C261.185 22.936 260.973 23.012 260.749 23.06V23.12C260.989 23.168 261.217 23.248 261.433 23.36C261.649 23.464 261.841 23.604 262.009 23.78C262.177 23.948 262.309 24.152 262.405 24.392C262.501 24.624 262.549 24.892 262.549 25.196C262.549 25.564 262.477 25.9 262.333 26.204C262.189 26.5 261.981 26.756 261.709 26.972C261.445 27.188 261.125 27.356 260.749 27.476C260.373 27.588 259.953 27.644 259.489 27.644C259.097 27.644 258.749 27.6 258.445 27.512C258.149 27.432 257.885 27.324 257.653 27.188C257.421 27.044 257.217 26.884 257.041 26.708C256.873 26.524 256.725 26.336 256.597 26.144L257.593 25.376C257.801 25.712 258.045 25.988 258.325 26.204C258.613 26.412 259.005 26.516 259.501 26.516C260.029 26.516 260.433 26.396 260.713 26.156C260.993 25.908 261.133 25.568 261.133 25.136V25.04C261.133 24.608 260.985 24.28 260.689 24.056C260.401 23.824 259.981 23.708 259.429 23.708H258.529V22.58H259.393ZM265.364 27.5L268.472 20.24H265.208V21.788H264.044V19.124H269.816V20.3L266.792 27.5H265.364ZM277.071 27.5H271.287V26.216L274.023 23.828C274.455 23.444 274.787 23.08 275.019 22.736C275.259 22.392 275.379 22.028 275.379 21.644V21.512C275.379 21.072 275.259 20.736 275.019 20.504C274.779 20.264 274.431 20.144 273.975 20.144C273.511 20.144 273.151 20.268 272.895 20.516C272.647 20.764 272.467 21.08 272.355 21.464L271.179 21.02C271.259 20.756 271.375 20.504 271.527 20.264C271.679 20.016 271.871 19.796 272.103 19.604C272.343 19.412 272.623 19.26 272.943 19.148C273.271 19.036 273.647 18.98 274.071 18.98C274.503 18.98 274.887 19.044 275.223 19.172C275.567 19.292 275.855 19.46 276.087 19.676C276.319 19.892 276.495 20.152 276.615 20.456C276.735 20.752 276.795 21.08 276.795 21.44C276.795 21.776 276.743 22.088 276.639 22.376C276.543 22.656 276.403 22.928 276.219 23.192C276.043 23.448 275.831 23.696 275.583 23.936C275.335 24.176 275.063 24.416 274.767 24.656L272.739 26.36H277.071V27.5ZM297.661 27.5L297.025 25.268H294.361L293.725 27.5H292.357L294.805 19.124H296.641L299.089 27.5H297.661ZM295.741 20.48H295.645L294.613 24.152H296.773L295.741 20.48ZM300.213 26.444H302.265V19.676H300.213V18.62H303.573V26.444H305.625V27.5H300.213V26.444ZM308.296 24.5V23.192H311.92V24.5H308.296ZM314.699 19.124H317.591C318.351 19.124 318.939 19.32 319.355 19.712C319.779 20.104 319.991 20.64 319.991 21.32C319.991 21.808 319.871 22.196 319.631 22.484C319.391 22.772 319.067 22.976 318.659 23.096V23.156C319.147 23.268 319.539 23.484 319.835 23.804C320.131 24.116 320.279 24.56 320.279 25.136C320.279 25.48 320.223 25.796 320.111 26.084C319.999 26.372 319.839 26.624 319.631 26.84C319.423 27.048 319.171 27.212 318.875 27.332C318.587 27.444 318.267 27.5 317.915 27.5H314.699V19.124ZM317.507 26.468C317.955 26.468 318.299 26.376 318.539 26.192C318.779 26.008 318.899 25.712 318.899 25.304V24.872C318.899 24.464 318.779 24.168 318.539 23.984C318.299 23.8 317.955 23.708 317.507 23.708H316.019V26.468H317.507ZM317.315 22.724C317.739 22.724 318.059 22.644 318.275 22.484C318.499 22.316 318.611 22.04 318.611 21.656V21.224C318.611 20.84 318.499 20.568 318.275 20.408C318.059 20.24 317.739 20.156 317.315 20.156H316.019V22.724H317.315ZM326.802 27.5C326.426 27.5 326.142 27.404 325.95 27.212C325.766 27.02 325.654 26.768 325.614 26.456H325.554C325.434 26.832 325.214 27.124 324.894 27.332C324.582 27.54 324.182 27.644 323.694 27.644C323.062 27.644 322.558 27.48 322.182 27.152C321.806 26.816 321.618 26.356 321.618 25.772C321.618 25.172 321.838 24.716 322.278 24.404C322.726 24.084 323.41 23.924 324.33 23.924H325.518V23.444C325.518 22.604 325.074 22.184 324.186 22.184C323.786 22.184 323.462 22.264 323.214 22.424C322.966 22.576 322.758 22.78 322.59 23.036L321.81 22.4C321.986 22.064 322.282 21.776 322.698 21.536C323.114 21.288 323.65 21.164 324.306 21.164C325.09 21.164 325.706 21.352 326.154 21.728C326.602 22.104 326.826 22.648 326.826 23.36V26.468H327.606V27.5H326.802ZM324.066 26.684C324.49 26.684 324.838 26.588 325.11 26.396C325.382 26.204 325.518 25.956 325.518 25.652V24.752H324.354C323.41 24.752 322.938 25.036 322.938 25.604V25.844C322.938 26.124 323.038 26.336 323.238 26.48C323.438 26.616 323.714 26.684 324.066 26.684ZM331.706 27.644C331.034 27.644 330.454 27.536 329.966 27.32C329.486 27.104 329.098 26.816 328.802 26.456L329.606 25.736C329.878 26.032 330.182 26.26 330.518 26.42C330.862 26.572 331.266 26.648 331.73 26.648C332.154 26.648 332.494 26.576 332.75 26.432C333.014 26.288 333.146 26.064 333.146 25.76C333.146 25.632 333.122 25.524 333.074 25.436C333.026 25.348 332.958 25.276 332.87 25.22C332.782 25.164 332.678 25.12 332.558 25.088C332.446 25.056 332.326 25.032 332.198 25.016L331.214 24.86C330.974 24.828 330.73 24.776 330.482 24.704C330.234 24.632 330.01 24.532 329.81 24.404C329.618 24.268 329.458 24.096 329.33 23.888C329.21 23.68 329.15 23.416 329.15 23.096C329.15 22.464 329.39 21.984 329.87 21.656C330.358 21.328 330.998 21.164 331.79 21.164C332.366 21.164 332.862 21.252 333.278 21.428C333.702 21.596 334.054 21.832 334.334 22.136L333.602 22.904C333.442 22.72 333.214 22.552 332.918 22.4C332.622 22.24 332.23 22.16 331.742 22.16C330.87 22.16 330.434 22.436 330.434 22.988C330.434 23.252 330.526 23.436 330.71 23.54C330.902 23.636 331.126 23.7 331.382 23.732L332.366 23.888C332.614 23.928 332.858 23.98 333.098 24.044C333.346 24.108 333.566 24.208 333.758 24.344C333.958 24.472 334.118 24.64 334.238 24.848C334.366 25.056 334.43 25.32 334.43 25.64C334.43 26.264 334.186 26.756 333.698 27.116C333.218 27.468 332.554 27.644 331.706 27.644ZM336.297 18.62H337.605V22.364H337.665C337.729 22.204 337.809 22.052 337.905 21.908C338.009 21.756 338.133 21.628 338.277 21.524C338.421 21.412 338.589 21.324 338.781 21.26C338.973 21.196 339.197 21.164 339.453 21.164C340.077 21.164 340.581 21.368 340.965 21.776C341.349 22.184 341.541 22.764 341.541 23.516V27.5H340.233V23.708C340.233 22.724 339.805 22.232 338.949 22.232C338.781 22.232 338.617 22.256 338.457 22.304C338.297 22.344 338.153 22.408 338.025 22.496C337.897 22.584 337.793 22.696 337.713 22.832C337.641 22.968 337.605 23.124 337.605 23.3V27.5H336.297V18.62ZM346.468 20.18C346.132 20.18 345.896 20.112 345.76 19.976C345.632 19.84 345.568 19.672 345.568 19.472V19.22C345.568 19.02 345.632 18.852 345.76 18.716C345.896 18.58 346.128 18.512 346.456 18.512C346.792 18.512 347.024 18.58 347.152 18.716C347.288 18.852 347.356 19.02 347.356 19.22V19.472C347.356 19.672 347.288 19.84 347.152 19.976C347.024 20.112 346.796 20.18 346.468 20.18ZM343.696 26.444H345.808V22.364H343.696V21.308H347.116V26.444H349.096V27.5H343.696V26.444ZM350.592 26.444H352.236V22.364H350.592V21.308H353.544V22.952H353.616C353.672 22.736 353.752 22.528 353.856 22.328C353.96 22.128 354.092 21.956 354.252 21.812C354.412 21.66 354.608 21.54 354.84 21.452C355.072 21.356 355.344 21.308 355.656 21.308H356.4V22.556H355.176C354.696 22.556 354.304 22.7 354 22.988C353.696 23.268 353.544 23.648 353.544 24.128V26.444H355.788V27.5H350.592V26.444ZM360.043 18.62H361.903L360.403 22.196H359.395L360.043 18.62ZM367.682 27.644C367.01 27.644 366.43 27.536 365.942 27.32C365.462 27.104 365.074 26.816 364.778 26.456L365.582 25.736C365.854 26.032 366.158 26.26 366.494 26.42C366.838 26.572 367.242 26.648 367.706 26.648C368.13 26.648 368.47 26.576 368.726 26.432C368.99 26.288 369.122 26.064 369.122 25.76C369.122 25.632 369.098 25.524 369.05 25.436C369.002 25.348 368.934 25.276 368.846 25.22C368.758 25.164 368.654 25.12 368.534 25.088C368.422 25.056 368.302 25.032 368.174 25.016L367.19 24.86C366.95 24.828 366.706 24.776 366.458 24.704C366.21 24.632 365.986 24.532 365.786 24.404C365.594 24.268 365.434 24.096 365.306 23.888C365.186 23.68 365.126 23.416 365.126 23.096C365.126 22.464 365.366 21.984 365.846 21.656C366.334 21.328 366.974 21.164 367.766 21.164C368.342 21.164 368.838 21.252 369.254 21.428C369.678 21.596 370.03 21.832 370.31 22.136L369.578 22.904C369.418 22.72 369.19 22.552 368.894 22.4C368.598 22.24 368.206 22.16 367.718 22.16C366.846 22.16 366.41 22.436 366.41 22.988C366.41 23.252 366.502 23.436 366.686 23.54C366.878 23.636 367.102 23.7 367.358 23.732L368.342 23.888C368.59 23.928 368.834 23.98 369.074 24.044C369.322 24.108 369.542 24.208 369.734 24.344C369.934 24.472 370.094 24.64 370.214 24.848C370.342 25.056 370.406 25.32 370.406 25.64C370.406 26.264 370.162 26.756 369.674 27.116C369.194 27.468 368.53 27.644 367.682 27.644ZM379.469 27.5V19.124H382.601C383.401 19.124 384.009 19.348 384.425 19.796C384.849 20.244 385.061 20.86 385.061 21.644C385.061 22.428 384.849 23.044 384.425 23.492C384.009 23.94 383.401 24.164 382.601 24.164H380.813V27.5H379.469ZM380.813 23.048H382.397C383.229 23.048 383.645 22.664 383.645 21.896V21.38C383.645 20.62 383.229 20.24 382.397 20.24H380.813V23.048ZM389.256 27.644C388.8 27.644 388.388 27.568 388.02 27.416C387.66 27.264 387.352 27.048 387.096 26.768C386.848 26.488 386.656 26.148 386.52 25.748C386.384 25.348 386.316 24.9 386.316 24.404C386.316 23.908 386.384 23.46 386.52 23.06C386.656 22.66 386.848 22.32 387.096 22.04C387.352 21.76 387.66 21.544 388.02 21.392C388.388 21.24 388.8 21.164 389.256 21.164C389.712 21.164 390.12 21.24 390.48 21.392C390.848 21.544 391.156 21.76 391.404 22.04C391.66 22.32 391.856 22.66 391.992 23.06C392.128 23.46 392.196 23.908 392.196 24.404C392.196 24.9 392.128 25.348 391.992 25.748C391.856 26.148 391.66 26.488 391.404 26.768C391.156 27.048 390.848 27.264 390.48 27.416C390.12 27.568 389.712 27.644 389.256 27.644ZM389.256 26.612C389.736 26.612 390.116 26.468 390.396 26.18C390.684 25.884 390.828 25.448 390.828 24.872V23.936C390.828 23.36 390.684 22.928 390.396 22.64C390.116 22.344 389.736 22.196 389.256 22.196C388.776 22.196 388.392 22.344 388.104 22.64C387.824 22.928 387.684 23.36 387.684 23.936V24.872C387.684 25.448 387.824 25.884 388.104 26.18C388.392 26.468 388.776 26.612 389.256 26.612ZM396.836 20.18C396.5 20.18 396.264 20.112 396.128 19.976C396 19.84 395.936 19.672 395.936 19.472V19.22C395.936 19.02 396 18.852 396.128 18.716C396.264 18.58 396.496 18.512 396.824 18.512C397.16 18.512 397.392 18.58 397.52 18.716C397.656 18.852 397.724 19.02 397.724 19.22V19.472C397.724 19.672 397.656 19.84 397.52 19.976C397.392 20.112 397.164 20.18 396.836 20.18ZM394.064 26.444H396.176V22.364H394.064V21.308H397.484V26.444H399.464V27.5H394.064V26.444ZM403.659 27.644C402.987 27.644 402.407 27.536 401.919 27.32C401.439 27.104 401.051 26.816 400.755 26.456L401.559 25.736C401.831 26.032 402.135 26.26 402.471 26.42C402.815 26.572 403.219 26.648 403.683 26.648C404.107 26.648 404.447 26.576 404.703 26.432C404.967 26.288 405.099 26.064 405.099 25.76C405.099 25.632 405.075 25.524 405.027 25.436C404.979 25.348 404.911 25.276 404.823 25.22C404.735 25.164 404.631 25.12 404.511 25.088C404.399 25.056 404.279 25.032 404.151 25.016L403.167 24.86C402.927 24.828 402.683 24.776 402.435 24.704C402.187 24.632 401.963 24.532 401.763 24.404C401.571 24.268 401.411 24.096 401.283 23.888C401.163 23.68 401.103 23.416 401.103 23.096C401.103 22.464 401.343 21.984 401.823 21.656C402.311 21.328 402.951 21.164 403.743 21.164C404.319 21.164 404.815 21.252 405.231 21.428C405.655 21.596 406.007 21.832 406.287 22.136L405.555 22.904C405.395 22.72 405.167 22.552 404.871 22.4C404.575 22.24 404.183 22.16 403.695 22.16C402.823 22.16 402.387 22.436 402.387 22.988C402.387 23.252 402.479 23.436 402.663 23.54C402.855 23.636 403.079 23.7 403.335 23.732L404.319 23.888C404.567 23.928 404.811 23.98 405.051 24.044C405.299 24.108 405.519 24.208 405.711 24.344C405.911 24.472 406.071 24.64 406.191 24.848C406.319 25.056 406.383 25.32 406.383 25.64C406.383 26.264 406.139 26.756 405.651 27.116C405.171 27.468 404.507 27.644 403.659 27.644ZM410.842 27.644C410.386 27.644 409.974 27.568 409.606 27.416C409.246 27.264 408.938 27.048 408.682 26.768C408.434 26.488 408.242 26.148 408.106 25.748C407.97 25.348 407.902 24.9 407.902 24.404C407.902 23.908 407.97 23.46 408.106 23.06C408.242 22.66 408.434 22.32 408.682 22.04C408.938 21.76 409.246 21.544 409.606 21.392C409.974 21.24 410.386 21.164 410.842 21.164C411.298 21.164 411.706 21.24 412.066 21.392C412.434 21.544 412.742 21.76 412.99 22.04C413.246 22.32 413.442 22.66 413.578 23.06C413.714 23.46 413.782 23.908 413.782 24.404C413.782 24.9 413.714 25.348 413.578 25.748C413.442 26.148 413.246 26.488 412.99 26.768C412.742 27.048 412.434 27.264 412.066 27.416C411.706 27.568 411.298 27.644 410.842 27.644ZM410.842 26.612C411.322 26.612 411.702 26.468 411.982 26.18C412.27 25.884 412.414 25.448 412.414 24.872V23.936C412.414 23.36 412.27 22.928 411.982 22.64C411.702 22.344 411.322 22.196 410.842 22.196C410.362 22.196 409.978 22.344 409.69 22.64C409.41 22.928 409.27 23.36 409.27 23.936V24.872C409.27 25.448 409.41 25.884 409.69 26.18C409.978 26.468 410.362 26.612 410.842 26.612ZM415.446 27.5V21.308H416.754V22.364H416.814C416.878 22.204 416.958 22.052 417.054 21.908C417.158 21.756 417.282 21.628 417.426 21.524C417.57 21.412 417.738 21.324 417.93 21.26C418.122 21.196 418.346 21.164 418.602 21.164C419.226 21.164 419.73 21.368 420.114 21.776C420.498 22.184 420.69 22.764 420.69 23.516V27.5H419.382V23.708C419.382 22.724 418.954 22.232 418.098 22.232C417.93 22.232 417.766 22.256 417.605 22.304C417.446 22.344 417.302 22.408 417.174 22.496C417.046 22.584 416.942 22.696 416.862 22.832C416.79 22.968 416.754 23.124 416.754 23.3V27.5H415.446ZM425.233 27.644C424.777 27.644 424.365 27.568 423.997 27.416C423.637 27.264 423.329 27.048 423.073 26.768C422.825 26.488 422.633 26.148 422.497 25.748C422.361 25.348 422.293 24.9 422.293 24.404C422.293 23.908 422.361 23.46 422.497 23.06C422.633 22.66 422.825 22.32 423.073 22.04C423.329 21.76 423.637 21.544 423.997 21.392C424.365 21.24 424.777 21.164 425.233 21.164C425.689 21.164 426.097 21.24 426.457 21.392C426.825 21.544 427.133 21.76 427.381 22.04C427.637 22.32 427.833 22.66 427.969 23.06C428.105 23.46 428.173 23.908 428.173 24.404C428.173 24.9 428.105 25.348 427.969 25.748C427.833 26.148 427.637 26.488 427.381 26.768C427.133 27.048 426.825 27.264 426.457 27.416C426.097 27.568 425.689 27.644 425.233 27.644ZM425.233 26.612C425.713 26.612 426.093 26.468 426.373 26.18C426.661 25.884 426.805 25.448 426.805 24.872V23.936C426.805 23.36 426.661 22.928 426.373 22.64C426.093 22.344 425.713 22.196 425.233 22.196C424.753 22.196 424.369 22.344 424.081 22.64C423.801 22.928 423.661 23.36 423.661 23.936V24.872C423.661 25.448 423.801 25.884 424.081 26.18C424.369 26.468 424.753 26.612 425.233 26.612ZM433.712 26.444H433.652C433.588 26.604 433.504 26.76 433.4 26.912C433.304 27.056 433.184 27.184 433.04 27.296C432.896 27.4 432.728 27.484 432.536 27.548C432.344 27.612 432.12 27.644 431.864 27.644C431.24 27.644 430.736 27.44 430.352 27.032C429.968 26.624 429.776 26.044 429.776 25.292V21.308H431.084V25.1C431.084 26.084 431.512 26.576 432.368 26.576C432.536 26.576 432.7 26.556 432.86 26.516C433.02 26.468 433.164 26.4 433.292 26.312C433.42 26.224 433.52 26.116 433.592 25.988C433.672 25.852 433.712 25.692 433.712 25.508V21.308H435.02V27.5H433.712V26.444ZM439.635 27.644C438.963 27.644 438.383 27.536 437.895 27.32C437.415 27.104 437.027 26.816 436.731 26.456L437.535 25.736C437.807 26.032 438.111 26.26 438.447 26.42C438.791 26.572 439.195 26.648 439.659 26.648C440.083 26.648 440.423 26.576 440.679 26.432C440.943 26.288 441.075 26.064 441.075 25.76C441.075 25.632 441.051 25.524 441.003 25.436C440.955 25.348 440.887 25.276 440.799 25.22C440.711 25.164 440.607 25.12 440.487 25.088C440.375 25.056 440.255 25.032 440.127 25.016L439.143 24.86C438.903 24.828 438.659 24.776 438.411 24.704C438.163 24.632 437.939 24.532 437.739 24.404C437.547 24.268 437.387 24.096 437.259 23.888C437.139 23.68 437.079 23.416 437.079 23.096C437.079 22.464 437.319 21.984 437.799 21.656C438.287 21.328 438.927 21.164 439.719 21.164C440.295 21.164 440.791 21.252 441.207 21.428C441.631 21.596 441.983 21.832 442.263 22.136L441.531 22.904C441.371 22.72 441.143 22.552 440.847 22.4C440.551 22.24 440.159 22.16 439.671 22.16C438.799 22.16 438.363 22.436 438.363 22.988C438.363 23.252 438.455 23.436 438.639 23.54C438.831 23.636 439.055 23.7 439.311 23.732L440.295 23.888C440.543 23.928 440.787 23.98 441.027 24.044C441.275 24.108 441.495 24.208 441.687 24.344C441.887 24.472 442.047 24.64 442.167 24.848C442.295 25.056 442.359 25.32 442.359 25.64C442.359 26.264 442.115 26.756 441.627 27.116C441.147 27.468 440.483 27.644 439.635 27.644ZM451.71 27.5V19.124H453.054V26.372H456.87V27.5H451.71ZM461.341 27.644C460.869 27.644 460.445 27.568 460.069 27.416C459.693 27.264 459.377 27.048 459.121 26.768C458.865 26.488 458.669 26.152 458.533 25.76C458.397 25.36 458.329 24.912 458.329 24.416C458.329 23.92 458.397 23.472 458.533 23.072C458.677 22.672 458.873 22.332 459.121 22.052C459.377 21.764 459.685 21.544 460.045 21.392C460.405 21.24 460.805 21.164 461.245 21.164C461.677 21.164 462.069 21.24 462.421 21.392C462.773 21.536 463.073 21.744 463.321 22.016C463.569 22.288 463.757 22.612 463.885 22.988C464.021 23.364 464.089 23.78 464.089 24.236V24.728H459.649V24.932C459.649 25.42 459.801 25.82 460.105 26.132C460.409 26.436 460.829 26.588 461.365 26.588C461.765 26.588 462.105 26.504 462.385 26.336C462.673 26.16 462.905 25.928 463.081 25.64L463.897 26.36C463.689 26.72 463.369 27.024 462.937 27.272C462.513 27.52 461.981 27.644 461.341 27.644ZM461.245 22.16C461.013 22.16 460.797 22.2 460.597 22.28C460.405 22.36 460.237 22.476 460.093 22.628C459.957 22.772 459.849 22.944 459.769 23.144C459.689 23.344 459.649 23.564 459.649 23.804V23.888H462.757V23.768C462.757 23.28 462.617 22.892 462.337 22.604C462.065 22.308 461.701 22.16 461.245 22.16ZM471.645 28.172C471.645 28.812 471.377 29.284 470.841 29.588C470.305 29.892 469.489 30.044 468.393 30.044C467.857 30.044 467.405 30.008 467.037 29.936C466.677 29.872 466.381 29.776 466.149 29.648C465.925 29.52 465.761 29.364 465.657 29.18C465.561 28.996 465.513 28.788 465.513 28.556C465.513 28.22 465.605 27.956 465.789 27.764C465.981 27.58 466.249 27.444 466.593 27.356V27.236C466.385 27.156 466.217 27.044 466.089 26.9C465.969 26.756 465.909 26.568 465.909 26.336C465.909 26.032 466.013 25.804 466.221 25.652C466.429 25.492 466.697 25.372 467.025 25.292V25.232C466.649 25.056 466.357 24.808 466.149 24.488C465.941 24.168 465.837 23.784 465.837 23.336C465.837 23.008 465.897 22.712 466.017 22.448C466.137 22.176 466.305 21.948 466.521 21.764C466.745 21.572 467.009 21.424 467.313 21.32C467.625 21.216 467.973 21.164 468.357 21.164C468.789 21.164 469.177 21.232 469.521 21.368V21.164C469.521 20.924 469.589 20.724 469.725 20.564C469.861 20.404 470.069 20.324 470.349 20.324H471.477V21.356H470.037V21.644C470.309 21.828 470.517 22.064 470.661 22.352C470.805 22.632 470.877 22.96 470.877 23.336C470.877 23.664 470.817 23.964 470.697 24.236C470.577 24.5 470.405 24.728 470.181 24.92C469.965 25.104 469.701 25.248 469.389 25.352C469.085 25.448 468.741 25.496 468.357 25.496C468.085 25.496 467.829 25.472 467.589 25.424C467.445 25.464 467.301 25.532 467.157 25.628C467.013 25.724 466.941 25.856 466.941 26.024C466.941 26.216 467.033 26.336 467.217 26.384C467.401 26.432 467.629 26.456 467.901 26.456H469.293C470.125 26.456 470.725 26.616 471.093 26.936C471.461 27.248 471.645 27.66 471.645 28.172ZM470.421 28.256C470.421 28.048 470.337 27.88 470.169 27.752C470.001 27.632 469.697 27.572 469.257 27.572H467.109C466.805 27.716 466.653 27.948 466.653 28.268C466.653 28.5 466.749 28.7 466.941 28.868C467.141 29.036 467.469 29.12 467.925 29.12H468.897C469.393 29.12 469.769 29.044 470.025 28.892C470.289 28.748 470.421 28.536 470.421 28.256ZM468.357 24.596C468.781 24.596 469.093 24.496 469.293 24.296C469.493 24.096 469.593 23.828 469.593 23.492V23.168C469.593 22.832 469.493 22.564 469.293 22.364C469.093 22.164 468.781 22.064 468.357 22.064C467.933 22.064 467.621 22.164 467.421 22.364C467.221 22.564 467.121 22.832 467.121 23.168V23.492C467.121 23.828 467.221 24.096 467.421 24.296C467.621 24.496 467.933 24.596 468.357 24.596ZM477.904 27.5C477.528 27.5 477.244 27.404 477.052 27.212C476.868 27.02 476.756 26.768 476.716 26.456H476.656C476.536 26.832 476.316 27.124 475.996 27.332C475.684 27.54 475.284 27.644 474.796 27.644C474.164 27.644 473.66 27.48 473.284 27.152C472.908 26.816 472.72 26.356 472.72 25.772C472.72 25.172 472.94 24.716 473.38 24.404C473.828 24.084 474.512 23.924 475.432 23.924H476.62V23.444C476.62 22.604 476.176 22.184 475.288 22.184C474.888 22.184 474.564 22.264 474.316 22.424C474.068 22.576 473.86 22.78 473.692 23.036L472.912 22.4C473.088 22.064 473.384 21.776 473.8 21.536C474.216 21.288 474.752 21.164 475.408 21.164C476.192 21.164 476.808 21.352 477.256 21.728C477.704 22.104 477.928 22.648 477.928 23.36V26.468H478.708V27.5H477.904ZM475.168 26.684C475.592 26.684 475.94 26.588 476.212 26.396C476.484 26.204 476.62 25.956 476.62 25.652V24.752H475.456C474.512 24.752 474.04 25.036 474.04 25.604V25.844C474.04 26.124 474.14 26.336 474.34 26.48C474.54 26.616 474.816 26.684 475.168 26.684ZM483.023 27.644C482.559 27.644 482.143 27.568 481.775 27.416C481.415 27.264 481.107 27.048 480.851 26.768C480.603 26.488 480.411 26.148 480.275 25.748C480.147 25.348 480.083 24.9 480.083 24.404C480.083 23.908 480.147 23.46 480.275 23.06C480.411 22.66 480.603 22.32 480.851 22.04C481.107 21.76 481.415 21.544 481.775 21.392C482.143 21.24 482.555 21.164 483.011 21.164C483.651 21.164 484.163 21.3 484.547 21.572C484.939 21.844 485.231 22.196 485.423 22.628L484.403 23.18C484.291 22.892 484.119 22.664 483.887 22.496C483.663 22.328 483.371 22.244 483.011 22.244C482.515 22.244 482.131 22.396 481.859 22.7C481.587 22.996 481.451 23.392 481.451 23.888V24.92C481.451 25.408 481.587 25.804 481.859 26.108C482.131 26.412 482.523 26.564 483.035 26.564C483.419 26.564 483.731 26.476 483.971 26.3C484.219 26.124 484.415 25.884 484.559 25.58L485.519 26.168C485.319 26.6 485.015 26.956 484.607 27.236C484.199 27.508 483.671 27.644 483.023 27.644ZM491.803 21.308H493.123L490.123 28.7C489.963 29.1 489.751 29.4 489.487 29.6C489.231 29.8 488.859 29.9 488.371 29.9H487.327V28.844H488.791L489.355 27.416L486.859 21.308H488.227L489.211 23.9L489.979 26.024H490.051L490.819 23.9L491.803 21.308Z" fill="black"/>
</svg>
