<svg width="700" height="592" viewBox="0 0 700 592" fill="none" xmlns="http://www.w3.org/2000/svg">
<path d="M693.11 590.93H5.89C2.66 590.93 0.68 588.92 0.68 585.74L0.56 314.71L0.5 72.4201L15.19 43.9701C17.71 39.0901 23.8 37.7901 29.42 37.0501H393.53C399.97 37.0501 405.45 33.3501 407.51 27.8401L413.22 12.5501C415.96 5.21006 421.69 0.480063 429.93 0.500063L514.9 0.680063L660.36 0.800063C665.59 0.800063 670.17 4.01006 671.89 8.59006L676.79 21.7101C679.64 29.3201 684.75 36.0301 692.33 39.0201C696.21 40.5501 697.25 42.8401 697.27 47.2901L698.63 428.47L699.04 584.19C699.04 587.56 698.08 590.92 693.13 590.92L693.11 590.93Z" fill="white" stroke="#231F20" stroke-miterlimit="10"/>
</svg>
