<svg width="158" height="33" viewBox="0 0 158 33" fill="none" xmlns="http://www.w3.org/2000/svg">
<rect x="0.5" y="0.5" width="157" height="32" rx="8.5" fill="#020200" stroke="#FF0000"/>
<path d="M20.528 21.144C19.8 21.144 19.188 21.016 18.692 20.76C18.196 20.504 17.788 20.164 17.468 19.74L18.332 18.912C18.652 19.296 18.992 19.58 19.352 19.764C19.712 19.94 20.12 20.028 20.576 20.028C21.104 20.028 21.508 19.908 21.788 19.668C22.076 19.428 22.22 19.084 22.22 18.636C22.22 18.276 22.116 18 21.908 17.808C21.7 17.608 21.344 17.464 20.84 17.376L19.928 17.232C19.528 17.168 19.192 17.064 18.92 16.92C18.648 16.768 18.428 16.592 18.26 16.392C18.092 16.184 17.968 15.956 17.888 15.708C17.816 15.452 17.78 15.184 17.78 14.904C17.78 14.112 18.036 13.512 18.548 13.104C19.06 12.688 19.764 12.48 20.66 12.48C21.324 12.48 21.888 12.588 22.352 12.804C22.824 13.012 23.204 13.308 23.492 13.692L22.652 14.532C22.42 14.252 22.144 14.028 21.824 13.86C21.512 13.684 21.124 13.596 20.66 13.596C20.164 13.596 19.784 13.704 19.52 13.92C19.264 14.128 19.136 14.436 19.136 14.844C19.136 15.188 19.236 15.46 19.436 15.66C19.644 15.852 20.008 15.992 20.528 16.08L21.416 16.236C22.168 16.372 22.716 16.648 23.06 17.064C23.404 17.472 23.576 17.972 23.576 18.564C23.576 18.948 23.508 19.3 23.372 19.62C23.244 19.94 23.048 20.212 22.784 20.436C22.528 20.66 22.208 20.836 21.824 20.964C21.448 21.084 21.016 21.144 20.528 21.144ZM28.0233 21.144C27.5593 21.144 27.1433 21.068 26.7753 20.916C26.4153 20.764 26.1073 20.548 25.8513 20.268C25.6033 19.988 25.4113 19.648 25.2753 19.248C25.1473 18.848 25.0833 18.4 25.0833 17.904C25.0833 17.408 25.1473 16.96 25.2753 16.56C25.4113 16.16 25.6033 15.82 25.8513 15.54C26.1073 15.26 26.4153 15.044 26.7753 14.892C27.1433 14.74 27.5553 14.664 28.0113 14.664C28.6513 14.664 29.1633 14.8 29.5473 15.072C29.9393 15.344 30.2313 15.696 30.4233 16.128L29.4033 16.68C29.2913 16.392 29.1193 16.164 28.8873 15.996C28.6633 15.828 28.3713 15.744 28.0113 15.744C27.5153 15.744 27.1313 15.896 26.8593 16.2C26.5873 16.496 26.4513 16.892 26.4513 17.388V18.42C26.4513 18.908 26.5873 19.304 26.8593 19.608C27.1313 19.912 27.5233 20.064 28.0353 20.064C28.4193 20.064 28.7313 19.976 28.9713 19.8C29.2193 19.624 29.4153 19.384 29.5593 19.08L30.5193 19.668C30.3193 20.1 30.0153 20.456 29.6073 20.736C29.1993 21.008 28.6713 21.144 28.0233 21.144ZM32.3026 19.944H33.9466V15.864H32.3026V14.808H35.2546V16.452H35.3266C35.3826 16.236 35.4626 16.028 35.5666 15.828C35.6706 15.628 35.8026 15.456 35.9626 15.312C36.1226 15.16 36.3186 15.04 36.5506 14.952C36.7826 14.856 37.0546 14.808 37.3666 14.808H38.1106V16.056H36.8866C36.4066 16.056 36.0146 16.2 35.7106 16.488C35.4066 16.768 35.2546 17.148 35.2546 17.628V19.944H37.4986V21H32.3026V19.944ZM42.1859 21.144C41.7299 21.144 41.3179 21.068 40.9499 20.916C40.5899 20.764 40.2819 20.548 40.0259 20.268C39.7779 19.988 39.5859 19.648 39.4499 19.248C39.3139 18.848 39.2459 18.4 39.2459 17.904C39.2459 17.408 39.3139 16.96 39.4499 16.56C39.5859 16.16 39.7779 15.82 40.0259 15.54C40.2819 15.26 40.5899 15.044 40.9499 14.892C41.3179 14.74 41.7299 14.664 42.1859 14.664C42.6419 14.664 43.0499 14.74 43.4099 14.892C43.7779 15.044 44.0859 15.26 44.3339 15.54C44.5899 15.82 44.7859 16.16 44.9219 16.56C45.0579 16.96 45.1259 17.408 45.1259 17.904C45.1259 18.4 45.0579 18.848 44.9219 19.248C44.7859 19.648 44.5899 19.988 44.3339 20.268C44.0859 20.548 43.7779 20.764 43.4099 20.916C43.0499 21.068 42.6419 21.144 42.1859 21.144ZM42.1859 20.112C42.6659 20.112 43.0459 19.968 43.3259 19.68C43.6139 19.384 43.7579 18.948 43.7579 18.372V17.436C43.7579 16.86 43.6139 16.428 43.3259 16.14C43.0459 15.844 42.6659 15.696 42.1859 15.696C41.7059 15.696 41.3219 15.844 41.0339 16.14C40.7539 16.428 40.6139 16.86 40.6139 17.436V18.372C40.6139 18.948 40.7539 19.384 41.0339 19.68C41.3219 19.968 41.7059 20.112 42.1859 20.112ZM46.6813 19.944H48.7333V13.176H46.6813V12.12H50.0413V19.944H52.0933V21H46.6813V19.944ZM53.8766 19.944H55.9286V13.176H53.8766V12.12H57.2366V19.944H59.2886V21H53.8766V19.944ZM71.3392 21C70.7952 21 70.3952 20.856 70.1392 20.568C69.8832 20.272 69.7552 19.892 69.7552 19.428V15.864H67.8472V14.808H69.2032C69.4352 14.808 69.5992 14.764 69.6952 14.676C69.7912 14.58 69.8392 14.412 69.8392 14.172V12.624H71.0632V14.808H73.7032V15.864H71.0632V19.944H73.7032V21H71.3392ZM78.1625 21.144C77.7065 21.144 77.2945 21.068 76.9265 20.916C76.5665 20.764 76.2585 20.548 76.0025 20.268C75.7545 19.988 75.5625 19.648 75.4265 19.248C75.2905 18.848 75.2225 18.4 75.2225 17.904C75.2225 17.408 75.2905 16.96 75.4265 16.56C75.5625 16.16 75.7545 15.82 76.0025 15.54C76.2585 15.26 76.5665 15.044 76.9265 14.892C77.2945 14.74 77.7065 14.664 78.1625 14.664C78.6185 14.664 79.0265 14.74 79.3865 14.892C79.7545 15.044 80.0625 15.26 80.3105 15.54C80.5665 15.82 80.7625 16.16 80.8985 16.56C81.0345 16.96 81.1025 17.408 81.1025 17.904C81.1025 18.4 81.0345 18.848 80.8985 19.248C80.7625 19.648 80.5665 19.988 80.3105 20.268C80.0625 20.548 79.7545 20.764 79.3865 20.916C79.0265 21.068 78.6185 21.144 78.1625 21.144ZM78.1625 20.112C78.6425 20.112 79.0225 19.968 79.3025 19.68C79.5905 19.384 79.7345 18.948 79.7345 18.372V17.436C79.7345 16.86 79.5905 16.428 79.3025 16.14C79.0225 15.844 78.6425 15.696 78.1625 15.696C77.6825 15.696 77.2985 15.844 77.0105 16.14C76.7305 16.428 76.5905 16.86 76.5905 17.436V18.372C76.5905 18.948 76.7305 19.384 77.0105 19.68C77.2985 19.968 77.6825 20.112 78.1625 20.112ZM89.9851 21V12.624H95.2291V13.752H91.3291V16.188H95.0851V17.316H91.3291V19.872H95.2291V21H89.9851ZM97.1564 21V14.808H98.4644V15.864H98.5244C98.5884 15.704 98.6684 15.552 98.7644 15.408C98.8684 15.256 98.9924 15.128 99.1364 15.024C99.2804 14.912 99.4484 14.824 99.6404 14.76C99.8324 14.696 100.056 14.664 100.312 14.664C100.936 14.664 101.44 14.868 101.824 15.276C102.208 15.684 102.4 16.264 102.4 17.016V21H101.092V17.208C101.092 16.224 100.664 15.732 99.8084 15.732C99.6404 15.732 99.4764 15.756 99.3164 15.804C99.1564 15.844 99.0124 15.908 98.8844 15.996C98.7564 16.084 98.6524 16.196 98.5724 16.332C98.5004 16.468 98.4644 16.624 98.4644 16.8V21H97.1564ZM107.316 21C106.772 21 106.372 20.856 106.116 20.568C105.86 20.272 105.732 19.892 105.732 19.428V15.864H103.824V14.808H105.18C105.412 14.808 105.576 14.764 105.672 14.676C105.768 14.58 105.816 14.412 105.816 14.172V12.624H107.04V14.808H109.68V15.864H107.04V19.944H109.68V21H107.316ZM114.271 21.144C113.799 21.144 113.375 21.068 112.999 20.916C112.623 20.764 112.307 20.548 112.051 20.268C111.795 19.988 111.599 19.652 111.463 19.26C111.327 18.86 111.259 18.412 111.259 17.916C111.259 17.42 111.327 16.972 111.463 16.572C111.607 16.172 111.803 15.832 112.051 15.552C112.307 15.264 112.615 15.044 112.975 14.892C113.335 14.74 113.735 14.664 114.175 14.664C114.607 14.664 114.999 14.74 115.351 14.892C115.703 15.036 116.003 15.244 116.251 15.516C116.499 15.788 116.687 16.112 116.815 16.488C116.951 16.864 117.019 17.28 117.019 17.736V18.228H112.579V18.432C112.579 18.92 112.731 19.32 113.035 19.632C113.339 19.936 113.759 20.088 114.295 20.088C114.695 20.088 115.035 20.004 115.315 19.836C115.603 19.66 115.835 19.428 116.011 19.14L116.827 19.86C116.619 20.22 116.299 20.524 115.867 20.772C115.443 21.02 114.911 21.144 114.271 21.144ZM114.175 15.66C113.943 15.66 113.727 15.7 113.527 15.78C113.335 15.86 113.167 15.976 113.023 16.128C112.887 16.272 112.779 16.444 112.699 16.644C112.619 16.844 112.579 17.064 112.579 17.304V17.388H115.687V17.268C115.687 16.78 115.547 16.392 115.267 16.104C114.995 15.808 114.631 15.66 114.175 15.66ZM118.646 19.944H120.29V15.864H118.646V14.808H121.598V16.452H121.67C121.726 16.236 121.806 16.028 121.91 15.828C122.014 15.628 122.146 15.456 122.306 15.312C122.466 15.16 122.662 15.04 122.894 14.952C123.126 14.856 123.398 14.808 123.71 14.808H124.454V16.056H123.23C122.75 16.056 122.358 16.2 122.054 16.488C121.75 16.768 121.598 17.148 121.598 17.628V19.944H123.842V21H118.646V19.944Z" fill="#F5F5F5"/>
<path d="M137.646 22.3536C137.842 22.5488 138.158 22.5488 138.354 22.3536L141.536 19.1716C141.731 18.9763 141.731 18.6597 141.536 18.4645C141.34 18.2692 141.024 18.2692 140.828 18.4645L138 21.2929L135.172 18.4645C134.976 18.2692 134.66 18.2692 134.464 18.4645C134.269 18.6597 134.269 18.9763 134.464 19.1716L137.646 22.3536ZM138 10H137.5V22H138H138.5V10H138Z" fill="#FF0000"/>
</svg>
